<svg id="Capa_1" data-name="Capa 1" xmlns="http://www.w3.org/2000/svg" viewBox="0 0 300 300"><defs><style>.cls-1{fill:#3dbddb;}</style></defs><path class="cls-1" d="M240,235c-.29.6-.63,1.19-.86,1.81a15.46,15.46,0,0,1-14.61,10.4c-13.61.08-27.23.05-40.85,0-4.07,0-6.79-2.61-6.84-6.36s2.74-6.61,6.88-6.65c7.7-.08,15.4,0,23.11,0H222.7c3.73,0,4.29-.58,4.29-4.36V24.37c0-2.33,0-4.67,0-7s-1-3.28-3.26-3.28q-49.6,0-99.22,0a7.11,7.11,0,0,0-.81.16v2.38q0,20.19,0,40.39c0,5.1-2.47,7.55-7.58,7.56H73.25c0,1-.12,1.85-.12,2.68q0,81.24,0,162.49c0,3.88.55,4.42,4.48,4.42,12.69,0,25.37,0,38.06,0a12.94,12.94,0,0,1,3.23.34,6.51,6.51,0,0,1,4.77,6.87,6.37,6.37,0,0,1-6.25,5.79c-14.16,0-28.33.12-42.49,0A15.15,15.15,0,0,1,60.22,233c-.33-7.53-.19-15.09-.19-22.63q0-75.65,0-151.28a8.35,8.35,0,0,1,2.58-6.25Q87.31,28.18,112,3.49A28.36,28.36,0,0,1,115.32,1H227.39c1.26.52,2.55,1,3.78,1.57,4.71,2.25,7.27,6.26,8.83,11ZM110.55,24.07,83.22,51.38h27.33Z"/><path class="cls-1" d="M171.82,252.5c3.53,0,6.87-.09,10.19,0a11.09,11.09,0,0,1,4.5.88A6.32,6.32,0,0,1,188,263.55q-16.58,16.77-33.33,33.36c-2.78,2.75-6.37,2.75-9.18,0q-16.67-16.51-33.2-33.16a6.13,6.13,0,0,1-1.51-7.08,6.39,6.39,0,0,1,6.22-4.11c3.71,0,7.43,0,11.37,0V236.39c0-6.46,0-12.91,0-19.37,0-4.59,2.64-7.19,7.27-7.2q14.47,0,28.94,0c4.61,0,7.26,2.66,7.26,7.23q0,16.33,0,32.68Z"/><path class="cls-1" d="M104.7,107.5l24.53,15.32c5.4,3.37,10.83,6.7,16.17,10.16a3.62,3.62,0,0,1,1.51,2.51c.08,17.41.06,34.83.05,52.25a5.71,5.71,0,0,1-.14.71,15,15,0,0,1-1.6-.74q-19.56-12.21-39.08-24.48a3.52,3.52,0,0,1-1.55-2.44c-.09-17.42-.06-34.84-.06-52.26A8.76,8.76,0,0,1,104.7,107.5Z"/><path class="cls-1" d="M153.18,188.53V155.76c0-6.69,0-13.38,0-20.07a3,3,0,0,1,.76-2.2c5.59-3.62,11.26-7.12,17.35-10.93,0,3.21,0,6,0,8.71s1.09,4,3.21,3.91,3-1.27,3-3.86c0-3.66-.06-7.32.05-11a3.17,3.17,0,0,1,1-2.28c5.48-3.54,11-7,16.81-10.56a17.33,17.33,0,0,1,.2,1.88c0,17,0,33.93-.06,50.89a3.78,3.78,0,0,1-1.36,2.79c-13.25,8.4-26.57,16.7-39.88,25A10.08,10.08,0,0,1,153.18,188.53Z"/><path class="cls-1" d="M168.45,116.88c-4.94,3.1-10,6-14.72,9.34-2.7,1.91-4.6,1.77-7.34,0-12.2-7.87-24.58-15.48-36.89-23.19-.66-.41-1.3-.84-2.17-1.4L114.74,97c4-2.47,7.88-5,11.88-7.36a2.47,2.47,0,0,1,2.18-.07q19.68,13.35,39.26,26.84C168.17,116.45,168.24,116.6,168.45,116.88Z"/><path class="cls-1" d="M134,85c5.13-3.2,10.29-6.45,15.5-9.64a1.73,1.73,0,0,1,1.44.15q20.66,12.89,41.28,25.82c.12.08.18.25.38.52-5.53,3.46-11,7-16.62,10.31a3.38,3.38,0,0,1-3-.12c-13-8.8-25.9-17.71-38.83-26.6C134.11,85.36,134.11,85.26,134,85Z"/></svg>