<svg id="Capa_1" data-name="Capa 1" xmlns="http://www.w3.org/2000/svg" viewBox="0 0 300 300"><defs><style>.cls-1{fill:#3dbddb;}</style></defs><path class="cls-1" d="M224,60.24l-31.6,9.94Q148.65,84,104.93,97.76c-2.15.68-2.91,1.62-2.92,3.94q-.39,69.87-.94,139.73c0,.69,0,1.38,0,2.53,4.12-1.33,8-2.54,11.79-3.81q22.7-7.53,45.38-15.09c.47-.15,1-.24,1.43-.41,2.22-.8,3.86,0,4.58,2.08s-.22,3.73-2.31,4.52c-1.77.67-3.58,1.25-5.37,1.84-18.63,6.16-37.27,12.29-55.88,18.52a7.5,7.5,0,0,1-6.51-.48Q48.7,226.37,3.12,201.78A5.2,5.2,0,0,1,0,196.59q.09-74.51,0-149c0-3,1-4.53,3.91-5.39Q65.4,24,126.87,5.82a6.94,6.94,0,0,1,4.54.33q48.19,22.62,96.31,45.39a5.15,5.15,0,0,1,3.34,5.33q-.12,48.72-.05,97.45c0,3.32-1.11,5-3.33,5.07s-3.69-1.82-3.69-5.16q0-45,0-89.95ZM94,243c.07-1,.14-1.45.15-1.93q.5-70.32,1-140.64c0-1.82-.75-2.63-2.23-3.39-7.62-3.94-15.2-8-22.8-12-.49-.26-1-.4-2-.77v3.57q0,21.58,0,43.18a8.77,8.77,0,0,1-.31,3.54,4.87,4.87,0,0,1-2.61,2.47c-.9.24-2.24-.47-3.15-1.1a6.09,6.09,0,0,1-1.41-2.25L48.91,111.21c-4.13,3.72-8,7.36-12,10.72-1.06.87-3.21,1.63-4.17,1.12-1.16-.61-1.69-2.58-2.28-4a6.73,6.73,0,0,1-.06-2.38c0-16.59,0-33.19,0-49.78,0-1.08-.26-2.75-1-3.14-7.21-4-14.54-7.77-22.13-11.77-.07,1.29-.16,2.16-.16,3q0,69.12-.05,138.25a4,4,0,0,0,2.55,4.11c15.66,8.37,31.26,16.86,46.87,25.32ZM74.05,79.19c8,4.2,15.36,8.16,22.85,11.9a6.89,6.89,0,0,0,4.66.44Q145.18,77.88,188.73,64c9.53-3,19-6.06,29.09-9.26-1.39-.69-2.25-1.14-3.13-1.56-10.09-4.78-20.2-9.5-30.25-14.37a6.61,6.61,0,0,0-5.88-.24Q141.84,53,105,67.14ZM43,62.64c1.11.67,1.83,1.15,2.59,1.55,6,3.18,12,6.26,18,9.54a5,5,0,0,0,4.72.17Q110.61,57.43,153,41.05c6.39-2.47,12.77-5,19.73-7.67-5.4-2.55-10.28-4.73-15-7.17a6.64,6.64,0,0,0-5.64-.3Q120.53,36.64,89,47.21C73.8,52.31,58.64,57.39,43,62.64ZM12.83,46.91c6.53,3.46,12.62,6.62,18.64,9.91a6.33,6.33,0,0,0,5.58.5q42.47-14.41,85-28.64c7.72-2.59,15.43-5.21,23.75-8-5.41-2.56-10.22-4.94-15.13-7.08a6.6,6.6,0,0,0-4.17-.37Q85.06,25.38,43.69,37.72C33.58,40.72,23.47,43.74,12.83,46.91Zm24.55,65.22c3.6-3.25,6.64-6.1,9.79-8.81,2.49-2.13,4.49-1.72,6.12,1.09.65,1.12,1.21,2.3,1.81,3.45q2.73,5.17,5.44,10.37c.62-12.36.64-24.51.56-36.66a2.82,2.82,0,0,0-1.42-1.95c-7-3.79-14.08-7.49-21.15-11.19a3.3,3.3,0,0,0-1.15-.11Z"/><path class="cls-1" d="M300,230.07a64.42,64.42,0,0,1-128.84,0c0-35.38,29.14-64.47,64.5-64.46A64.54,64.54,0,0,1,300,230.07Zm-7,.07c0-31.6-25.53-57.44-56.86-57.48-31.87,0-57.84,25.6-57.89,57.17a57.38,57.38,0,0,0,114.75.31Z"/><path class="cls-1" d="M213.28,230c-3.47-3.38-6.74-6.48-9.89-9.67-6.48-6.57-6.59-16.55-.31-22.83s16.19-6.16,22.82.33c3.21,3.15,6.29,6.42,9.72,9.93,3.46-3.53,6.68-6.94,10-10.2a15.34,15.34,0,0,1,16-3.93c6.2,1.88,9.83,6.28,11,12.59,1,5.4-.79,10.06-4.56,13.93-3.2,3.28-6.54,6.41-10.16,10,3.55,3.47,6.9,6.6,10.09,9.87,4.49,4.58,6.1,10.05,4.09,16.21a15.32,15.32,0,0,1-12.69,10.91,15.16,15.16,0,0,1-13.69-4.42c-3.36-3.24-6.59-6.63-10.34-10.42-3.63,3.83-6.78,7.61-10.39,10.87a15.78,15.78,0,0,1-26-7.62,15.47,15.47,0,0,1,4.33-15.66C206.5,236.63,209.71,233.5,213.28,230Zm1.46-30.63c-4.09.72-7,2.25-8.47,5.74a8.57,8.57,0,0,0,1.78,10c3.74,3.88,7.63,7.63,11.42,11.46,2.78,2.82,2.78,4.3,0,7.06-3.59,3.62-7.21,7.2-10.8,10.82-4.1,4.15-4.36,9.65-.64,13.3s9.2,3.35,13.35-.76c3.69-3.65,7.33-7.36,11-11,2.47-2.43,3.9-2.46,6.35-.06,3.79,3.71,7.48,7.51,11.26,11.21,4,4,9.47,4.2,13.13.68s3.56-9.15-.52-13.31c-3.7-3.79-7.49-7.48-11.2-11.26-2.41-2.46-2.39-3.85.06-6.34,3.72-3.77,7.5-7.47,11.22-11.25,3.95-4,4.17-9.45.58-13.09s-9.31-3.35-13.16.43c-3.56,3.5-7.07,7.06-10.6,10.59-3.34,3.33-4.49,3.31-7.9-.1s-6.79-7.08-10.45-10.31C219.38,201.5,216.92,200.58,214.74,199.35Z"/></svg>