<svg id="Capa_1" data-name="Capa 1" xmlns="http://www.w3.org/2000/svg" viewBox="0 0 300 300"><defs><style>.cls-1{fill:#3dbddb;}</style></defs><path class="cls-1" d="M196,21.22c12.1,1.43,17.16,6.55,20.33,20.37,14.51,2.32,18.78,7.68,20.57,26.07a54,54,0,0,1,26.76,9.14c3.48-3.44,6.9-6.79,10.28-10.18s5.53-3.48,8.86-.08,6.73,6.87,10,10.38c3,3.23,3,5.28-.21,8.48C289,89,285.4,92.68,281.7,96.2a3.09,3.09,0,0,0-.91,3.82c9.87,27.39-6.63,56.51-34.75,63-3,.69-6.09.91-9.41,1.38V168q0,39.5,0,79c0,3-.73,5.26-3.33,7.17s-4.61,4.43-6.88,6.7c-12,12-24,23.89-35.92,35.91a8.74,8.74,0,0,1-6.68,2.7q-57.46-.06-114.92,0c-9.08,0-16.56-2.94-20.86-11.37-1.41-2.76-1.91-6-2.91-9.25-11.79-1.29-18.33-8.38-19.73-20.41C15.79,257.44,9,252.9,6.08,243.5a26,26,0,0,1-1-7.34Q5,129.56,5,23C5,9.58,13.53.68,27,.65q73.41-.18,146.82,0c11.32,0,19,6,21.53,16.27A37,37,0,0,1,196,21.22Zm31,142.15c-.38-.06-.74-.09-1.09-.17-20.63-4.33-36.24-21-38.38-41.89-2.52-24.62,12.84-45.06,34.84-51.67,4.95-1.49,5-1.43,4.74-6.67-.31-7.17-4.73-11.51-11.82-11.51H66.92c-7.05,0-11.44,4.38-11.44,11.38q0,107.64,0,215.27a12.69,12.69,0,0,0,.37,3.54c1.53,5.37,5.42,7.87,12.2,7.88q54.9,0,109.8,0c1,0,1.94-.1,2.84-.15,0-8.62,0-17,0-25.39,0-9.31,6.74-17.91,15.94-18.92,8.22-.91,16.58-.54,24.88-.71,1.77,0,3.54,0,5.4,0ZM186.28,21.28a29.22,29.22,0,0,0-.53-3.06c-1.63-5.36-5.41-7.74-12.31-7.74H27.54c-1,0-2,0-3,.1-3.55.24-6.53,1.82-8,5a19.71,19.71,0,0,0-1.84,8q-.15,106-.08,212c0,.7,0,1.41,0,2.1.59,6.53,4.87,10.86,10.87,10.68V133.11q0-44.88,0-89.77c0-10.13,5.15-18,14-20.83a32.71,32.71,0,0,1,9.73-1.19q66.35-.11,132.67,0ZM45.89,268.88v-3.73q0-101.5,0-203A20,20,0,0,1,66.2,41.89H206.06C206,35.16,201.74,31,195,31q-74.16,0-148.33,0a12.44,12.44,0,0,0-4.67.75c-5.56,2.32-6.75,7-6.75,12.5q.06,105.71,0,211.4a31.91,31.91,0,0,0,.33,4.78C36.35,265.17,40.54,268.72,45.89,268.88ZM256.26,83.81c-13.87-9.52-33.85-8.67-47.67,4.63a38.51,38.51,0,0,0,43.85,62.16c16.72-8.18,25.31-27.32,19.92-44.87-.87.81-1.67,1.51-2.42,2.27q-13.72,13.68-27.45,27.38c-2.73,2.71-5.4,3-7.88.52q-11-10.85-21.91-21.86c-2.46-2.5-2.38-4.82.08-7.35q5.44-5.59,11.07-11c2.36-2.29,5-2.26,7.42,0s4.48,4.58,6.32,6.47Zm21.63-7.68c-1,1-2.07,2.2-3.19,3.33q-16.15,16.33-32.32,32.66c-2.89,2.91-5.37,2.94-8.27,0-2.18-2.18-4.19-4.54-5.84-6.35L223,110.15l15.1,15.08,44.57-44.47Zm-87.5,206L218.61,254c-6,0-12.27-.25-18.52.08-5,.26-9.28,3.87-9.58,8.38C190.06,269,190.39,275.52,190.39,282.08Z"/><path class="cls-1" d="M120.79,64.12q24.21,0,48.42,0c4.52,0,6.07,1.56,6.07,6.11q0,24.92,0,49.82c0,4.3-1.62,5.91-6,5.91H72.43c-4.49,0-6.08-1.62-6.08-6.15V70.29c0-4.67,1.54-6.17,6.32-6.17Q96.73,64.1,120.79,64.12Zm-44.69,52h89.33V73.87H76.1Z"/><path class="cls-1" d="M171.61,233.49H135.2c-3.74,0-5.69-1.57-5.76-4.57-.07-3.18,2-5,5.7-5h72.52c3.62,0,6.05,2,6.07,4.82s-2.29,4.76-6,4.76Z"/><path class="cls-1" d="M103.93,171H72.08c-3.66,0-5.67-1.62-5.73-4.59s2-5,5.76-5q32.16,0,64.31,0c3.69,0,5.84,1.93,5.75,5s-2.08,4.56-5.78,4.56Z"/><path class="cls-1" d="M103.66,274.94H72.12c-3.68,0-5.68-1.59-5.77-4.55-.09-3.12,2-5,5.71-5q31.55,0,63.08,0c3.32,0,5.73,2.08,5.76,4.82s-2.23,4.74-5.69,4.75Z"/><path class="cls-1" d="M148.84,150H120c-3.55,0-5.4-1.52-5.49-4.45s1.88-5.09,5.32-5.1q29-.06,58,0c3.48,0,5.4,2,5.32,5.09s-1.85,4.45-5.45,4.46Z"/><path class="cls-1" d="M139.17,192.05h-25c-3.94,0-5.78-1.59-5.72-4.88,0-3.06,2-4.7,5.64-4.7q25.14,0,50.26,0c3.54,0,6,2.1,5.94,4.93s-2.39,4.65-5.86,4.65Z"/><path class="cls-1" d="M93.76,233.49c-7.32,0-14.64,0-22,0-3.37,0-5.38-1.73-5.45-4.59-.07-3,2-5,5.44-5q22.11,0,44.22,0c3.48,0,5.68,1.94,5.68,4.84s-2.11,4.73-5.66,4.74Z"/><path class="cls-1" d="M186.19,212.47H164.24c-3.33,0-5.46-1.78-5.54-4.56s2.25-5,5.56-5q21.94,0,43.9,0c3.22,0,5.69,2.32,5.58,5s-2.24,4.52-5.6,4.53Z"/><path class="cls-1" d="M144.6,253.92c-6.92,0-13.83,0-20.74,0-3.28,0-5.08-1.61-5.15-4.48s1.82-5,5.05-5.05q20.89-.1,41.79,0a4.67,4.67,0,0,1,5,5.11c-.1,2.84-1.92,4.42-5.22,4.42C158.43,253.93,151.51,253.92,144.6,253.92Z"/><path class="cls-1" d="M175.43,171c-6.61,0-13.22,0-19.83,0-3.1,0-5.15-1.82-5.25-4.53a4.88,4.88,0,0,1,5.16-5q20-.08,40,0a4.77,4.77,0,0,1,5.07,5.09c-.14,2.72-2.14,4.45-5.28,4.46C188.66,171,182.05,171,175.43,171Z"/><path class="cls-1" d="M88.44,253.92c-5.61,0-11.23,0-16.85,0-3.2,0-5.14-1.68-5.24-4.45a4.78,4.78,0,0,1,5.09-5.08q17-.12,34,0c3.2,0,5,2.16,4.86,5.22-.12,2.71-1.92,4.29-5,4.3C99.68,253.93,94.06,253.92,88.44,253.92Z"/><path class="cls-1" d="M86.15,212.47c-4.9,0-9.81,0-14.71,0-3.11,0-5-1.81-5.09-4.59a4.69,4.69,0,0,1,4.89-4.93q14.85-.13,29.7,0a5,5,0,0,1,4.91,5c-.13,2.68-2.22,4.48-5.3,4.49C95.75,212.49,91,212.47,86.15,212.47Z"/><path class="cls-1" d="M85.57,150c-4.7,0-9.4,0-14.1,0-3.13,0-5.07-1.77-5.12-4.55a4.72,4.72,0,0,1,4.87-5q14.55-.16,29.1,0a5.11,5.11,0,0,1,5.09,4.89c0,2.77-2.16,4.62-5.44,4.64Z"/><path class="cls-1" d="M196.65,192.05c-4.8,0-9.6,0-14.4,0-3.36,0-5.19-1.78-5.16-4.82s1.92-4.74,5.26-4.75q14.1-.06,28.2,0c3.11,0,5.45,2.06,5.52,4.71s-2.28,4.84-5.63,4.86C205.85,192.06,201.25,192.05,196.65,192.05Z"/><path class="cls-1" d="M84.21,192.05c-4.2,0-8.41,0-12.62,0-3.28,0-5.26-1.89-5.24-4.81s2-4.75,5.32-4.76q12.78-.06,25.54,0c3.26,0,5.26,1.94,5.24,4.84s-2,4.7-5.32,4.73C92.83,192.07,88.52,192.05,84.21,192.05Z"/><path class="cls-1" d="M130.92,212.47c-4.11,0-8.21,0-12.32,0-3.07,0-5.16-1.86-5.25-4.55a5.09,5.09,0,0,1,5-5q12.77-.13,25.53,0a4.89,4.89,0,0,1,4.89,5c-.1,2.72-2.13,4.49-5.24,4.51C139.33,212.49,135.12,212.47,130.92,212.47Z"/></svg>