<svg id="Capa_1" data-name="Capa 1" xmlns="http://www.w3.org/2000/svg" viewBox="0 0 300 300"><defs><style>.cls-1{fill:#3dbddb;}</style></defs><path class="cls-1" d="M150.46,65.16c-5.61-4.64-9-10.25-9.64-17.3-.42-4.35,1.53-7.43,5.05-7.93,3.94-.56,6.87,2.09,7.25,6.55.53,6.44,5.3,10.66,11.57,10.24a11.14,11.14,0,0,0,10.1-11.62,10.09,10.09,0,0,0-5.8-8.91c-7.85-3.79-11.41-10-11.45-18.6a4.19,4.19,0,0,0-1.91-2.67,17.67,17.67,0,0,1-8.09-13.19H179.9c-.23,5.64-2.92,9.77-7.4,12.84a5.72,5.72,0,0,0-.29,9.24,20.2,20.2,0,0,0,2.66,1.57,23.26,23.26,0,0,1,3.92,38.39c-.62.53-1.21,1.08-2,1.8C185.48,72.34,194,79,202.54,85.63q47.69,37.08,95.33,74.2a5.53,5.53,0,0,1,2,3.71q.16,59.19.08,118.39c0,.41-.06.81-.13,1.64l-52.28,6.33V155.3l37.06,4.31.3-.65L168.69,68.45c.74,6.21,1.38,11.58,2,17q2.67,22.13,5.36,44.24c.63,5.23,1.19,10.46,1.95,15.66a2.72,2.72,0,0,0,1.86,1.78c17.5,2.17,35,4.32,52.54,6.26,8.51.94,8.53.73,8.53,9.38q0,62,.07,124c0,3.15-.84,4.07-4,4.43-20.09,2.23-40.14,4.91-60.24,7-4.52.48-9.23-.59-13.82-1.19q-29.91-3.87-59.8-7.88-29.44-3.9-58.88-7.83c-13.39-1.76-26.79-3.47-40.18-5.21-1.23-.16-2.44-.42-4-.7v-3.59q0-49.42-.06-98.87a5.6,5.6,0,0,1,2.76-5.26q72.6-50.19,145.1-100.52C148.69,66.53,149.47,65.9,150.46,65.16Zm11,3.88L90.53,157.62,170.94,147C167.78,121.15,164.65,95.54,161.42,69Zm-17.5,10.48-.47-.62Q80.12,122.85,16.44,167a6.25,6.25,0,0,0,1.12.2c20-2.61,40.08-5.19,60.11-7.93a7.33,7.33,0,0,0,4.2-2.53q20.38-25.12,40.57-50.43Q133.2,92.93,143.92,79.52Zm8.53,85.32c-5.07.52-9.95,1.21-14.85,1.44-2.62.12-3.21,1.06-3.21,3.51q.11,52.8.06,105.59c0,1,.11,2,.17,3l17.83,1.93ZM112.71,276.11V169l-15.45,1.57V270a8.51,8.51,0,0,0,.07,2.77c.27.76,1,1.82,1.7,1.9C103.51,275.27,108,275.64,112.71,276.11Zm-34.15-3.54v-100L65.17,174v97.16ZM36.73,176.86V268.2l11.92,1.25V175.64Zm-25.24,2.61v86.06L22,266.71V178.47ZM202.21,230h30.64v-7H202.21Zm78.45-7.07H255v6.32h25.65Z"/></svg>