<svg id="Capa_1" data-name="Capa 1" xmlns="http://www.w3.org/2000/svg" viewBox="0 0 300 300"><path d="M300,216.9c-.24,1-.47,2-.74,3a22.55,22.55,0,0,1-21.79,16.71q-43.88,0-87.73,0h-4.1c.51,1.33.93,2.48,1.39,3.63,2.79,7,5.61,14,8.35,21a2,2,0,0,0,2.18,1.46c8.85-.06,17.7-.05,26.55,0,3.39,0,5.52,2.78,4.48,5.8a4.26,4.26,0,0,1-3.8,3,12.13,12.13,0,0,1-1.35,0q-73.33,0-146.67,0c-2.24,0-4.08-.55-5-2.75a4.32,4.32,0,0,1,4.13-6c6.25-.05,12.5,0,18.74,0,2.9,0,5.8,0,8.7,0a1.92,1.92,0,0,0,1.45-.85c3.32-8.14,6.56-16.3,9.82-24.47a3.79,3.79,0,0,0,.11-.71H113c-28.89,0-57.79,0-86.68.05-6.3,0-12.27-.67-17.52-4.85,0,.11-1-.82-1.29-1-3.88-2.76-5.32-7-6.57-11.24a24.35,24.35,0,0,1-.68-6.23c-.09-4,0-8.09,0-12.14A5.55,5.55,0,0,0,0,200.1v-2.4a8.9,8.9,0,0,0,.24-1.43q0-13.58,0-27.15,0-59.16,0-118.34A22.26,22.26,0,0,1,22.63,28.5c6.6,0,13.2,0,19.8,0H146.81q65.48,0,130.93,0a22.28,22.28,0,0,1,21.52,16.62c.25.95.49,1.91.74,2.86Zm-8.52-22.5V183.8q0-66.08,0-132.15c0-8.73-5.85-14.59-14.59-14.6q-21.75,0-43.49,0l-98.54,0H23.42c-8.71,0-14.66,5.9-14.66,14.55V194.4Zm-.22,9H8.76v10.11c0,8.61,6,14.6,14.64,14.61H252c8.55,0,17.1,0,25.65,0,7-.05,12.85-4.74,13.56-11.35C291.64,212.37,291.26,207.94,291.26,203.36ZM186.65,262.65c-3.43-8.58-6.75-16.93-10.14-25.24a2,2,0,0,0-1.52-.72q-24.74,0-49.47-.05a1.67,1.67,0,0,0-1.85,1.27c-3.07,7.8-6.19,15.59-9.28,23.38-.16.4-.26.82-.43,1.36Z"/><path d="M275.41,172.52c1.73,0,3.22,0,4.72,0,2.83,0,4.84,1.92,4.79,4.47a4.53,4.53,0,0,1-4.82,4.31q-18.14,0-36.29,0H163c-.6,0-1.21,0-1.8,0a4.38,4.38,0,0,1,0-8.75c1.43-.07,2.87,0,4.51,0V138c0-4.11,1.52-5.64,5.59-5.64h23.4c3.5,0,5.16,1.64,5.16,5.11q0,16.65,0,33.3v1.7h3.87V125.79c0-3.84,1.6-5.43,5.5-5.43h23.1c4.06,0,5.57,1.53,5.57,5.65v46.4h3.63V105c0-3.79,1.61-5.39,5.38-5.39h22.95c4,0,5.57,1.55,5.57,5.5v67.37Zm-25.06-.08h16.39V108.36H250.35ZM212.6,129v43.39h16.63V129Zm-21.36,43.4V141H174.6v31.44Z"/><path d="M78,183.8c-30.31-.15-53.67-20.81-57.32-48.56a55.42,55.42,0,0,1,36.5-59.5c3.85-1.36,5.84-.38,7.09,3.48q7.24,22.29,14.47,44.58A3.7,3.7,0,0,0,80.48,126Q100.67,138,120.81,150c3.43,2,4,4.22,1.87,7.55C111.65,174.67,95.72,183,78,183.8ZM57.06,85.17c-15.25,6.12-29.18,23.29-28.33,45a46.78,46.78,0,0,0,36.19,43.74c20.13,4.78,39.6-4.93,48.49-18.18-.46-.29-.91-.59-1.37-.86C99.5,147.37,87,139.89,74.39,132.49a7,7,0,0,1-3.34-4.18c-2.56-8-5.19-16.06-7.79-24.08C61.21,97.91,59.15,91.6,57.06,85.17Z"/><path d="M150.91,121.6c-.09,10.81-2.45,19.89-7.28,28.3-1.93,3.38-4.38,4-7.74,2l-42-25c-3.53-2.09-3.87-5.08-.9-8l35.47-34.26c2.82-2.72,5-2.62,7.66.24A54.39,54.39,0,0,1,150.91,121.6Zm-13.62,21.1c7.4-13.83,6.55-35.35-5.53-49.3l-29.65,28.43Z"/><path d="M86.88,60.06A54.53,54.53,0,0,1,124.8,76.28c2.62,2.57,2.6,4.76,0,7.31L89,118.2c-3,2.91-6.21,2-7.52-2q-7.64-23.5-15.32-47c-1.19-3.67-.2-5.64,3.44-6.73A60,60,0,0,1,86.88,60.06Zm-11.52,10,12.15,37.6L116.11,80C105.27,70,88.21,66.48,75.36,70.08Z"/><path d="M221,53.63c16.5,0,33,0,49.49-.05,3.59,0,5.72,3.2,4.62,6a4.41,4.41,0,0,1-4.34,2.84c-4.5,0-9,0-13.5,0H171.49c-3,0-4.91-1.58-5-4.17a4.31,4.31,0,0,1,4.15-4.58c1.1,0,2.2,0,3.3,0Z"/><path d="M220.89,81.35q-24.82,0-49.64,0c-2.86,0-4.74-1.7-4.79-4.25a4.38,4.38,0,0,1,3.95-4.49c.45,0,.9,0,1.35,0h98.38a8.84,8.84,0,0,1,1.79.11,4.41,4.41,0,0,1,3.46,4.77,4.36,4.36,0,0,1-4.26,3.87c-.5,0-1,0-1.5,0Z"/></svg>