<svg id="Capa_1" data-name="Capa 1" xmlns="http://www.w3.org/2000/svg" viewBox="0 0 300 300"><defs><style>.cls-1{fill:#3dbddb;}</style></defs><path class="cls-1" d="M0,226c.51-2.06,1-4.12,1.52-6.17a46.79,46.79,0,0,1,12.56-21.42Q40,172.58,65.84,146.7c18.46-18.37,45.16-19.33,64.94-2.41.44.37.89.73,1.09.89l13.29-13.34c-.31-.37-1-1.17-1.64-2C128,111.8,128.34,84.94,144.92,67.8,163,49.15,181.5,31,200,12.7A43.62,43.62,0,0,1,224.71.53,6.39,6.39,0,0,0,226,0h11.71c2.06.5,4.13,1,6.19,1.5,9.47,2.43,17.17,7.69,23.72,14.79,2.1,2.28,2.18,4.56.34,6.5s-4.64,1.93-6.73-.3c-5.88-6.25-12.63-11-21.2-12.71-13-2.66-24.59.28-34,9.47q-27.57,26.88-54.47,54.42c-14.06,14.32-13.75,38.33.21,52l9-9.2a25.33,25.33,0,0,1-6.32-13.76,23.78,23.78,0,0,1,6-19.44c2.92-3.27,6.12-6.29,9.23-9.4Q191.36,52.18,213,30.55c11.74-11.72,26.17-11.71,37.9,0,6.35,6.34,12.73,12.67,19,19.05,10.75,10.84,10.81,25.63.06,36.44-16.72,16.81-33.76,33.32-50.21,50.4C209.62,147,194.7,148.88,183.34,139l-9.05,9.22a36.84,36.84,0,0,0,28.09,10.22c10.07-.54,18.48-4.76,25.59-11.93,16.91-17.05,33.94-34,50.9-51,16.23-16.25,16.2-39.15,0-55.48-1-1-2.12-2-3.07-3.13a4.43,4.43,0,0,1,.05-6.3,4.14,4.14,0,0,1,6.05-.12c22.72,19.29,23.15,49.2,6.56,67.68-10.1,11.23-21.2,21.57-31.86,32.29-7.3,7.33-14.65,14.62-21.95,21.94-19.05,19.12-45.4,20.19-66,2.68a7.91,7.91,0,0,0-.64-.49L154.7,167.94c.21.27.77,1,1.38,1.73,16,18.83,15.33,45.53-2,63.22q-26.51,27.11-53.63,53.6c-18.59,18.16-46.95,17.93-65.55-.2C27.67,279.2,20.52,272,13.41,264.76A45.35,45.35,0,0,1,.55,239.39,10.35,10.35,0,0,0,0,237.74Zm110.2-58.48c-6.13-6-15.61-5.84-21.94.4-8.68,8.57-17.25,17.25-25.9,25.84-2.28,2.27-4.76,2.34-6.7.41-1.79-1.79-1.8-4.45.26-6.51,9-9.07,18-18.2,27.19-27,5.42-5.19,12.15-7.07,19.68-6.14a25.91,25.91,0,0,1,13.88,6.5l9.13-9.16c-.73-.67-1.49-1.41-2.31-2.07a37.61,37.61,0,0,0-50.57,2.49q-26.38,26.19-52.59,52.57c-15.41,15.47-15.37,38.72,0,54.21q9.91,10,19.88,19.87c16.27,16.2,39.17,16.14,55.46-.13,16.84-16.83,33.62-33.72,50.53-50.48,9.43-9.34,13.7-20.4,11.89-33.62A35.9,35.9,0,0,0,148,174.06l-9.16,9.08c.26.34.54.73.84,1.11,8.46,10.59,8,24-1.55,33.65Q112,244.35,85.53,270.47c-10.42,10.27-25.14,10-35.59-.2Q39.6,260.13,29.45,249.78c-10.13-10.33-10.23-25-.25-35.39,3.77-3.94,7.69-7.76,11.58-11.6,2.41-2.39,5-2.65,6.94-.81,2.1,2,1.89,4.55-.65,7.12-3.5,3.54-7,7-10.55,10.56-7.71,7.73-7.76,16.77-.11,24.44q9.62,9.65,19.25,19.25c7.68,7.66,16.76,7.67,24.45,0q25.59-25.54,51.11-51.15a21.44,21.44,0,0,0,3.69-4.86c3.16-5.95,1.8-14-3.07-17.81-2.4,2.5-4.79,5.06-7.26,7.55-4.19,4.23-8.33,8.51-12.66,12.6a15.31,15.31,0,0,1-17.11,2.82c-5.74-2.68-9-8.3-8.82-14.92.16-6.23,4.27-10,8.3-13.87,2.18-2.09,5-2.15,6.75-.26s1.69,4.26-.39,6.51c-1.39,1.51-3,2.85-4.27,4.42a6,6,0,0,0-.64,7.34c1.47,2.53,3.85,3.8,6.65,3.11a10.62,10.62,0,0,0,4.59-2.87q47.47-47.34,94.85-94.77a18.11,18.11,0,0,0,1.79-1.93,6.46,6.46,0,0,0-9.13-9,27.08,27.08,0,0,0-2.33,2.22q-37.66,37.68-75.35,75.35c-3.35,3.35-5.77,3.88-8,1.76S107.09,171.23,110.19,167.55Zm79.27-35.45c6.4,6.31,15.88,6,22.5-.63q25.92-25.83,51.74-51.74c7.23-7.24,7.17-16.52-.11-23.82q-9.7-9.75-19.45-19.45c-7.7-7.67-16.75-7.66-24.44,0L168.79,87.39a28.48,28.48,0,0,0-2.19,2.35c-4.93,6.21-4.43,15.86,1.41,20.64.65-.78,1.26-1.67,2-2.42,5.71-5.74,11.45-11.45,17.17-17.19,4.29-4.29,9.46-5.83,15.27-4.29,11.55,3.07,15.25,17.11,6.8,25.86C202.82,119,196.15,125.43,189.46,132.1Z"/><path class="cls-1" d="M186.07,216.63c-2.14-.12-3.36-2.08-3.78-4.51-.55-3.21-3.28-6.73.74-9.55a4.28,4.28,0,0,1,6.47,2.21,43.47,43.47,0,0,1,1.83,6.73C191.86,214.31,189.62,216.73,186.07,216.63Z"/><path class="cls-1" d="M205.72,180.55c3.44,1,6.11,1.61,8.6,2.64,2.19.89,2.81,3,2.19,5.14a3.84,3.84,0,0,1-4.38,3.06,38.4,38.4,0,0,1-7.81-2.12,3.68,3.68,0,0,1-2.1-5.1C202.9,182.65,204.64,181.61,205.72,180.55Z"/><path class="cls-1" d="M197.27,192.76a18.45,18.45,0,0,1,3.47,1.81,47.45,47.45,0,0,1,4.55,4.53,4.25,4.25,0,0,1-.16,6.27,4.19,4.19,0,0,1-6,0,28.09,28.09,0,0,1-4.81-5.07,5.21,5.21,0,0,1-.41-4.26C194.41,194.71,196,193.87,197.27,192.76Z"/><path class="cls-1" d="M108,86.86c1.13-1.09,2.22-2.78,3.76-3.48a3.57,3.57,0,0,1,4.89,2,38,38,0,0,1,2.18,8.09c.33,2.17-1,3.73-3.16,4.28s-4.09,0-4.94-2C109.62,93.12,109,90.36,108,86.86Z"/><path class="cls-1" d="M88.15,108.29a71.35,71.35,0,0,1,7.44,2.32c2.2.92,2.7,3.07,2,5.19a3.89,3.89,0,0,1-4.46,3,38.51,38.51,0,0,1-7.55-2.06c-2.18-.84-2.92-2.84-2.37-5.06S85.32,108.46,88.15,108.29Z"/><path class="cls-1" d="M106.53,101.87c-.06,3.53-3.83,5.93-6.44,4a26.07,26.07,0,0,1-6.23-6.43c-.68-1-.18-3.55.7-4.65s3.49-1.83,4.25-1.27a65.39,65.39,0,0,1,7.45,7.17C106.55,101,106.48,101.64,106.53,101.87Z"/></svg>