<svg id="Capa_1" data-name="Capa 1" xmlns="http://www.w3.org/2000/svg" viewBox="0 0 300 300"><defs><style>.cls-1{fill:#3dbddb;}</style></defs><path class="cls-1" d="M149.48,283.43q-61.17,0-122.33,0C20,283.45,13.34,282,8,276.93c-4.92-4.65-7.8-10.12-8-17.24A32.58,32.58,0,0,1,4.84,242q61.11-105.54,122-211.2c4.3-7.45,10.15-12.67,18.82-13.9,11.58-1.63,20.46,2.81,26.38,12.86,6.93,11.77,13.69,23.65,20.52,35.48l29.57,51.22c.2.34.39.68.58,1,2.34,4.15,1.82,7.57-1.45,9.44s-6.45.57-8.86-3.6q-24.9-43.1-49.77-86.22c-2.55-4.43-5.73-7.94-11.14-8.53-6.25-.69-10.75,2.07-13.85,7.34-3.21,5.47-6.36,11-9.53,16.47Q71.29,150.75,14.5,249.13c-4,7-4,12.19,0,17.37a12.81,12.81,0,0,0,9.29,4.93c1,.09,1.95.06,2.93.06H272.83c7.63,0,12.25-2.9,14.47-9.06,1.63-4.5.48-8.56-1.82-12.53Q263.19,211.38,241,172.82q-1.91-3.3-3.79-6.6c-2.46-4.33-2-7.79,1.39-9.65s6.43-.53,8.85,3.66Q262.66,186.6,277.87,213c6.1,10.56,12.11,21.18,18.33,31.68,9.28,15.66.39,33.45-14,37.51a37.67,37.67,0,0,1-10.11,1.2Q210.78,283.49,149.48,283.43Z"/><path class="cls-1" d="M168.55,149.12c0,8.6,0,17.19,0,25.78,0,9.88-7.14,18-16.41,19A18.81,18.81,0,0,1,131.38,179a17.88,17.88,0,0,1-.36-4.07q0-26.07,0-52.15c0-9.81,7-18.12,16-19.08,10.34-1.11,18.78,4.73,21.14,14.7a21.24,21.24,0,0,1,.41,4.65C168.57,131.74,168.55,140.43,168.55,149.12Zm-11.73,0c0-8.2,0-16.41,0-24.62a17.59,17.59,0,0,0-.51-4,6.8,6.8,0,0,0-6.11-5.07,6.88,6.88,0,0,0-6.6,4,14.53,14.53,0,0,0-.82,4.85q-.07,24.48,0,49a15.74,15.74,0,0,0,.59,4.32,6.66,6.66,0,0,0,7.88,4.32c3.74-.91,5.57-3.49,5.59-8.12C156.85,165.53,156.82,157.32,156.82,149.11Z"/><path class="cls-1" d="M149.88,245.62a18.77,18.77,0,1,1,18.66-18.85A18.74,18.74,0,0,1,149.88,245.62ZM156.74,227a7,7,0,1,0-7.08,6.86A7.35,7.35,0,0,0,156.74,227Z"/><path class="cls-1" d="M237,144a6.16,6.16,0,0,1-6.18,5.76,5.88,5.88,0,0,1,.52-11.74A6.12,6.12,0,0,1,237,144Z"/></svg>