<svg id="Capa_1" data-name="Capa 1" xmlns="http://www.w3.org/2000/svg" viewBox="0 0 300 300"><defs><style>.cls-1{fill:#575756;}</style></defs><path class="cls-1" d="M7,149.07c.9-2.47,2.68-3.33,5.27-3.33,32.87,0,231.47,0,264.34,0h1.7c-.46-.5-.75-.83-1.06-1.14q-14.52-14.52-29.06-29a4.7,4.7,0,0,1-1.62-4.62,4.25,4.25,0,0,1,6.72-2.36,10.26,10.26,0,0,1,1,1l36.78,36.76c2.52,2.52,2.53,4.82,0,7.3L254.3,190.48c-1.36,1.37-2.85,2.18-4.82,1.59a4.21,4.21,0,0,1-2.31-6.43,9.14,9.14,0,0,1,1.23-1.41q14.41-14.39,28.84-28.76a5.37,5.37,0,0,1,1.11-.67l-.31-.49h-1.46c-32.83,0-231.4,0-264.22,0A6.62,6.62,0,0,1,9,153.56c-.87-.54-1.36-1.72-2-2.61Z"/></svg>