<svg id="Capa_1" data-name="Capa 1" xmlns="http://www.w3.org/2000/svg" viewBox="0 0 300 300"><path d="M56.21,138.93c0,25-.17,49.92.08,74.88.1,10.87,1,21.73,1.65,32.6a23.22,23.22,0,0,0,.72,3.66c1.93,8.68,7.21,14.23,15.92,15.88a140.58,140.58,0,0,0,21.94,2.9c18,.53,35.93.42,53.89.57,4.21,0,7.09,2.3,7.42,5.84.4,4.28-2.48,7.39-7.08,7.41-12.48.05-25,.22-37.44,0-10.13-.2-20.31-.44-30.36-1.59a74.88,74.88,0,0,1-19.2-5c-11.13-4.47-16.63-13.92-18.38-25.23A188,188,0,0,1,43,222.34q-.16-85.23.28-170.47A126.87,126.87,0,0,1,45.6,30.35c2.9-16.09,13.21-25,29-27.36A238.9,238.9,0,0,1,103.12.79c15-.41,29.95-.35,44.93-.33C163.68.49,179.33.41,195,1A163.7,163.7,0,0,1,220.41,3.9c15.28,3,24.17,12.88,26.57,28A180.12,180.12,0,0,1,249.11,59c.21,41.68.09,83.37.08,125.05,0,3.94-2.12,6.8-5.38,7.32a6.67,6.67,0,0,1-7.86-6.11c-.09-.91,0-1.83,0-2.74,0-42,.1-84-.15-126a161,161,0,0,0-2.4-24.26C232,23.86,226.59,19,218.44,17c-9.61-2.4-19.42-2.84-29.22-2.88q-45.67-.18-91.35.1a132.66,132.66,0,0,0-21.32,1.94c-12,2.07-17.16,7.57-18.54,19.79A237.79,237.79,0,0,0,56.5,60.8c-.18,26.05-.06,52.09-.06,78.13Z"/><path d="M243.52,225.34c-.12,12.58-3.46,23.1-10.7,32.23-1.36,1.72-1.29,2.77.15,4.4q11.09,12.48,22,25.17c4.12,4.82,1.78,11.39-4.32,12.33-3,.47-5.22-1.05-7.13-3.25-7.19-8.29-14.47-16.5-21.6-24.84-1.38-1.63-2.36-1.68-4.13-.68a50.88,50.88,0,0,1-75.6-37.11c-4.07-28.07,16.29-54.43,44.46-57.56A50.78,50.78,0,0,1,243,219.36C243.35,221.66,243.41,224,243.52,225.34Zm-50.9-37.53a38.76,38.76,0,1,0,38.77,38.93A38.73,38.73,0,0,0,192.62,187.81Z"/><path d="M129,57.85h39.17c2.65,0,4.92.78,6.28,3.26a5.82,5.82,0,0,1-.32,6.58c-1.54,2.19-3.78,2.75-6.33,2.75q-29.19,0-58.38,0c-6.82,0-13.64,0-20.46,0-4.32,0-7.09-2.9-6.81-6.84.25-3.5,3-5.71,7.18-5.73,10,0,20,0,29.94,0Z"/><path d="M128.65,114.47q-19.71,0-39.41,0c-4.25,0-7-2.41-7.09-6s2.7-6.31,7.08-6.32q39.66,0,79.31,0c4.2,0,6.82,2.51,6.78,6.31,0,3.56-2.76,6.07-6.77,6.08q-20,0-39.9,0Z"/><path d="M129.22,155.36c-13.3,0-26.6,0-39.9,0-4,0-6.72-2.57-6.73-6.16A6,6,0,0,1,88,143a16.72,16.72,0,0,1,2.24-.1q38.91,0,77.82,0a10.78,10.78,0,0,1,5,1.08,5.74,5.74,0,0,1,2.52,6.72,6.29,6.29,0,0,1-6.37,4.59c-10.81,0-21.62,0-32.42,0h-7.49Z"/><path d="M202.31,70.46c-2.24,0-4.49.07-6.72,0a6.16,6.16,0,0,1-6.2-5.89c-.12-3.47,2-6.26,5.54-6.43a151.68,151.68,0,0,1,15.67.07c3.14.17,5.2,3.07,5.1,6.31A6.23,6.23,0,0,1,210,70.43a4.19,4.19,0,0,1-.5,0Z"/><path d="M202.34,102.15c2.41,0,4.82-.05,7.22,0a6.11,6.11,0,0,1,6.14,6.19,6,6,0,0,1-5.95,6.11c-4.8.13-9.62.14-14.43,0a5.86,5.86,0,0,1-6-6.29c0-3.44,2.57-5.91,6.26-6,2.24-.07,4.48,0,6.72,0Z"/><path d="M202.9,155.42c-2.33,0-4.65.05-7,0a6,6,0,0,1-6.07-5.94,5.89,5.89,0,0,1,5.87-6.37c4.89-.12,9.79-.1,14.68,0a6.13,6.13,0,0,1,.2,12.22c-2.56.18-5.14,0-7.71,0Z"/><path d="M199.63,213.63c0,3.41.08,6.82,0,10.22a2.18,2.18,0,0,0,2,2.59c3.06.73,6.12,1.53,9.15,2.4,3.52,1,5.25,3.68,4.39,6.63s-3.58,4.27-7.2,3.33Q201,237,194.16,235.21c-3.63-1-4.91-2.42-4.95-6.15q-.14-13.08-.05-26.18c0-3.52,2.14-5.73,5.2-5.78s5.13,2.29,5.23,5.81,0,7.15,0,10.72Z"/></svg>