<svg id="Capa_1" data-name="Capa 1" xmlns="http://www.w3.org/2000/svg" viewBox="0 0 300 300"><path d="M150.65,263.6c-25.05-30.6-49.32-60.6-74-90.24-10.1-12.12-18.65-24.9-23.63-40C34.81,78.25,68.38,17.3,124.77,3.22c57.17-14.27,115,22.5,125.37,79.66,5.71,31.56-1.79,59.7-21.81,84.58Q192.45,212,156.48,256.54C154.73,258.71,152.93,260.84,150.65,263.6Zm.7-13.1a16.82,16.82,0,0,1,1.44-3.22c23.92-29.7,48.11-59.18,71.74-89.11,24-30.34,25.15-74.13,3.58-107.15C206.64,18.16,166,2,128.39,11.36c-68.78,17.2-94,97.24-48.19,152.72q29.39,35.58,58.58,71.33C142.58,240,146.44,244.62,151.35,250.5Z"/><path d="M182.44,247.05c2.52-5.76,5.69-9,12.06-7.27,14.53,4,29.28,7.39,43.57,12.14,7.22,2.41,13.82,7.66,13.9,16.38s-6.88,13.14-13.74,16.59c-15.52,7.8-32.39,10.76-49.45,12.6-36.43,3.93-72.72,3.6-108.36-5.88a87.1,87.1,0,0,1-24.7-11c-10.54-6.86-10.09-17.66.15-25C68,246.87,82.3,244,96.55,241.21c3-.58,6.07-.63,9-1.45,6.36-1.81,10.28.71,12.87,6.83-9.32,1.6-18.69,2.67-27.76,4.93a170.35,170.35,0,0,0-25.72,8.71c-3.14,1.33-7.09,5.17-7.19,8s3.87,6.42,6.92,8.09c14.49,7.94,30.61,10.75,46.73,12.49,34.63,3.76,69.23,3.62,103.3-4.83A104.6,104.6,0,0,0,237,275.45c8.64-4.43,8.83-10.69-.19-14.26-13.16-5.2-27.1-8.49-40.79-12.27C191.88,247.78,187.46,247.71,182.44,247.05Z"/><path d="M189,96.29a38.9,38.9,0,0,1-38.55,39.18c-21.47.17-39.36-17.58-39.48-39.16s17.64-39.11,39.47-39A38.51,38.51,0,0,1,189,96.29Zm-39,30.34a30.48,30.48,0,0,0,30.58-29.9c.22-16.79-13.7-30.93-30.37-30.85a30.38,30.38,0,0,0-.21,60.75Z"/></svg>