<svg id="Capa_1" data-name="Capa 1" xmlns="http://www.w3.org/2000/svg" viewBox="0 0 300 300"><defs><style>.cls-1{fill:#3dbddb;}</style></defs><path class="cls-1" d="M0,192.25c1.56-2.15,3.67-2.82,6.3-2.81q20.36.13,40.71,0a9.36,9.36,0,0,0,5.06-1.58c23.53-16.43,56.57-2.77,61.59,25.53.22,1.26.21,2.52,2.09,2.51,9.75-.05,19.5,0,29.7,0V55.27c0-5.11-1-6.13-6.17-6.13H15.11c-5.12,0-6.32,1.22-6.32,6.39q0,59.61,0,119.22c0,2.46-.11,4.73-2.84,5.79s-4.38-.53-6-2.35V50.43C2.77,42.58,8.5,39.93,16.57,40c40.52.17,81.05.25,121.58,0,11-.08,17.09,6.66,16.41,15.91a14,14,0,0,0,.16,1.79h3.49c14.06,0,28.13,0,42.19,0,18.34.06,31.44,8.33,38.95,25.17Q251,109,262.56,135.17a6,6,0,0,0,3.81,3.59c4.87,1.69,9.71,3.5,14.48,5.45A30.56,30.56,0,0,1,300,172.82q0,23.15,0,46.29c0,4.25-1.52,5.81-5.82,5.83-9,0-18,.05-26.95,0-1.9,0-2.68.49-3,2.5a39.53,39.53,0,0,1-77.86,0c-.14-.75-.36-1.49-.59-2.46h-3c-21.88,0-43.75,0-65.63,0-2.19,0-3.16.39-3.59,2.88-3.16,18.35-20,32.24-38.78,32.28S39,246.09,35.82,227.6c-.36-2-1-2.73-3.15-2.7-8.79.12-17.58,0-26.37.09A7.1,7.1,0,0,1,0,222.14Zm291.21-2.77c0-5.42,0-10.57,0-15.71,0-10.37-5.42-18.18-15-21.86-5.09-1.94-10.15-4-15.32-5.69a8.43,8.43,0,0,1-5.43-5.19c-8-18.09-16.05-36.12-24-54.22a3.62,3.62,0,0,0-3.89-2.56c-23.34.08-46.67,0-70,0h-2.8V215.85c10,0,19.85,0,29.68-.11.65,0,1.69-1.4,1.85-2.27a39.7,39.7,0,0,1,62.05-25.35,8,8,0,0,0,4.28,1.3c9,.12,18,.06,27,.06ZM74.68,251A30.59,30.59,0,1,0,44,220.28,30.68,30.68,0,0,0,74.68,251Zm150.61,0a30.59,30.59,0,1,0-30.75-30.67A30.7,30.7,0,0,0,225.29,251Zm-2-175.91A28.84,28.84,0,0,0,203,66.75c-15.51-.07-31,0-46.53,0-.56,0-1.12.1-1.72.15v8.18ZM8.88,215.85c8.44,0,16.62.05,24.79-.1.7,0,1.69-1.26,2-2.12,1-2.75,1.51-5.63,2.49-8.36.8-2.21,2-4.27,3-6.45H8.88Zm282.17-17H259.5c1.63,5.19,3.21,10.35,4.92,15.46.21.64,1.09,1.51,1.66,1.52,8.27.09,16.54.06,25,.06Z"/><path class="cls-1" d="M204.4,145.83H169.54c-5,0-6.5-1.52-6.51-6.45q0-20.07,0-40.13c0-5,1.47-6.46,6.47-6.46,16.79,0,33.58,0,50.37,0,3.24,0,5.23,1.11,6.56,4.17,6,13.83,12.25,27.58,18.36,41.38,2,4.53.07,7.5-5,7.52C228,145.87,216.21,145.83,204.4,145.83Zm-14.51-43.94v34.69h44a3.53,3.53,0,0,0-.08-1C229,124.79,224.24,114,219.4,103.3a2.63,2.63,0,0,0-1.86-1.35C208.39,101.86,199.24,101.89,189.89,101.89ZM172.3,102V136.5h8.13V102Z"/><path class="cls-1" d="M176.23,163.41c-2.63,0-5.26.07-7.88,0-3.21-.1-5.35-2.08-5.26-4.68s2.15-4.33,5.23-4.37q8-.09,16.06,0c3.1,0,5.15,1.82,5.25,4.35s-2,4.54-5.23,4.72h-8.17Z"/><path class="cls-1" d="M96.67,220.4a22,22,0,1,1-22.09-22.11A22.08,22.08,0,0,1,96.67,220.4Zm-22,13a13,13,0,1,0-13.18-13.14A13.08,13.08,0,0,0,74.72,233.39Z"/><path class="cls-1" d="M203.32,220.26a22,22,0,1,1,22,22.22A22.12,22.12,0,0,1,203.32,220.26Zm21.84,13.13a13,13,0,1,0-13-13A13.08,13.08,0,0,0,225.16,233.39Z"/></svg>