<svg id="Capa_1" data-name="Capa 1" xmlns="http://www.w3.org/2000/svg" viewBox="0 0 800 800"><defs><style>.cls-1{fill:#c1b8ca;}.cls-2{fill:#fff;}.cls-3{fill:#2e2e2f;}.cls-4{fill:#4b494a;}.cls-5{fill:#353435;}.cls-6{fill:#dfd8e3;}.cls-7{fill:#9d93a9;}.cls-8{fill:#3fbddb;}.cls-9{fill:#1f1f1f;}.cls-10{fill:#626261;}</style></defs><path class="cls-1" d="M218,736.18,735.06,435.74c4.53-2.61,4-7.18-1.27-10.21L602.62,349.81c-5.23-3-13.15-3.35-17.68-.74L67.86,649.51c-4.53,2.61-4,7.18,1.27,10.21l131.16,75.72C205.53,738.47,213.45,738.8,218,736.18Z"/><path class="cls-2" d="M424.32,567.24a4,4,0,0,0-2-.52,7,7,0,0,0-3.41,1c-5.15,3-9.34,11-9.34,18,0,3.44,1,6,2.89,7.09,1.46.85,3.39.67,5.44-.52,5.15-3,9.35-11,9.35-17.94C427.22,570.89,426.16,568.31,424.32,567.24Z"/><path class="cls-2" d="M259.15,579.21a.87.87,0,0,0-.44-.11,2.05,2.05,0,0,0-.95.3l-11.66,6.73c-1.72,1-3.17,3.81-3.17,6.15a2.4,2.4,0,0,0,.77,2.09,1.47,1.47,0,0,0,1.39-.19l11.66-6.73c1.72-1,3.17-3.81,3.17-6.15A2.4,2.4,0,0,0,259.15,579.21Z"/><path class="cls-3" d="M264.24,649.63c5.12-13.15,13.69-24.19,22.94-29.53a23,23,0,0,1,11.05-3.38l-10.06-5.91a30.08,30.08,0,0,0-4.27,2.05c-12.75,7.36-24.07,24.76-28.17,43.29h0a1,1,0,0,1-.33.53l-.06.05s0,0-.08.07l-17.21,10.3c1.46,6.43,4.65,11.06,9.07,13a1,1,0,0,1,.44.41L263.91,690c-2.77-4.31-4.3-10.24-4.3-17.28A64.58,64.58,0,0,1,264.24,649.63Z"/><path class="cls-2" d="M190.47,626.67c0-.59.05-1.17.06-1.76l-26.78-15.49L157.88,644h0l-1.39,8.15a5.16,5.16,0,0,1-2.88,3.8,5.24,5.24,0,0,1-2.19.48,5.11,5.11,0,0,1-2.57-.69L99.42,627.13a13.29,13.29,0,0,1-6.62-10.65L91.17,592c-.06-.92-.15-2.86-.26-5.26a1,1,0,0,1,0-.82c-.28-6.78-.63-16.6-.72-19L62.9,551.09c0,.23,0,.45,0,.68V607c0,2.7.78,4.84,2.12,5.86l.1.1,126,72.9a12.35,12.35,0,0,1-.65-4ZM87.32,614.72a3.38,3.38,0,0,1-1.46,3.09,2.43,2.43,0,0,1-1.21.32,3.15,3.15,0,0,1-1.59-.46l-13.86-8A7.58,7.58,0,0,1,66,603.55V566.4a3.4,3.4,0,0,1,1.46-3.09,2.75,2.75,0,0,1,2.8.14l13.86,8a7.57,7.57,0,0,1,3.25,6.11Zm98.84,56.88a3.4,3.4,0,0,1-1.46,3.09,2.4,2.4,0,0,1-1.21.32,3.28,3.28,0,0,1-1.59-.46l-13.86-8h0a7.59,7.59,0,0,1-3.24-6.12V623.28a3.4,3.4,0,0,1,1.45-3.09,2.77,2.77,0,0,1,2.81.14l13.85,8a7.58,7.58,0,0,1,3.25,6.12Z"/><path class="cls-2" d="M225.61,565l-9.06-5.23a1.52,1.52,0,0,0-1.23-.22l-.16.09a2.44,2.44,0,0,0-.67,2v23a8.15,8.15,0,0,0,1.78,4.8h0a4.91,4.91,0,0,0,1.29,1.15l9.06,5.24a1.5,1.5,0,0,0,1.27.2l.1-.06a2.4,2.4,0,0,0,.69-2V571C228.68,568.72,227.28,566,225.61,565Z"/><polygon class="cls-2" points="229.96 660.63 243.83 652.62 243.83 643.29 229.96 651.3 229.96 660.63"/><polygon class="cls-4" points="72.92 521.81 189.13 589.03 212.22 503.13 96.01 435.92 72.92 521.81"/><path class="cls-5" d="M219.34,555.48a3.64,3.64,0,0,1,2,.5l9.06,5.23c2.29,1.32,4.09,4.71,4.09,7.71v8.91l19.24-11.08c3.42-2,6.2-7.33,6.2-11.94V490.19c0-2.23-.66-3.89-1.81-4.56a3.41,3.41,0,0,0-3.38.36l-21.09,12.17c-2.67,1.54-5.09,5.49-6,9.82-2.24,10.37-7.85,31.91-12.52,49.42l3.43-1.86A1,1,0,0,1,219.34,555.48Z"/><path class="cls-6" d="M218.28,508c1.63-7.65,6.34-14.91,11.71-18l78.62-46.24a8.58,8.58,0,0,1,1.43-.65l-126.28-73s-.06-.06-.1-.09a.88.88,0,0,1-.16,0,4.36,4.36,0,0,0-3.48.64L101.4,416.82c-4.91,2.84-9.24,9.57-10.77,16.74L66.48,524.24a107.13,107.13,0,0,0-2.94,16.17l127.68,73.86a109.47,109.47,0,0,1,2.92-15.65ZM217,490a1,1,0,0,1,1.38-.37l1.17.67a1,1,0,0,1,.37,1.38,1,1,0,0,1-.87.51.94.94,0,0,1-.51-.14l-1.17-.67A1,1,0,0,1,217,490Zm-7.05-4.07a1,1,0,0,1,1.38-.37l2.35,1.36a1,1,0,0,1-.5,1.88,1,1,0,0,1-.51-.13l-2.35-1.36A1,1,0,0,1,209.92,485.91Zm-7-4.07a1,1,0,0,1,1.38-.37l2.35,1.36a1,1,0,0,1-.5,1.88,1,1,0,0,1-.51-.13l-2.35-1.36A1,1,0,0,1,202.87,481.84Zm-7.05-4.07a1,1,0,0,1,1.38-.37l2.35,1.36a1,1,0,0,1-.5,1.89,1,1,0,0,1-.51-.14l-2.35-1.36A1,1,0,0,1,195.82,477.77Zm-7-4.07a1,1,0,0,1,1.38-.37l2.35,1.36a1,1,0,0,1-.5,1.89,1,1,0,0,1-.51-.14l-2.35-1.36A1,1,0,0,1,188.77,473.7Zm-7.05-4.06a1,1,0,0,1,1.38-.37l2.35,1.35a1,1,0,0,1,.37,1.38,1,1,0,0,1-.87.51,1,1,0,0,1-.51-.14L182.09,471A1,1,0,0,1,181.72,469.64Zm-7.05-4.07a1,1,0,0,1,1.38-.37l2.35,1.35a1,1,0,0,1-.51,1.89.93.93,0,0,1-.5-.14L175,467A1,1,0,0,1,174.67,465.57Zm-7-4.07a1,1,0,0,1,1.38-.37l2.35,1.35a1,1,0,0,1-.51,1.89.93.93,0,0,1-.5-.14L168,462.88A1,1,0,0,1,167.62,461.5Zm-7.05-4.07a1,1,0,0,1,1.38-.37l2.35,1.36a1,1,0,0,1,.37,1.38,1,1,0,0,1-.88.5,1,1,0,0,1-.5-.13l-2.35-1.36A1,1,0,0,1,160.57,457.43Zm-7-4.07a1,1,0,0,1,1.38-.37l2.35,1.36a1,1,0,0,1,.37,1.38,1,1,0,0,1-.88.5,1,1,0,0,1-.5-.13l-2.35-1.36A1,1,0,0,1,153.52,453.36Zm-7.05-4.07a1,1,0,0,1,1.38-.37l2.35,1.36a1,1,0,0,1,.37,1.38,1,1,0,0,1-.88.5,1,1,0,0,1-.5-.13l-2.35-1.36A1,1,0,0,1,146.47,449.29Zm-7.05-4.07a1,1,0,0,1,1.38-.37l2.35,1.36a1,1,0,0,1,.37,1.38,1,1,0,0,1-.88.5,1,1,0,0,1-.5-.13l-2.35-1.36A1,1,0,0,1,139.42,445.22Zm-7-4.07a1,1,0,0,1,1.38-.37l2.35,1.36a1,1,0,0,1,.37,1.38,1,1,0,0,1-.88.51,1,1,0,0,1-.5-.14l-2.35-1.36A1,1,0,0,1,132.37,441.15Zm-7.05-4.07a1,1,0,0,1,1.38-.37l2.35,1.36a1,1,0,0,1,.37,1.38,1,1,0,0,1-.88.51,1,1,0,0,1-.5-.14l-2.35-1.36A1,1,0,0,1,125.32,437.08Zm-7-4.07a1,1,0,0,1,1.38-.37L122,434a1,1,0,1,1-1,1.75l-2.35-1.35A1,1,0,0,1,118.27,433Zm-7-4.06a1,1,0,0,1,1.38-.37l2.35,1.35a1,1,0,0,1-.51,1.89.93.93,0,0,1-.5-.14l-2.35-1.35A1,1,0,0,1,111.22,429Zm-7-4.07a1,1,0,0,1,1.38-.37l2.35,1.35a1,1,0,0,1-.51,1.89.93.93,0,0,1-.5-.14l-2.35-1.35A1,1,0,0,1,104.17,424.88Zm-5.87-3.39a1,1,0,0,1,1.38-.37l1.17.68a1,1,0,0,1,.37,1.38,1,1,0,0,1-.88.5,1,1,0,0,1-.5-.13l-1.17-.68A1,1,0,0,1,98.3,421.49Zm92.44,169.33s0,0,0,.06a1.39,1.39,0,0,1-.06.19c0,.08-.13.12-.19.19s-.08.09-.13.13a1,1,0,0,1-.55.18h0a1.15,1.15,0,0,1-.26,0,.71.71,0,0,1-.15-.08l-.09,0-118-68.27,0,0A1.07,1.07,0,0,1,71,523a1.49,1.49,0,0,1-.12-.14.65.65,0,0,1-.08-.17,1.34,1.34,0,0,1-.07-.18,1.91,1.91,0,0,1,0-.39s0-.05,0-.07L94.4,434.12a.6.6,0,0,1,.06-.11c0-.05,0-.09,0-.13l.06-.06a1.34,1.34,0,0,1,.11-.14l.17-.14s.09,0,.14-.07a.81.81,0,0,1,.22-.07h.37a.16.16,0,0,0,.07,0l.12.06a.69.69,0,0,1,.13.05l118,68.26s0,0,.06.05l.15.13a.88.88,0,0,1,.12.15.91.91,0,0,1,.09.17,1,1,0,0,1,.06.18,1.15,1.15,0,0,1,0,.19,1.41,1.41,0,0,1,0,.2s0,.05,0,.07Z"/><path class="cls-5" d="M212.47,567.25c-2.6,9.65-4.47,16.49-4.52,16.69-.51,3,0,5.52,1.47,6.52a3.32,3.32,0,0,0,3.55-.25l1-.56a10,10,0,0,1-1.47-5Z"/><path class="cls-6" d="M229.38,563l-9.06-5.23a1.59,1.59,0,0,0-1.08-.27l-1.39.75,8.77,5.07c2.29,1.32,4.09,4.71,4.09,7.71v23c0,.16,0,.3-.05.46l.66-.37a2.21,2.21,0,0,0,1.14-2.16V568.92C232.46,566.66,231.05,563.92,229.38,563Z"/><path class="cls-1" d="M267.92,624.94V470L231,491.73c-4.91,2.83-9.24,9.56-10.76,16.73L196.1,599.14a107.08,107.08,0,0,0-3.61,27.53V681.9c0,3,.91,5.18,2.48,6.09,1.26.73,2.86.57,4.63-.46l30.84-18.22,5.88-3.53h0l17.53-10.49A80.71,80.71,0,0,1,267.92,624.94Zm-42.31-27.32-9.06-5.24a6.42,6.42,0,0,1-1.37-1.11L214,592a6.44,6.44,0,0,1-3.18.95,4.36,4.36,0,0,1-2.54-.79c-2.11-1.48-3-4.7-2.28-8.62.17-.67,15.59-57,19.66-75.94,1.07-4.94,3.81-9.31,7-11.15l21.09-12.17a5.28,5.28,0,0,1,5.4-.36c1.8,1,2.82,3.34,2.82,6.31v64.62c0,5.34-3.17,11.36-7.21,13.69l-20.25,11.66V592a4,4,0,0,1-1.57,3.47,1,1,0,0,1-.31.29l-.16.09-.06,0h-.06L229,597.75s0,0-.07,0l-.12.05-.06,0-.07,0a3,3,0,0,1-1.18.27A3.9,3.9,0,0,1,225.61,597.62Zm20.24,55.59a1,1,0,0,1-.5.87l-15.9,9.18a1,1,0,0,1-.5.14,1,1,0,0,1-.51-.14,1,1,0,0,1-.5-.88V650.72a1,1,0,0,1,.5-.88l15.9-9.18a1,1,0,0,1,1.51.88Zm-1.71-56.7a2.87,2.87,0,0,1-1.45-.39,4.22,4.22,0,0,1-1.78-3.84c0-3.08,1.84-6.55,4.18-7.9l11.66-6.73a3.3,3.3,0,0,1,3.41-.19,4.2,4.2,0,0,1,1.78,3.84c0,3.08-1.83,6.55-4.18,7.9l-11.66,6.73A3.87,3.87,0,0,1,244.14,596.51Z"/><path class="cls-3" d="M417.87,543.06a22.45,22.45,0,0,1,11.62-3.35l-4.06-2.3L369.14,569.9c-.21,1-.38,1.9-.53,2.85l6.77,3.85a1,1,0,0,1,.43.53c5.92,3.78,9.32,11.86,9.32,22.38a55.7,55.7,0,0,1-.54,7.56l10,5.8c-2.75-4.3-4.26-10.22-4.26-17.22C390.3,575.43,402.67,551.84,417.87,543.06Z"/><path class="cls-5" d="M374.26,578.5a12.72,12.72,0,0,0-6.45-1.68,20.79,20.79,0,0,0-10.25,3.1C342.91,588.38,331,611.19,331,630.76c0,10.11,3.22,17.77,8.85,21,4.58,2.64,10.51,2.14,16.7-1.43,14.64-8.45,26.56-31.26,26.56-50.84C383.11,589.4,379.88,581.74,374.26,578.5Zm-16.7,61.42a15.41,15.41,0,0,1-7.64,2.28,10.08,10.08,0,0,1-5.1-1.33c-4.26-2.47-6.71-8.07-6.71-15.38,0-13.5,8.27-29.26,18.44-35.13,4.63-2.68,9.16-3,12.74-1,4.26,2.46,6.7,8.06,6.7,15.38C376,618.29,367.72,634.05,357.56,639.92Z"/><path class="cls-2" d="M298.91,633.09a8.08,8.08,0,0,0-4.1-1.06,13.36,13.36,0,0,0-6.62,2c-9.61,5.54-17.42,20.52-17.42,33.38,0,6.57,2.07,11.53,5.69,13.62,2.93,1.69,6.74,1.35,10.72-.95,9.61-5.54,17.42-20.51,17.42-33.38C304.6,640.14,302.53,635.18,298.91,633.09Zm-11.23,3.12c1-.59,1.86,0,1.86,1.4a4.42,4.42,0,0,1-1.86,3.54c-1,.59-1.85,0-1.85-1.4A4.45,4.45,0,0,1,287.68,636.21ZM276.62,648.7c.73-1.38,1.9-2.05,2.62-1.51s.73,2.11,0,3.5-1.89,2-2.62,1.51S275.9,650.09,276.62,648.7Zm-2.72,18.8c-1,.59-1.86,0-1.86-1.4a4.42,4.42,0,0,1,1.86-3.54c1-.59,1.85,0,1.85,1.4A4.45,4.45,0,0,1,273.9,667.5Zm5.34,9.19c-.72,1.38-1.89,2.06-2.62,1.51s-.72-2.11,0-3.5,1.9-2.05,2.62-1.51S280,675.3,279.24,676.69Zm8.44,1.23c-1,.59-1.85,0-1.85-1.4a4.45,4.45,0,0,1,1.85-3.54c1-.59,1.86,0,1.86,1.4A4.42,4.42,0,0,1,287.68,677.92Zm.51-6.84a9,9,0,0,1-4.42,1.32,6.06,6.06,0,0,1-3-.8c-2.48-1.44-3.91-4.66-3.91-8.85,0-7.56,4.65-16.4,10.36-19.7,2.7-1.55,5.34-1.73,7.46-.51,2.48,1.43,3.91,4.65,3.91,8.84C298.55,658.94,293.9,667.78,288.19,671.08Zm10.55-5.65c-.72,1.38-1.89,2.06-2.62,1.51s-.72-2.11,0-3.49,1.9-2.06,2.62-1.52S299.47,664,298.74,665.43Zm0-26c-.72,1.38-1.89,2.06-2.62,1.51s-.72-2.11,0-3.49,1.9-2.06,2.62-1.52S299.47,638,298.74,639.43Zm2.73,7.2c1-.59,1.86,0,1.86,1.4a4.45,4.45,0,0,1-1.86,3.55c-1,.59-1.85,0-1.85-1.41A4.46,4.46,0,0,1,301.47,646.63Z"/><path class="cls-3" d="M427.46,536.23l9.24,5.26a1,1,0,0,1,.43.52,15.65,15.65,0,0,1,2.55,2.06v-4.3l-9.18-5.3Z"/><path class="cls-2" d="M368.28,591.16a8.11,8.11,0,0,0-4.1-1.06,13.36,13.36,0,0,0-6.62,2c-9.61,5.54-17.43,20.52-17.43,33.38,0,6.57,2.08,11.53,5.7,13.62,2.93,1.7,6.73,1.36,10.72-.94,9.61-5.55,17.42-20.52,17.42-33.38C374,598.22,371.9,593.25,368.28,591.16Zm-11.23,3.12c1-.59,1.86,0,1.86,1.4a4.42,4.42,0,0,1-1.86,3.54c-1,.59-1.85,0-1.85-1.4A4.45,4.45,0,0,1,357.05,594.28ZM346,606.78c.73-1.39,1.9-2.06,2.62-1.52s.73,2.11,0,3.5-1.89,2.06-2.62,1.51S345.27,608.16,346,606.78Zm-2.73,18.79c-1,.59-1.85,0-1.85-1.4a4.43,4.43,0,0,1,1.85-3.54c1-.59,1.86,0,1.86,1.4A4.43,4.43,0,0,1,343.26,625.57Zm5.35,9.19c-.72,1.38-1.89,2.06-2.62,1.51s-.72-2.11,0-3.49,1.9-2.06,2.62-1.52S349.34,633.38,348.61,634.76Zm8.44,1.23c-1,.59-1.85,0-1.85-1.4a4.45,4.45,0,0,1,1.85-3.54c1-.59,1.86,0,1.86,1.4A4.42,4.42,0,0,1,357.05,636Zm.51-6.84a8.89,8.89,0,0,1-4.42,1.32,6.06,6.06,0,0,1-3-.8c-2.48-1.44-3.91-4.66-3.91-8.84,0-7.57,4.65-16.41,10.36-19.7,2.69-1.56,5.34-1.74,7.45-.52,2.49,1.43,3.92,4.65,3.92,8.84C367.92,617,363.27,625.85,357.56,629.15Zm10.55-5.65c-.72,1.38-1.89,2.06-2.62,1.51s-.72-2.11,0-3.49,1.9-2.06,2.62-1.51S368.84,622.12,368.11,623.5Zm0-26c-.72,1.38-1.89,2.06-2.62,1.51s-.72-2.11,0-3.49,1.9-2.06,2.62-1.51S368.84,596.12,368.11,597.5Zm2.73,7.21c1-.59,1.85,0,1.85,1.4a4.45,4.45,0,0,1-1.85,3.54c-1,.59-1.85,0-1.85-1.4A4.43,4.43,0,0,1,370.84,604.71Z"/><polygon class="cls-5" points="614.95 437.46 606.78 432.71 432.53 533.31 440.69 538.02 614.95 437.46"/><path class="cls-5" d="M306.61,621.65l-3.43-2a13.07,13.07,0,0,0-4.77-.87,20.74,20.74,0,0,0-10.22,3.08c-8.86,5.12-17.11,15.78-22.07,28.52a62.52,62.52,0,0,0-4.49,22.32c0,10.11,3.22,17.77,8.85,21,4.59,2.65,10.52,2.14,16.7-1.43,14.65-8.46,26.56-31.26,26.56-50.84,0-7-1.53-12.87-4.43-16.92A14.85,14.85,0,0,0,306.61,621.65Zm-18.42,60.2a15.52,15.52,0,0,1-7.64,2.28,10.09,10.09,0,0,1-5.1-1.34c-4.26-2.46-6.71-8.06-6.71-15.37,0-13.51,8.27-29.27,18.44-35.14,4.63-2.67,9.16-3,12.74-.94,4.26,2.46,6.7,8.06,6.7,15.37C306.62,660.22,298.35,676,288.19,681.85Z"/><path class="cls-3" d="M356.55,578.17a22.43,22.43,0,0,1,11.62-3.34l-.75-.43h-.11a1,1,0,0,1-.68-.45l-2.28-1.29-30.61,17.68h-.05a.92.92,0,0,1-.91,0h0l-14.91-8.62V611.2a14.38,14.38,0,0,1-3.53,9.43c-.15.17-.42.51-.75.92-.85,1.05-1.57,1.92-2.12,2.52a29.29,29.29,0,0,1,4.18,13.66L333.23,648c-2.74-4.3-4.25-10.22-4.25-17.22C329,610.54,341.34,587,356.55,578.17Z"/><path class="cls-2" d="M366.83,571.23l-.44.26.36.21C366.77,571.54,366.8,571.39,366.83,571.23Z"/><path class="cls-2" d="M363,602.36a4,4,0,0,0-2-.52,7,7,0,0,0-3.41,1c-5.16,3-9.35,11-9.35,18,0,3.44,1.06,6,2.9,7.09,1.47.84,3.4.65,5.44-.52,5.15-3,9.34-11,9.34-17.95C365.89,606,364.84,603.42,363,602.36Z"/><path class="cls-2" d="M293.63,644.29a4,4,0,0,0-2-.53,7,7,0,0,0-3.41,1c-5.15,3-9.35,11-9.35,17.94,0,3.45,1.06,6,2.91,7.1,1.46.84,3.39.66,5.43-.52,5.15-3,9.35-11,9.35-18C296.53,647.94,295.47,645.35,293.63,644.29Z"/><path class="cls-6" d="M73.44,480.34v9.93l1.89-7.1a1,1,0,0,1-.14-.49v-4.4a7.59,7.59,0,0,0-3.07-6l-9.07-5.24a1.71,1.71,0,0,0-1.08-.27l-1.39.76,8.77,5.06C71.64,474,73.44,477.34,73.44,480.34Z"/><path class="cls-7" d="M300.62,610.29a16.14,16.14,0,0,0-9.86-.31l13.11,7.71a15.36,15.36,0,0,1,6.33,4.7c.16-.17.3-.34.47-.54C308.64,616,305.17,612,300.62,610.29Z"/><path class="cls-8" d="M181.9,630.08l-13.86-8c-.15-.09-.53-.27-.77-.14s-.45.54-.45,1.34v37.15a5.66,5.66,0,0,0,2.24,4.37l13.85,8c.16.09.54.29.78.15s.45-.54.45-1.34V634.45A5.66,5.66,0,0,0,181.9,630.08Zm-2.71,36.7a3.42,3.42,0,0,1-1.76.47,5,5,0,0,1-2.46-.72c-3-1.75-5.4-6.25-5.4-10.24,0-2.27.8-4,2.2-4.84a4.13,4.13,0,0,1,4.21.26c3,1.75,5.41,6.25,5.41,10.24C181.39,664.21,180.59,666,179.19,666.78Zm1.27-17.3a4.44,4.44,0,0,1-2.26.6,6.5,6.5,0,0,1-3.23-1c-4.12-2.37-7.34-8.5-7.34-13.94,0-3,1-5.36,2.87-6.41a5.33,5.33,0,0,1,5.48.36c4.12,2.37,7.35,8.5,7.35,13.94C183.33,646.1,182.28,648.43,180.46,649.48Z"/><path class="cls-4" d="M191,616.45s-.06,0-.09,0l-127.6-73.8q-.26,3.07-.34,6.16L190.6,622.61C190.68,620.56,190.82,618.5,191,616.45Z"/><path class="cls-1" d="M312.76,619.31a12.34,12.34,0,0,0,3-8.11V450.41c0-2.37-.68-4.15-1.83-5.05l-.78-.46a4.22,4.22,0,0,0-3.55.58l-39.69,23.35V622.4a50.05,50.05,0,0,1,12.95-11.29,31.13,31.13,0,0,1,5.11-2.39h0a19.08,19.08,0,0,1,13.31-.32c4.82,1.82,8.53,5.85,10.81,11.67Z"/><polygon class="cls-2" points="317.81 579.39 332.22 587.71 332.22 567.69 317.81 559.37 317.81 579.39"/><polygon class="cls-2" points="332.22 388.34 182.38 301.83 182.38 320.23 332.22 406.74 332.22 388.34"/><polygon class="cls-4" points="155.76 644.37 94.31 608.83 94.78 615.81 154.74 650.36 155.76 644.37"/><path class="cls-8" d="M184.39,368.17a1.2,1.2,0,0,1,.39.13l129.37,74.83a4.5,4.5,0,0,1,.51.2c.13.08.23.21.36.3l.24.14a1,1,0,0,1,.34.35,8.57,8.57,0,0,1,2.22,6.29V557l14.4,8.32V409.07L182.38,322.56v45.25a5,5,0,0,1,1.74.21A.89.89,0,0,1,184.39,368.17Z"/><path class="cls-2" d="M71.42,497.86V480.34c0-2.27-1.41-5-3.08-6l-9.06-5.23a1.48,1.48,0,0,0-1.23-.21l-.15.08a2.4,2.4,0,0,0-.68,2v23a7.61,7.61,0,0,0,3.07,6l9.1,5.47Z"/><path class="cls-2" d="M76.13,574a4.61,4.61,0,0,0-2.21-.69,2.55,2.55,0,0,0-1.26.33c-1.18.68-1.86,2.38-1.86,4.66,0,4.71,2.85,10.18,6.34,12.19a3.51,3.51,0,0,0,3.47.37c1.18-.69,1.86-2.38,1.86-4.66C82.47,581.49,79.62,576,76.13,574Z"/><path class="cls-4" d="M100.43,625.38,149.86,654a3.08,3.08,0,0,0,2.89.12,3,3,0,0,0,1.56-1.65L95.15,618.36A11.26,11.26,0,0,0,100.43,625.38Z"/><path class="cls-2" d="M76.13,596.59a3,3,0,0,0-1.44-.46,1.46,1.46,0,0,0-.75.2c-.75.43-1.19,1.58-1.19,3.08,0,3.23,2,7.11,4.39,8.49a2.25,2.25,0,0,0,2.19.25c.75-.42,1.19-1.58,1.19-3.08C80.52,601.85,78.51,598,76.13,596.59Z"/><path class="cls-2" d="M175,630.88a4.61,4.61,0,0,0-2.21-.69,2.39,2.39,0,0,0-1.25.33c-1.18.68-1.86,2.38-1.86,4.66,0,4.7,2.84,10.18,6.33,12.19a3.51,3.51,0,0,0,3.47.36c1.18-.68,1.86-2.38,1.86-4.66C181.31,638.37,178.47,632.9,175,630.88Z"/><path class="cls-2" d="M175,653.47a2.92,2.92,0,0,0-1.43-.46,1.49,1.49,0,0,0-.76.2c-.74.42-1.19,1.58-1.19,3.08,0,3.22,2,7.11,4.39,8.48a2.24,2.24,0,0,0,2.2.26c.74-.43,1.19-1.58,1.19-3.08C179.37,658.72,177.35,654.84,175,653.47Z"/><path class="cls-8" d="M83.06,573.21l-13.86-8a1.24,1.24,0,0,0-.57-.19.46.46,0,0,0-.21,0c-.2.12-.44.54-.44,1.34v37.15a5.65,5.65,0,0,0,2.23,4.37l13.86,8c.15.09.53.28.78.14s.44-.54.44-1.34V577.57A5.61,5.61,0,0,0,83.06,573.21Zm-2.71,36.7a3.52,3.52,0,0,1-1.77.46,4.94,4.94,0,0,1-2.45-.72c-3-1.75-5.4-6.25-5.4-10.24,0-2.26.8-4,2.19-4.83a4.12,4.12,0,0,1,4.22.26c3,1.74,5.4,6.24,5.4,10.23C82.54,607.34,81.74,609.1,80.35,609.91Zm1.27-17.3a4.46,4.46,0,0,1-2.26.59,6.55,6.55,0,0,1-3.23-1c-4.12-2.38-7.35-8.51-7.35-14,0-3,1-5.36,2.87-6.41a5.38,5.38,0,0,1,5.49.36c4.12,2.38,7.35,8.51,7.35,14C84.49,589.22,83.44,591.55,81.62,592.61Z"/><path class="cls-4" d="M161.89,608.34,92.23,568.05c.06,1.81.17,4.77.29,8.05l68.15,39.42Z"/><polygon class="cls-4" points="157.31 635.28 93.63 598.45 94.15 606.4 156.12 642.25 157.31 635.28"/><path class="cls-4" d="M158.85,626.2,93,588.11c.07,1.69.14,3,.19,3.72l.27,4.19,64.21,37.14Z"/><path class="cls-4" d="M160.3,617.64,92.61,578.49c.1,2.5.2,5,.29,7.23l66.31,38.35Z"/><polygon class="cls-2" points="347.73 514.32 334.25 522.11 334.25 545.48 347.73 537.69 347.73 514.32"/><polygon class="cls-2" points="708.48 227.22 708.48 250.59 742.78 230.78 742.78 207.42 708.48 227.22"/><path class="cls-4" d="M615.62,439.41,441.7,539.77v6.71a23.41,23.41,0,0,1,2.85,5.68l171.07-98.72Z"/><path class="cls-2" d="M717.23,386.83c-9.61,5.54-17.42,20.52-17.42,33.38,0,6.57,2.07,11.53,5.69,13.62,2.92,1.69,6.74,1.36,10.72-.95,9.61-5.54,17.42-20.52,17.42-33.38,0-6.57-2.07-11.53-5.69-13.62a8.08,8.08,0,0,0-4.1-1.06A13.36,13.36,0,0,0,717.23,386.83Zm-.51,2.17c1-.59,1.86,0,1.86,1.4a4.43,4.43,0,0,1-1.86,3.54c-1,.59-1.85,0-1.85-1.4A4.45,4.45,0,0,1,716.72,389Zm-11.06,12.49c.73-1.38,1.9-2.06,2.62-1.51s.73,2.11,0,3.49-1.89,2.06-2.62,1.52S704.94,402.88,705.66,401.49Zm-2.73,18.8c-1,.59-1.85,0-1.85-1.4a4.43,4.43,0,0,1,1.85-3.54c1-.6,1.86,0,1.86,1.4A4.43,4.43,0,0,1,702.93,420.29Zm5.35,9.18c-.72,1.39-1.89,2.06-2.62,1.52s-.72-2.11,0-3.5,1.9-2.06,2.62-1.51S709,428.09,708.28,429.47Zm8.44,1.24c-1,.59-1.85,0-1.85-1.4a4.45,4.45,0,0,1,1.85-3.54c1-.59,1.86,0,1.86,1.4A4.43,4.43,0,0,1,716.72,430.71Zm11.06-12.49c-.72,1.38-1.89,2.06-2.62,1.51s-.72-2.11,0-3.49,1.9-2.06,2.62-1.52S728.51,416.83,727.78,418.22Zm2.73-18.8c1-.59,1.86,0,1.86,1.4a4.42,4.42,0,0,1-1.86,3.54c-1,.59-1.85,0-1.85-1.4A4.45,4.45,0,0,1,730.51,399.42Zm-5.35-9.18c.73-1.39,1.9-2.06,2.62-1.52s.73,2.11,0,3.5-1.89,2.06-2.62,1.51S724.44,391.62,725.16,390.24Zm2.43,13.93c0,7.56-4.65,16.4-10.36,19.7a9,9,0,0,1-4.42,1.31,6,6,0,0,1-3-.79c-2.49-1.44-3.91-4.66-3.91-8.85,0-7.56,4.65-16.4,10.36-19.7,2.7-1.55,5.34-1.74,7.46-.52C726.16,396.76,727.59,400,727.59,404.17Z"/><path class="cls-2" d="M661.34,432.19a4,4,0,0,0-2-.52,7,7,0,0,0-3.41,1c-5.16,3-9.35,11-9.35,18,0,3.44,1.06,6,2.9,7.09,1.46.85,3.4.66,5.44-.52,5.15-3,9.34-11,9.34-18C664.24,435.84,663.19,433.25,661.34,432.19Z"/><path class="cls-5" d="M435.58,543.38a12.71,12.71,0,0,0-6.45-1.67,20.79,20.79,0,0,0-10.25,3.1c-14.64,8.46-26.56,31.26-26.56,50.84,0,10.11,3.23,17.77,8.85,21,4.59,2.64,10.52,2.14,16.7-1.43,14.65-8.46,26.56-31.27,26.56-50.84C444.43,554.29,441.21,546.63,435.58,543.38Zm-16.7,61.42a15.43,15.43,0,0,1-7.63,2.29,10.13,10.13,0,0,1-5.11-1.34c-4.26-2.46-6.71-8.06-6.71-15.37,0-13.51,8.28-29.27,18.44-35.14,4.64-2.68,9.16-3,12.74-.94,4.26,2.46,6.71,8.06,6.71,15.37C437.32,583.17,429.05,598.93,418.88,604.8Z"/><path class="cls-2" d="M666.63,421a8.12,8.12,0,0,0-4.11-1.06,13.35,13.35,0,0,0-6.61,2c-9.61,5.55-17.43,20.52-17.43,33.38,0,6.57,2.08,11.54,5.69,13.62,2.93,1.69,6.74,1.36,10.73-.94,9.6-5.55,17.42-20.52,17.42-33.38C672.32,428.05,670.24,423.08,666.63,421Zm-11.23,3.12c1-.59,1.85,0,1.85,1.4a4.43,4.43,0,0,1-1.85,3.54c-1,.59-1.85,0-1.85-1.4A4.45,4.45,0,0,1,655.4,424.11Zm-11.06,12.5c.72-1.38,1.9-2.06,2.62-1.51s.72,2.11,0,3.49-1.9,2.06-2.62,1.51S643.62,438,644.34,436.61Zm-2.73,18.79c-1,.59-1.85,0-1.85-1.4a4.45,4.45,0,0,1,1.85-3.54c1-.59,1.86,0,1.86,1.4A4.43,4.43,0,0,1,641.61,455.4Zm5.35,9.19c-.72,1.38-1.9,2.06-2.62,1.51s-.72-2.11,0-3.49,1.9-2.06,2.62-1.51S647.68,463.21,647,464.59Zm8.44,1.23c-1,.6-1.85,0-1.85-1.4a4.45,4.45,0,0,1,1.85-3.54c1-.59,1.85,0,1.85,1.4A4.43,4.43,0,0,1,655.4,465.82Zm.51-6.84a8.92,8.92,0,0,1-4.43,1.32,6,6,0,0,1-3-.8c-2.49-1.43-3.91-4.66-3.91-8.84,0-7.57,4.65-16.41,10.36-19.7,2.69-1.56,5.33-1.74,7.45-.52,2.49,1.43,3.91,4.66,3.91,8.84C666.26,446.85,661.62,455.68,655.91,459Zm10.55-5.65c-.72,1.38-1.89,2.06-2.62,1.51s-.72-2.11,0-3.49,1.9-2.06,2.62-1.51S667.18,452,666.46,453.33Zm0-26c-.72,1.38-1.89,2.06-2.62,1.51s-.72-2.11,0-3.49,1.9-2.06,2.62-1.51S667.18,426,666.46,427.33Zm2.73,7.21c1-.59,1.85,0,1.85,1.4a4.45,4.45,0,0,1-1.85,3.54c-1,.59-1.85,0-1.85-1.4A4.43,4.43,0,0,1,669.19,434.54Z"/><path class="cls-5" d="M717.23,374.64c-14.65,8.46-26.56,31.26-26.56,50.84,0,10.11,3.22,17.77,8.85,21,4.59,2.65,10.52,2.14,16.7-1.43,14.65-8.46,26.56-31.26,26.56-50.84,0-10.11-3.23-17.77-8.85-21a12.74,12.74,0,0,0-6.45-1.67A20.79,20.79,0,0,0,717.23,374.64Zm18.43,24.86c0,13.51-8.27,29.27-18.43,35.14a15.41,15.41,0,0,1-7.63,2.28,10,10,0,0,1-5.11-1.34c-4.26-2.46-6.71-8.06-6.71-15.37,0-13.51,8.28-29.27,18.44-35.14,4.64-2.67,9.16-3,12.74-.94C733.22,386.59,735.66,392.19,735.66,399.5Z"/><path class="cls-5" d="M672.61,408.33a12.75,12.75,0,0,0-6.45-1.68,20.79,20.79,0,0,0-10.25,3.1c-14.65,8.46-26.56,31.27-26.56,50.85,0,10.1,3.22,17.76,8.85,21,4.58,2.65,10.52,2.14,16.7-1.43,14.64-8.45,26.56-31.26,26.56-50.84C681.46,419.23,678.23,411.57,672.61,408.33Zm-16.7,61.42a15.41,15.41,0,0,1-7.64,2.28,10.15,10.15,0,0,1-5.11-1.33c-4.25-2.46-6.7-8.07-6.7-15.38,0-13.5,8.27-29.26,18.44-35.13,4.63-2.68,9.15-3,12.74-.95,4.26,2.46,6.7,8.07,6.7,15.38C674.34,448.12,666.07,463.88,655.91,469.75Z"/><path class="cls-2" d="M720.64,396.55a7,7,0,0,0-3.41,1c-5.15,3-9.35,11-9.35,18,0,3.45,1.06,6,2.9,7.09,1.47.85,3.4.67,5.44-.52,5.15-3,9.34-11,9.34-17.94,0-3.45-1-6-2.89-7.1A4.11,4.11,0,0,0,720.64,396.55Z"/><polygon class="cls-8" points="347.73 401.29 334.25 409.07 334.25 519.77 347.73 511.99 347.73 401.29"/><polygon class="cls-8" points="708.48 193.03 708.48 224.89 742.78 205.08 742.78 173.22 708.48 193.03"/><path class="cls-8" d="M708.47,252.93v96.39l34.31-19.81V233.12Zm27,74a1,1,0,0,1-.5.88L719,337a1,1,0,0,1-.5.13,1,1,0,0,1-1-1V324.47a1,1,0,0,1,.51-.87l15.89-9.18a1,1,0,0,1,1,0,1,1,0,0,1,.5.88Z"/><polygon class="cls-8" points="347.73 540.03 334.25 547.81 334.25 565.36 347.73 557.58 347.73 540.03"/><path class="cls-3" d="M654.9,408a22.43,22.43,0,0,1,11.61-3.34l-1.2-.68h0l-4.39-2.5-52.1,30.07,8.34,4.85a1,1,0,0,1,.46,1.11c0,.05,0,.1,0,.16V454a1,1,0,0,1-.51.87l-9.54,5.51a16,16,0,0,0,5.21,6.49l18.78,10.92c-2.75-4.31-4.27-10.22-4.27-17.22C627.32,440.37,639.69,416.78,654.9,408Z"/><path class="cls-2" d="M429.6,556.05a8.08,8.08,0,0,0-4.1-1.06,13.44,13.44,0,0,0-6.62,2c-9.61,5.55-17.42,20.53-17.42,33.39,0,6.56,2.07,11.53,5.69,13.62,2.93,1.69,6.74,1.35,10.72-1,9.61-5.54,17.42-20.52,17.42-33.38C435.29,563.1,433.22,558.14,429.6,556.05Zm-11.23,3.12c1-.59,1.86,0,1.86,1.4a4.43,4.43,0,0,1-1.86,3.54c-1,.59-1.85,0-1.85-1.4A4.43,4.43,0,0,1,418.37,559.17Zm-11.05,12.49c.72-1.38,1.89-2.06,2.62-1.51s.72,2.11,0,3.49-1.9,2.06-2.62,1.52S406.59,573,407.32,571.66Zm-2.73,18.79c-1,.6-1.86,0-1.86-1.4a4.43,4.43,0,0,1,1.86-3.54c1-.59,1.85,0,1.85,1.4A4.43,4.43,0,0,1,404.59,590.45Zm5.35,9.19c-.73,1.39-1.9,2.06-2.62,1.52s-.73-2.11,0-3.5,1.89-2.06,2.62-1.51S410.66,598.26,409.94,599.64Zm8.43,1.24c-1,.59-1.85,0-1.85-1.4a4.43,4.43,0,0,1,1.85-3.54c1-.59,1.86,0,1.86,1.4A4.43,4.43,0,0,1,418.37,600.88Zm.51-6.85a8.89,8.89,0,0,1-4.42,1.32,6,6,0,0,1-3-.8c-2.48-1.43-3.91-4.65-3.91-8.84,0-7.56,4.65-16.4,10.36-19.7,2.69-1.55,5.34-1.74,7.46-.52,2.48,1.44,3.91,4.66,3.91,8.85C429.24,581.9,424.59,590.74,418.88,594Zm10.56-5.65c-.73,1.39-1.9,2.06-2.62,1.52s-.73-2.11,0-3.5,1.89-2.06,2.62-1.51S430.16,587,429.44,588.38Zm0-26c-.73,1.39-1.9,2.06-2.62,1.52s-.73-2.11,0-3.5,1.89-2.06,2.62-1.51S430.16,561,429.44,562.38Zm2.72,7.21c1-.59,1.86,0,1.86,1.4a4.42,4.42,0,0,1-1.86,3.54c-1,.59-1.85,0-1.85-1.4A4.45,4.45,0,0,1,432.16,569.59Z"/><polygon class="cls-2" points="733.41 317.05 719.54 325.06 719.54 334.39 733.41 326.38 733.41 317.05"/><path class="cls-2" d="M334.25,587.71l33.42-19.29s0,0,0,0L742.78,351.86v-20L334.25,567.69Z"/><path class="cls-3" d="M722,366.19l-54.1,31.23a1.19,1.19,0,0,1,0,.42c-.39,1.6-.68,3.18-.94,4.75l6.77,3.85a1,1,0,0,1,.43.52c5.92,3.78,9.32,11.86,9.32,22.38a54.17,54.17,0,0,1-.55,7.56l10,5.8c-2.75-4.3-4.27-10.22-4.27-17.22,0-20.22,12.37-43.81,27.58-52.59a22.43,22.43,0,0,1,11.62-3.34l-5.69-3.23A1.79,1.79,0,0,1,722,366.19Z"/><path class="cls-5" d="M182.06,585.88c1.27.71,7.2,5.45,7.73,4.18,1.4-3.42,4.18-13.34,5.9-21l-86.43-49.77c-8.15-4.71-20.61-5.23-27.67-1.15l-8.67,5s12.62,7.07,13.43,7.55C117.19,549,154.46,570.38,182.06,585.88Z"/><polygon class="cls-4" points="347.42 400.71 347.42 558.36 709.03 350.22 708.83 191.86 347.42 400.71"/><path class="cls-9" d="M709.33,309.07l-86.2-49.69c-.64.39-1.28.77-1.9,1.17l-.06,0,87.15,50.23a1,1,0,0,0,.5.13,1,1,0,0,0,.88-.5A1,1,0,0,0,709.33,309.07Z"/><path class="cls-1" d="M572.89,335.66v53.78l51.56-30V305.7L604.93,317v10.85a1,1,0,0,1-.51.87l-9.78,5.65a1,1,0,0,1-1,0,1,1,0,0,1-.51-.87V323.9Zm23.84,12.85a1,1,0,0,1,1.52.88v16.38a1,1,0,0,1-.51.88l-19.25,11.12a1,1,0,0,1-.51.13,1,1,0,0,1-.5-.13,1,1,0,0,1-.51-.88V360.51a1,1,0,0,1,.51-.88Z"/><polygon class="cls-2" points="596.23 351.14 579 361.09 579 375.14 596.23 365.19 596.23 351.14"/><path class="cls-6" d="M626,303.12a1.18,1.18,0,0,1,.25.25l.08.11a1,1,0,0,1,.12.46h0v50l3.89,2.24V302.43L547.51,254.6v3.17L626,303.06S626,303.11,626,303.12Z"/><polygon class="cls-4" points="494.23 339.28 503.04 344.36 503.04 324.73 494.23 319.64 494.23 339.28"/><polygon class="cls-2" points="592.26 322.06 509.41 274.23 489.03 286.07 571.88 333.91 592.26 322.06"/><path class="cls-2" d="M623.44,303.94l-77.17-44.55a1,1,0,0,1-.52-.3l-5.16-3-19.11,11.11,82.85,47.83Z"/><polygon class="cls-10" points="602.32 316.22 519.46 268.39 511.43 273.06 594.28 320.89 602.32 316.22"/><polygon class="cls-5" points="595.14 322.73 595.14 331.79 602.91 327.31 602.91 318.22 595.14 322.73"/><path class="cls-1" d="M632.38,302.43v53.78l51.55-30V272.46l-19.51,11.35v10.84a1,1,0,0,1-.51.88l-9.78,5.65a1,1,0,0,1-1.52-.88v-9.63Zm23.84,12.85a1,1,0,0,1,1.52.87v16.39a1,1,0,0,1-.51.87L638,344.53a1,1,0,0,1-.5.14,1,1,0,0,1-.51-.14,1,1,0,0,1-.5-.87V327.27a1,1,0,0,1,.5-.87Z"/><polygon class="cls-5" points="654.63 289.49 654.63 298.55 662.39 294.07 662.39 284.98 654.63 289.49"/><polygon class="cls-2" points="651.75 288.83 568.89 241 548.52 252.84 631.37 300.68 651.75 288.83"/><polygon class="cls-2" points="655.71 317.91 638.48 327.85 638.48 341.9 655.71 331.95 655.71 317.91"/><polygon class="cls-10" points="661.8 282.99 578.95 235.15 570.91 239.83 653.76 287.66 661.8 282.99"/><polygon class="cls-2" points="682.92 270.71 600.07 222.88 580.97 233.98 663.82 281.82 682.92 270.71"/><path class="cls-6" d="M478.33,361l92.44,53.37v-16l-92.44-53.38Zm47.81,15.38a1,1,0,0,1,.51-.88,1,1,0,0,1,1,0l33.6,19.4a1,1,0,0,1,.51.88v9.46a1,1,0,0,1-1,1,1,1,0,0,1-.51-.14l-33.6-19.4a1,1,0,0,1-.51-.87ZM487.33,354a1,1,0,0,1,.51-.87,1,1,0,0,1,1,0l33.6,19.4a1,1,0,0,1,.5.87v9.46a1,1,0,0,1-.5.87.94.94,0,0,1-.51.14.9.9,0,0,1-.5-.14l-33.6-19.39a1,1,0,0,1-.51-.88Z"/><path class="cls-2" d="M686,324.45v2.38s0,.08,0,.12a1.18,1.18,0,0,1,0,.2.89.89,0,0,1-.08.17l-.11.16a1.07,1.07,0,0,1-.16.14s0,.06-.09.08l-53.57,31.14h0a.88.88,0,0,1-.92,0h0l-4.39-2.54v3.76a3,3,0,0,0-.07.33,1.3,1.3,0,0,1-.08.17.76.76,0,0,1-.11.16.93.93,0,0,1-.15.13l-.1.09-53.57,31.13,0,0a1,1,0,0,1-.46.12,1,1,0,0,1-.45-.12l0,0-84.87-49a.7.7,0,0,1-.1-.08.66.66,0,0,1-.15-.14l-.11-.15a1,1,0,0,1-.08-.18,1.18,1.18,0,0,1,0-.2.53.53,0,0,1,0-.12v-2.74l-6.66,3.85,92.79,53.58,119.64-69.08Z"/><path class="cls-1" d="M572.79,414.8l6.84-3.94V400.08a1,1,0,0,1,.51-.88l96-55.6a.57.57,0,0,1,.13-.08l9.45-5.48a1,1,0,0,1,1.52.88v9.62l5.55-3V329.56l-120,69.28Z"/><polygon class="cls-7" points="520.93 374 489.35 355.76 489.35 362.89 520.93 381.12 520.93 374"/><polygon class="cls-6" points="685.21 348.43 685.21 340.67 678.73 344.43 685.21 348.43"/><path class="cls-6" d="M570.87,335.66,488,287.83v53.79l82.85,47.83Zm-65.81,10.45a1,1,0,0,1-.51.88,1,1,0,0,1-.5.13,1,1,0,0,1-.51-.13l-10.83-6.26a1,1,0,0,1-.5-.87v-22a1,1,0,0,1,1.51-.88l10.83,6.26a1,1,0,0,1,.51.87Zm17.53,10a1,1,0,0,1-1,1,1,1,0,0,1-.5-.13l-10.83-6.26a1,1,0,0,1-.51-.87v-22a1,1,0,0,1,1.52-.88l10.83,6.26a1,1,0,0,1,.5.87Z"/><polygon class="cls-7" points="559.75 396.39 528.17 378.16 528.17 385.28 559.75 403.52 559.75 396.39"/><polygon class="cls-4" points="511.76 349.27 520.57 354.36 520.57 334.72 511.76 329.64 511.76 349.27"/><path class="cls-9" d="M694.61,327.24a1,1,0,0,0-.25-.25s0,0-.06-.06L686,322.11v-51.4h0a1,1,0,0,0-.12-.45l-.07-.11a1,1,0,0,0-.25-.25.34.34,0,0,1-.06-.06l-84.87-49a1,1,0,0,0-1,0L546,252l-.06.06a1,1,0,0,0-.25.25l-.07.11a1,1,0,0,0-.12.45v3.76l-4.4-2.54a1,1,0,0,0-1,0L486.51,285.2s0,.05-.06.06a1.18,1.18,0,0,0-.25.25l-.08.11a1,1,0,0,0-.12.46v51.05l-9.19,5.31s0,0-.06.06a1,1,0,0,0-.25.25.41.41,0,0,0-.07.11.87.87,0,0,0-.13.45v18.3a.5.5,0,0,0,0,.13,1.42,1.42,0,0,0,0,.2.56.56,0,0,0,.09.17.86.86,0,0,0,.1.16,1.07,1.07,0,0,0,.16.14s0,.06.09.08l94.08,54.32a1,1,0,0,0,.89.56,1.42,1.42,0,0,0,.2,0s.1,0,.15,0a1.06,1.06,0,0,0,.51-.14l8.51-4.91.09-.08.16-.14a.86.86,0,0,0,.1-.16.7.7,0,0,0,.09-.17,1.42,1.42,0,0,0,0-.2c0-.05,0-.08,0-.13V400.66l95.09-55.08,9,5.52,0,0a1.11,1.11,0,0,0,.48.13,1,1,0,0,0,.44-.11h0l7.58-4.13a1,1,0,0,0,.53-.89v-18.3a.91.91,0,0,0-.13-.46Zm-41.5-26.06a1.07,1.07,0,0,0,1,0l9.78-5.65a1,1,0,0,0,.51-.88V283.81l19.51-11.35v53.79l-51.55,30V302.43l20.23-11.76v9.63A1,1,0,0,0,653.11,301.18Zm1.52-2.63v-9.06l7.76-4.51v9.09Zm-54.56-75.67,82.86,47.83-19.11,11.11L581,234ZM579,235.15,661.8,283l-8,4.67-82.85-47.83ZM568.89,241l82.86,47.83-20.38,11.85-82.85-47.84Zm-21.38,13.6,82.85,47.83v53.78L626.47,354v-50h0a1,1,0,0,0-.12-.46l-.08-.11a1.18,1.18,0,0,0-.25-.25l-.06-.06-78.45-45.29Zm46.12,79.81a1,1,0,0,0,1,0l9.78-5.65a1,1,0,0,0,.51-.87V317l19.52-11.34v53.78l-51.56,30V335.66l20.23-11.76v9.64A1,1,0,0,0,593.63,334.41Zm1.52-2.62v-9.06l7.76-4.51v9.09Zm-54.56-75.68,5.16,3a1,1,0,0,0,.52.3l77.17,44.55-19.11,11.11-82.85-47.83Zm-21.13,12.28,82.86,47.83-8,4.67-82.86-47.83Zm-10.05,5.84,82.85,47.84-20.38,11.84L489,286.08ZM488,287.83l82.85,47.83v53.79L488,341.62ZM570.77,414.4,478.33,361v-16l92.44,53.38Zm1.36-17.51-92.79-53.58,6.66-3.85v2.74a.53.53,0,0,0,0,.12,1.18,1.18,0,0,0,0,.2,1,1,0,0,0,.08.18l.11.15a.66.66,0,0,0,.15.14.7.7,0,0,0,.1.08l84.87,49,0,0a1,1,0,0,0,.45.12,1,1,0,0,0,.46-.12l0,0L626,360.94l.1-.09a.93.93,0,0,0,.15-.13.76.76,0,0,0,.11-.16,1.3,1.3,0,0,0,.08-.17,3,3,0,0,1,.07-.33V356.3l4.39,2.54h0a.88.88,0,0,0,.92,0h0l53.57-31.14s.06-.06.09-.08a1.07,1.07,0,0,0,.16-.14l.11-.16a.89.89,0,0,0,.08-.17,1.18,1.18,0,0,0,0-.2s0-.08,0-.12v-2.38l5.82,3.36Zm113.08-48.46-6.48-4,6.48-3.76Zm7.57-2.92-5.55,3v-9.62a1,1,0,0,0-1.52-.88l-9.45,5.48a.57.57,0,0,0-.13.08l-96,55.6a1,1,0,0,0-.51.88v10.78l-6.84,3.94v-16l120-69.28Z"/><path class="cls-9" d="M577,360.51v16.38a1,1,0,0,0,.51.88,1,1,0,0,0,.5.13,1,1,0,0,0,.51-.13l19.25-11.12a1,1,0,0,0,.51-.88V349.39a1,1,0,0,0-1.52-.88l-19.25,11.12A1,1,0,0,0,577,360.51Zm2,.58,17.24-9.95v14.05L579,375.14Z"/><path class="cls-9" d="M504.55,323.27,493.72,317a1,1,0,0,0-1.51.88v22a1,1,0,0,0,.5.87L503.54,347a1,1,0,0,0,.51.13,1,1,0,0,0,.5-.13,1,1,0,0,0,.51-.88v-22A1,1,0,0,0,504.55,323.27ZM503,344.36l-8.81-5.08V319.64l8.81,5.09Z"/><path class="cls-9" d="M522.09,333.27,511.26,327a1,1,0,0,0-1.52.88v22a1,1,0,0,0,.51.87L521.08,357a1,1,0,0,0,.5.13,1,1,0,0,0,1-1v-22A1,1,0,0,0,522.09,333.27Zm-1.52,21.09-8.81-5.08V329.64l8.81,5.08Z"/><path class="cls-9" d="M636.46,327.27v16.39a1,1,0,0,0,.5.87,1,1,0,0,0,.51.14,1,1,0,0,0,.5-.14l19.26-11.12a1,1,0,0,0,.51-.87V316.15a1,1,0,0,0-1.52-.87L637,326.4A1,1,0,0,0,636.46,327.27Zm2,.58,17.23-9.94v14l-17.23,10Z"/><path class="cls-9" d="M487.84,364.35l33.6,19.39a.9.9,0,0,0,.5.14.94.94,0,0,0,.51-.14,1,1,0,0,0,.5-.87v-9.46a1,1,0,0,0-.5-.87l-33.6-19.4a1,1,0,0,0-1,0,1,1,0,0,0-.51.87v9.46A1,1,0,0,0,487.84,364.35Zm1.51-8.59L520.93,374v7.13l-31.58-18.23Z"/><path class="cls-9" d="M526.65,386.74l33.6,19.4a1,1,0,0,0,.51.14,1,1,0,0,0,1-1v-9.46a1,1,0,0,0-.51-.88l-33.6-19.4a1,1,0,0,0-1,0,1,1,0,0,0-.51.88v9.46A1,1,0,0,0,526.65,386.74Zm1.52-8.58,31.58,18.23v7.13l-31.58-18.24Z"/><path class="cls-1" d="M442.47,411v53.79l51.55-30V381L474.5,392.38v10.85a1,1,0,0,1-.5.88l-9.79,5.65a1,1,0,0,1-.5.13,1,1,0,0,1-1-1v-9.63Zm23.84,12.86a1,1,0,0,1,1,0,1,1,0,0,1,.5.87v16.39a1,1,0,0,1-.5.87l-19.26,11.12a1,1,0,0,1-1,0,1,1,0,0,1-.51-.88V435.85a1,1,0,0,1,.51-.88Z"/><polygon class="cls-2" points="465.8 426.48 448.57 436.43 448.57 450.48 465.8 440.53 465.8 426.48"/><path class="cls-6" d="M495.59,378.47a1,1,0,0,1,.25.25.76.76,0,0,1,.08.11.94.94,0,0,1,.12.45h0v50l3.89,2.25V377.77l-82.85-47.83v3.17l78.45,45.3S495.57,378.45,495.59,378.47Z"/><polygon class="cls-4" points="363.8 414.62 372.61 419.71 372.61 400.07 363.8 394.98 363.8 414.62"/><polygon class="cls-2" points="461.83 397.41 378.98 349.57 358.6 361.42 441.45 409.25 461.83 397.41"/><path class="cls-2" d="M493,379.29l-77.17-44.56a1,1,0,0,1-.52-.3l-5.16-3-19.11,11.11,82.85,47.83Z"/><polygon class="cls-10" points="471.89 391.56 389.04 343.73 381 348.4 463.85 396.24 471.89 391.56"/><polygon class="cls-5" points="464.72 398.07 464.72 407.13 472.48 402.65 472.48 393.56 464.72 398.07"/><path class="cls-1" d="M502,377.77v53.78l51.55-30V347.81L534,359.15V370a1,1,0,0,1-.51.87l-9.78,5.65a1,1,0,0,1-.51.14,1,1,0,0,1-1-1V366Zm23.84,12.85a1,1,0,0,1,1.52.88v16.38a1,1,0,0,1-.51.88l-19.25,11.12a1,1,0,0,1-.51.13,1,1,0,0,1-.5-.13A1,1,0,0,1,506,419V402.61a1,1,0,0,1,.51-.87Z"/><polygon class="cls-5" points="524.2 364.84 524.2 373.89 531.96 369.42 531.96 360.33 524.2 364.84"/><polygon class="cls-2" points="521.32 364.18 438.47 316.34 418.09 328.19 500.94 376.02 521.32 364.18"/><polygon class="cls-2" points="525.29 393.25 508.05 403.2 508.05 417.25 525.29 407.3 525.29 393.25"/><polygon class="cls-10" points="531.37 358.33 448.52 310.5 440.48 315.17 523.33 363 531.37 358.33"/><polygon class="cls-2" points="552.5 346.05 469.64 298.22 450.54 309.32 533.39 357.16 552.5 346.05"/><path class="cls-6" d="M347.9,436.38l92.44,53.37v-16L347.9,420.41Zm47.82,15.37a1,1,0,0,1,1.51-.87l33.6,19.4a1,1,0,0,1,.51.87v9.46a1,1,0,0,1-.51.88,1,1,0,0,1-.5.13,1,1,0,0,1-.51-.13l-33.6-19.4a1,1,0,0,1-.5-.88ZM356.9,429.36a1,1,0,0,1,.51-.88,1,1,0,0,1,1,0l33.6,19.4a1,1,0,0,1,.5.88v9.45a1,1,0,0,1-1,1,1,1,0,0,1-.5-.13l-33.6-19.4a1,1,0,0,1-.51-.88Z"/><path class="cls-2" d="M555.53,399.79v2.38a.53.53,0,0,1,0,.12,1.55,1.55,0,0,1,0,.21,1.3,1.3,0,0,1-.08.17l-.11.16-.15.13-.1.09-53.57,31.13-.05,0a.94.94,0,0,1-.92,0l0,0-4.4-2.53v3.75c0,.05,0,.08,0,.13a.73.73,0,0,1,0,.2,1.3,1.3,0,0,1-.08.17.57.57,0,0,1-.11.16,1,1,0,0,1-.15.14l-.09.08L442,467.42h0a1,1,0,0,1-.45.12,1,1,0,0,1-.46-.12H441l-84.87-49s-.06-.06-.09-.08l-.16-.14-.11-.16a1.3,1.3,0,0,1-.08-.17,1.42,1.42,0,0,1,0-.2.61.61,0,0,1,0-.13v-2.73l-6.66,3.85,92.79,53.57,119.64-69.08Z"/><path class="cls-1" d="M442.37,490.15l6.83-3.95V475.42a1,1,0,0,1,.51-.87l96-55.61.13-.07,9.45-5.48a1,1,0,0,1,1,0,1,1,0,0,1,.51.87v9.62l5.56-3v-16l-120,69.28Z"/><polygon class="cls-7" points="390.5 449.34 358.92 431.11 358.92 438.23 390.5 456.46 390.5 449.34"/><polygon class="cls-6" points="554.78 423.77 554.78 416.02 548.3 419.77 554.78 423.77"/><path class="cls-6" d="M440.44,411,357.6,363.17V417l82.84,47.83Zm-65.81,10.45a1,1,0,0,1-.5.87,1.06,1.06,0,0,1-.51.14,1,1,0,0,1-.51-.14l-10.83-6.25a1,1,0,0,1-.5-.88v-22a1,1,0,0,1,.5-.87,1,1,0,0,1,1,0l10.83,6.25a1,1,0,0,1,.5.88Zm17.54,10a1,1,0,0,1-.51.87,1,1,0,0,1-1,0l-10.83-6.25a1,1,0,0,1-.51-.88v-22a1,1,0,0,1,.51-.87,1,1,0,0,1,1,0l10.83,6.25a1,1,0,0,1,.51.87Z"/><polygon class="cls-7" points="429.32 471.74 397.74 453.5 397.74 460.63 429.32 478.86 429.32 471.74"/><polygon class="cls-4" points="381.33 424.62 390.14 429.7 390.14 410.07 381.33 404.98 381.33 424.62"/><path class="cls-9" d="M564.18,402.59a1,1,0,0,0-.25-.25s0,0-.06-.06l-8.34-4.82V346.05h0a1,1,0,0,0-.12-.46l-.07-.11a.82.82,0,0,0-.25-.24s0-.05-.06-.07l-84.87-49a1,1,0,0,0-1,0l-53.58,31.13s0,.05-.06.06a1.18,1.18,0,0,0-.25.25l-.07.11a1,1,0,0,0-.12.46V332l-4.4-2.54a1,1,0,0,0-1,0l-53.57,31.14s0,0-.06.06a1,1,0,0,0-.25.25.41.41,0,0,0-.07.11.87.87,0,0,0-.13.45v51.05l-9.19,5.31a.34.34,0,0,1-.06.06,1,1,0,0,0-.25.25l-.07.11a1,1,0,0,0-.12.46V437s0,.08,0,.12a1.18,1.18,0,0,0,0,.2.61.61,0,0,0,.09.18,1.3,1.3,0,0,0,.1.15.7.7,0,0,0,.16.14.34.34,0,0,0,.09.08l94.08,54.32a1,1,0,0,0,.89.56,1.18,1.18,0,0,0,.2,0,.83.83,0,0,0,.15,0,.94.94,0,0,0,.51-.14l8.51-4.91s.06-.06.09-.08a1.07,1.07,0,0,0,.16-.14.86.86,0,0,0,.1-.16.56.56,0,0,0,.09-.17,1.18,1.18,0,0,0,0-.2.53.53,0,0,0,0-.12V476l95.08-55.09,9,5.52,0,0a1,1,0,0,0,.48.13.93.93,0,0,0,.44-.11h0l7.58-4.13a1,1,0,0,0,.53-.88V403.15a1,1,0,0,0-.12-.45A.44.44,0,0,0,564.18,402.59Zm-41.49-26.07a1,1,0,0,0,.5.14,1,1,0,0,0,.51-.14l9.78-5.65A1,1,0,0,0,534,370V359.15l19.51-11.34v53.78l-51.55,30V377.77L522.18,366v9.64A1,1,0,0,0,522.69,376.52Zm1.51-2.62v-9.06l7.76-4.51v9.09Zm-54.55-75.68,82.85,47.83-19.11,11.11-82.85-47.83ZM448.52,310.5l82.85,47.83-8,4.67-82.85-47.83Zm-10,5.84,82.85,47.83L500.94,376l-82.85-47.83Zm-21.39,13.6,82.85,47.83v53.79L496,429.31v-50h0a.94.94,0,0,0-.12-.45.76.76,0,0,0-.08-.11,1,1,0,0,0-.25-.25s0-.05-.06-.06l-78.45-45.3Zm46.12,79.82a1,1,0,0,0,.51.13,1,1,0,0,0,.5-.13l9.79-5.65a1,1,0,0,0,.5-.88V392.38L494,381v53.78l-51.55,30V411l20.23-11.75v9.63A1,1,0,0,0,463.2,409.76Zm1.52-2.63v-9.06l7.76-4.51v9.09Zm-54.56-75.68,5.16,3a1,1,0,0,0,.52.3L493,379.29l-19.11,11.1-82.85-47.83ZM389,343.73l82.85,47.84-8,4.67L381,348.4ZM379,349.57l82.85,47.84-20.38,11.84L358.6,361.42Zm-21.38,13.6L440.44,411v53.78L357.6,417Zm82.74,126.58L347.9,436.38v-16l92.44,53.37Zm1.36-17.52-92.79-53.57,6.66-3.85v2.73a.61.61,0,0,0,0,.13,1.42,1.42,0,0,0,0,.2,1.3,1.3,0,0,0,.08.17l.11.16.16.14s.05.06.09.08l84.87,49H441a1,1,0,0,0,.46.12,1,1,0,0,0,.45-.12h0l53.58-31.14.09-.08a1,1,0,0,0,.15-.14.57.57,0,0,0,.11-.16,1.3,1.3,0,0,0,.08-.17.73.73,0,0,0,0-.2s0-.08,0-.13v-3.75l4.4,2.53,0,0a.94.94,0,0,0,.92,0l.05,0L555,403.05l.1-.09.15-.13.11-.16a1.3,1.3,0,0,0,.08-.17,1.55,1.55,0,0,0,0-.21.53.53,0,0,0,0-.12v-2.38l5.81,3.36Zm113.08-48.46-6.48-4,6.48-3.75Zm7.58-2.91-5.56,3v-9.62a1,1,0,0,0-.51-.87,1,1,0,0,0-1,0l-9.45,5.48-.13.07-96,55.61a1,1,0,0,0-.51.87V486.2l-6.83,3.95v-16l120-69.28Z"/><path class="cls-9" d="M446.54,435.85v16.38a1,1,0,0,0,1,1,1,1,0,0,0,.5-.13L467.32,442a1,1,0,0,0,.5-.87V424.73a1,1,0,0,0-.5-.87,1,1,0,0,0-1,0L447.05,435A1,1,0,0,0,446.54,435.85Zm2,.58,17.23-9.95v14l-17.23,10Z"/><path class="cls-9" d="M374.13,398.61l-10.83-6.25a1,1,0,0,0-1,0,1,1,0,0,0-.5.87v22a1,1,0,0,0,.5.88l10.83,6.25a1,1,0,0,0,.51.14,1.06,1.06,0,0,0,.51-.14,1,1,0,0,0,.5-.87v-22A1,1,0,0,0,374.13,398.61Zm-1.52,21.1-8.81-5.09V395l8.81,5.09Z"/><path class="cls-9" d="M391.66,408.61l-10.83-6.25a1,1,0,0,0-1,0,1,1,0,0,0-.51.87v22a1,1,0,0,0,.51.88l10.83,6.25a1,1,0,0,0,1.52-.87v-22A1,1,0,0,0,391.66,408.61Zm-1.52,21.09-8.81-5.08V405l8.81,5.09Z"/><path class="cls-9" d="M506,402.61V419a1,1,0,0,0,.51.88,1,1,0,0,0,.5.13,1,1,0,0,0,.51-.13l19.25-11.12a1,1,0,0,0,.51-.88V391.5a1,1,0,0,0-1.52-.88l-19.25,11.12A1,1,0,0,0,506,402.61Zm2,.59,17.24-9.95V407.3l-17.24,9.95Z"/><path class="cls-9" d="M357.41,439.69l33.6,19.4a1,1,0,0,0,.5.13,1,1,0,0,0,1-1v-9.45a1,1,0,0,0-.5-.88l-33.6-19.4a1,1,0,0,0-1,0,1,1,0,0,0-.51.88v9.45A1,1,0,0,0,357.41,439.69Zm1.51-8.58,31.58,18.23v7.12l-31.58-18.23Z"/><path class="cls-9" d="M396.22,462.09l33.6,19.4a1,1,0,0,0,.51.13,1,1,0,0,0,.5-.13,1,1,0,0,0,.51-.88v-9.46a1,1,0,0,0-.51-.87l-33.6-19.4a1,1,0,0,0-1.51.87v9.46A1,1,0,0,0,396.22,462.09Zm1.52-8.59,31.58,18.24v7.12l-31.58-18.23Z"/><polygon class="cls-2" points="334.25 406.74 742.78 170.89 742.78 152.5 334.25 388.34 334.25 406.74"/><polygon class="cls-8" points="741.77 150.75 591.93 64.23 183.39 300.08 333.24 386.59 741.77 150.75"/><polygon class="cls-8" points="347.42 400.71 347.42 418.72 709.04 209.6 708.83 191.86 347.42 400.71"/><path class="cls-9" d="M744.39,353.24a.7.7,0,0,0,.16-.14l.11-.16a.89.89,0,0,0,.08-.17,1.3,1.3,0,0,0,0-.21s0-.07,0-.11V150.75a1,1,0,0,0-.12-.46l-.07-.11a1,1,0,0,0-.25-.25s0-.05-.06-.06L592.43,62.19a1,1,0,0,0-1,0l-410.56,237s0,.05-.05.06a.85.85,0,0,0-.25.25.76.76,0,0,0-.08.11,1,1,0,0,0-.12.46V368.2a7.92,7.92,0,0,0-1.36.64l-78.62,46.24c-5.37,3.1-10.08,10.36-11.71,18L77.05,476.73a9.32,9.32,0,0,0-3.92-6.16l-9.07-5.24a3.64,3.64,0,0,0-2-.5,1,1,0,0,0-.8.06l-4.17,2.26a1,1,0,0,1-.16.06l-.08.07-.08.05a.94.94,0,0,0-.33.29A4.46,4.46,0,0,0,55.2,471v23c0,3,1.79,6.39,4.06,7.7l9.59,5.76-4.32,16.23a109.64,109.64,0,0,0-3,16.85,1,1,0,0,0-.05.58q-.39,3.89-.49,7.79a1,1,0,0,0,0,.71c0,.71-.07,1.42-.07,2.12V607c0,3.09.9,5.51,2.47,7a1,1,0,0,0,.43.52l129.56,74.93a.93.93,0,0,0,.45.13c.07,0,.12.11.19.15a5.31,5.31,0,0,0,2.71.72,8,8,0,0,0,4-1.18l30.85-18.23,4.77-2.86c1.61,6.49,5,11.25,9.56,13.54a1,1,0,0,0,.35.35l22.63,13a.89.89,0,0,0,.31.08c.13.08.24.19.38.27a14.72,14.72,0,0,0,7.45,1.95A22.73,22.73,0,0,0,288.19,694c15.2-8.78,27.57-32.37,27.57-52.59,0-.44,0-.87,0-1.3l22.42,13a1,1,0,0,0,.3.08c.14.08.25.19.39.27a14.62,14.62,0,0,0,7.45,2,22.73,22.73,0,0,0,11.27-3.38c12.82-7.4,23.59-25.33,26.66-42.9l15.25,8.86a.85.85,0,0,0,.31.09c.13.08.25.19.38.27a14.75,14.75,0,0,0,7.45,2A22.73,22.73,0,0,0,418.88,617c15.21-8.78,27.57-32.37,27.57-52.59a39.62,39.62,0,0,0-1.28-10.26l160.68-92.72a18,18,0,0,0,5.82,7.15h0s0,0,0,0L636.5,483a.79.79,0,0,0,.31.08,3.28,3.28,0,0,0,.38.27,14.62,14.62,0,0,0,7.45,1.95,22.81,22.81,0,0,0,11.27-3.37c12.82-7.41,23.59-25.34,26.66-42.91l15.25,8.87a1.09,1.09,0,0,0,.31.08c.13.08.24.19.38.27A14.72,14.72,0,0,0,706,450.2a22.73,22.73,0,0,0,11.27-3.38c15.2-8.78,27.57-32.37,27.57-52.59,0-10.52-3.4-18.61-9.32-22.39a1,1,0,0,0-.43-.52L724,365l20.3-11.72S744.36,353.26,744.39,353.24Zm-152.46-289,149.84,86.52L333.24,386.59,183.39,300.08ZM182.38,301.83l149.84,86.51v18.4L182.38,320.23Zm0,20.73,149.84,86.51V565.36L317.82,557V450.41a8.57,8.57,0,0,0-2.22-6.29,1,1,0,0,0-.34-.35l-.24-.14c-.13-.09-.23-.22-.36-.3a4.5,4.5,0,0,0-.51-.2L184.78,368.3a1.2,1.2,0,0,0-.39-.13.89.89,0,0,0-.27-.15,5,5,0,0,0-1.74-.21ZM332.22,567.69v20l-14.4-8.32v-20Zm-30.89,40.7a19.08,19.08,0,0,0-13.31.32h0a31.13,31.13,0,0,0-5.11,2.39,50.05,50.05,0,0,0-12.95,11.29V468.83l39.69-23.35a4.22,4.22,0,0,1,3.55-.58l.78.46c1.15.9,1.83,2.68,1.83,5.05V611.2a12.34,12.34,0,0,1-3,8.11l-.62.75C309.86,614.24,306.15,610.21,301.33,608.39Zm9.34,13.46c-.17.2-.31.37-.47.54a15.36,15.36,0,0,0-6.33-4.7L290.76,610a16.14,16.14,0,0,1,9.86.31C305.17,612,308.64,616,310.67,621.85ZM62,466.81a1.71,1.71,0,0,1,1.08.27l9.07,5.24a7.59,7.59,0,0,1,3.07,6v4.4a1,1,0,0,0,.14.49l-1.89,7.1v-9.93c0-3-1.8-6.39-4.09-7.71l-8.77-5.06ZM60.29,500a7.61,7.61,0,0,1-3.07-6V471a2.4,2.4,0,0,1,.68-2l.15-.08a1.48,1.48,0,0,1,1.23.21l9.06,5.23c1.67,1,3.08,3.69,3.08,6v17.52l-2,7.6Zm3,42.64,127.6,73.8s.06,0,.09,0c-.19,2-.33,4.11-.41,6.16L63,548.79Q63.07,545.7,63.32,542.63Zm31.46,73.18-.47-7,61.45,35.54-1,6Zm59.53,36.63a3,3,0,0,1-1.56,1.65,3.08,3.08,0,0,1-2.89-.12l-49.43-28.59a11.26,11.26,0,0,1-5.28-7Zm-60.16-46-.53-7.95,63.69,36.83-1.19,7ZM93.46,596l-.27-4.19c0-.71-.12-2-.19-3.72l65.85,38.09-1.18,7Zm-.56-10.3c-.09-2.21-.19-4.73-.29-7.23l67.69,39.15-1.09,6.43Zm-.38-9.62c-.12-3.28-.23-6.24-.29-8.05l69.66,40.29-1.22,7.18ZM65.1,613l-.1-.1c-1.34-1-2.12-3.16-2.12-5.86V551.77c0-.23,0-.45,0-.68l27.26,15.76c.09,2.43.44,12.25.72,19a1,1,0,0,0,0,.82c.11,2.4.2,4.34.26,5.26l1.63,24.52a13.29,13.29,0,0,0,6.62,10.65l49.43,28.59a5.11,5.11,0,0,0,2.57.69,5.24,5.24,0,0,0,2.19-.48,5.16,5.16,0,0,0,2.88-3.8l1.39-8.15h0l5.87-34.56,26.78,15.49c0,.59-.06,1.17-.06,1.76V681.9a12.35,12.35,0,0,0,.65,4Zm-1.56-72.55a107.13,107.13,0,0,1,2.94-16.17l24.15-90.68c1.53-7.17,5.86-13.9,10.77-16.74L180,370.58a4.36,4.36,0,0,1,3.48-.64.88.88,0,0,0,.16,0s.06.07.1.09l126.28,73a8.58,8.58,0,0,0-1.43.65L230,490c-5.37,3.1-10.08,10.36-11.71,18l-24.14,90.63a109.47,109.47,0,0,0-2.92,15.65ZM236.32,665.78l-5.88,3.53L199.6,687.53c-1.77,1-3.37,1.19-4.63.46-1.57-.91-2.48-3.13-2.48-6.09V626.67a107.08,107.08,0,0,1,3.61-27.53l24.15-90.68c1.52-7.17,5.85-13.9,10.76-16.73L267.92,470V624.94a80.71,80.71,0,0,0-14.06,30.35l-17.53,10.49Zm11.24,14.78a1,1,0,0,0-.44-.41c-4.42-2-7.61-6.62-9.07-13l17.21-10.3s.05,0,.08-.07l.06-.05a1,1,0,0,0,.33-.53h0c4.1-18.53,15.42-35.93,28.17-43.29a30.08,30.08,0,0,1,4.27-2.05l10.06,5.91a23,23,0,0,0-11.05,3.38c-9.25,5.34-17.82,16.38-22.94,29.53a64.58,64.58,0,0,0-4.63,23.06c0,7,1.53,13,4.3,17.28Zm39.62,11.72c-6.18,3.57-12.11,4.08-16.7,1.43-5.63-3.25-8.85-10.91-8.85-21a62.52,62.52,0,0,1,4.49-22.32c5-12.74,13.21-23.4,22.07-28.52a20.74,20.74,0,0,1,10.22-3.08,13.07,13.07,0,0,1,4.77.87l3.43,2a14.85,14.85,0,0,1,2.7,2.87c2.9,4.05,4.43,9.9,4.43,16.92C313.74,661,301.83,683.82,287.18,692.28Zm28.42-54.55a29.29,29.29,0,0,0-4.18-13.66c.55-.6,1.27-1.47,2.12-2.52.33-.41.6-.75.75-.92a14.38,14.38,0,0,0,3.53-9.43V581.72l14.91,8.62h0a.92.92,0,0,0,.91,0h.05l30.61-17.68,2.28,1.29a1,1,0,0,0,.68.45h.11l.75.43a22.43,22.43,0,0,0-11.62,3.34C341.34,587,329,610.54,329,630.76c0,7,1.51,12.92,4.25,17.22Zm40.95,12.62c-6.19,3.57-12.12,4.07-16.7,1.43-5.63-3.25-8.85-10.91-8.85-21,0-19.57,11.91-42.38,26.56-50.84a20.79,20.79,0,0,1,10.25-3.1,12.72,12.72,0,0,1,6.45,1.68c5.62,3.24,8.85,10.9,8.85,21C383.11,619.09,371.19,641.9,356.55,650.35Zm28-43.28a55.7,55.7,0,0,0,.54-7.56c0-10.52-3.4-18.6-9.32-22.38a1,1,0,0,0-.43-.53l-6.77-3.85c.15-1,.32-1.9.53-2.85l56.29-32.49,4.06,2.3a22.45,22.45,0,0,0-11.62,3.35c-15.2,8.78-27.57,32.37-27.57,52.59,0,7,1.51,12.92,4.26,17.22Zm55.09-67.3v4.3a15.65,15.65,0,0,0-2.55-2.06,1,1,0,0,0-.43-.52l-9.24-5.26,3-1.76Zm-7.15-6.46,174.25-100.6,8.17,4.75L440.69,538Zm-14.66,81.93c-6.18,3.57-12.11,4.07-16.7,1.43-5.62-3.25-8.85-10.91-8.85-21,0-19.58,11.92-42.38,26.56-50.84a20.79,20.79,0,0,1,10.25-3.1,12.71,12.71,0,0,1,6.45,1.67c5.63,3.25,8.85,10.91,8.85,21C444.43,584,432.52,606.78,417.87,615.24Zm26.68-63.08a23.41,23.41,0,0,0-2.85-5.68v-6.71L615.62,439.41v14ZM612.81,466.9a16,16,0,0,1-5.21-6.49l9.54-5.51a1,1,0,0,0,.51-.87V437.66c0-.06,0-.11,0-.16a1,1,0,0,0-.46-1.11l-8.34-4.85,52.1-30.07,4.39,2.5h0l1.2.68A22.43,22.43,0,0,0,654.9,408c-15.21,8.78-27.58,32.37-27.58,52.6,0,7,1.52,12.91,4.27,17.22Zm50.12-66.6,2.74-1.59c-.21,1-.4,1.89-.56,2.82Zm-8,79.88c-6.18,3.57-12.12,4.08-16.7,1.43-5.63-3.25-8.85-10.91-8.85-21,0-19.58,11.91-42.39,26.56-50.85a20.79,20.79,0,0,1,10.25-3.1,12.75,12.75,0,0,1,6.45,1.68c5.62,3.24,8.85,10.9,8.85,21C681.46,448.92,669.54,471.73,654.9,480.18Zm87.88-85.95c0,19.58-11.91,42.38-26.56,50.84-6.18,3.57-12.11,4.08-16.7,1.43-5.63-3.25-8.85-10.91-8.85-21,0-19.58,11.91-42.38,26.56-50.84a20.79,20.79,0,0,1,10.25-3.1,12.74,12.74,0,0,1,6.45,1.67C739.55,376.46,742.78,384.12,742.78,394.23Zm-14.94-24.68a22.43,22.43,0,0,0-11.62,3.34c-15.21,8.78-27.58,32.37-27.58,52.59,0,7,1.52,12.92,4.27,17.22l-10-5.8a54.17,54.17,0,0,0,.55-7.56c0-10.52-3.4-18.6-9.32-22.38a1,1,0,0,0-.43-.52L667,402.59c.26-1.57.55-3.15.94-4.75a1.19,1.19,0,0,0,0-.42L722,366.19a1.79,1.79,0,0,0,.14.13Zm14.94-17.69L367.71,568.39s0,0,0,0l-33.42,19.29v-20L742.78,331.85Zm0-146.78-34,19.61V227l34-19.6v23.36l-34,19.61v2.34l34-19.61v96.39L334.25,565.36V547.81l13.13-7.58v-2.34l-13.13,7.59V522.11l13.13-7.59v-2.33l-13.13,7.58V409.07L742.78,173.23Zm0-34.19L334.25,406.74v-18.4L742.78,152.5Z"/><path class="cls-9" d="M366.39,571.49l.44-.26c0,.16-.06.31-.08.47Z"/><path class="cls-9" d="M261.94,581.3a4.2,4.2,0,0,0-1.78-3.84,3.3,3.3,0,0,0-3.41.19l-11.66,6.73c-2.34,1.35-4.18,4.82-4.18,7.9a4.22,4.22,0,0,0,1.78,3.84,2.87,2.87,0,0,0,1.45.39,3.87,3.87,0,0,0,2-.58l11.66-6.73C260.11,587.85,261.94,584.38,261.94,581.3Zm-5.19,6.15-11.66,6.73a1.47,1.47,0,0,1-1.39.19,2.4,2.4,0,0,1-.77-2.09c0-2.34,1.45-5.16,3.17-6.15l11.66-6.73a2.05,2.05,0,0,1,.95-.3.87.87,0,0,1,.44.11,2.4,2.4,0,0,1,.77,2.09C259.92,583.64,258.47,586.46,256.75,587.45Z"/><path class="cls-9" d="M214.38,502.84a1.41,1.41,0,0,0,0-.2,1.15,1.15,0,0,0,0-.19,1,1,0,0,0-.06-.18.91.91,0,0,0-.09-.17.88.88,0,0,0-.12-.15l-.15-.13s0,0-.06-.05l-118-68.26a.69.69,0,0,0-.13-.05l-.12-.06a.16.16,0,0,1-.07,0H95.2a.81.81,0,0,0-.22.07s-.1,0-.14.07l-.17.14a1.34,1.34,0,0,0-.11.14l-.06.06s0,.08,0,.13a.6.6,0,0,0-.06.11L70.77,522s0,0,0,.07a1.91,1.91,0,0,0,0,.39,1.34,1.34,0,0,0,.07.18.65.65,0,0,0,.08.17A1.49,1.49,0,0,0,71,523a1.07,1.07,0,0,0,.16.14l0,0,118,68.27.09,0a.71.71,0,0,0,.15.08,1.15,1.15,0,0,0,.26,0h0a1,1,0,0,0,.55-.18c.05,0,.08-.09.13-.13s.14-.11.19-.19a1.39,1.39,0,0,0,.06-.19s0,0,0-.06l23.63-87.91S214.37,502.86,214.38,502.84ZM189.13,589,72.92,521.81,96,435.92l116.21,67.21Z"/><path class="cls-9" d="M228.78,597.89l.06,0,.12-.05s0,0,.07,0l3.29-1.87h.06l.06,0,.16-.09a1,1,0,0,0,.31-.29,4,4,0,0,0,1.57-3.47V580.16l20.25-11.66c4-2.33,7.21-8.35,7.21-13.69V490.19c0-3-1-5.27-2.82-6.31a5.28,5.28,0,0,0-5.4.36l-21.09,12.17c-3.18,1.84-5.92,6.21-7,11.15-4.07,18.91-19.49,75.27-19.66,75.94-.68,3.92.17,7.14,2.28,8.62a4.36,4.36,0,0,0,2.54.79A6.44,6.44,0,0,0,214,592l1.2-.69a6.42,6.42,0,0,0,1.37,1.11l9.06,5.24a3.9,3.9,0,0,0,1.92.56,3,3,0,0,0,1.18-.27ZM213,590.21a3.32,3.32,0,0,1-3.55.25c-1.43-1-2-3.53-1.47-6.52.05-.2,1.92-7,4.52-16.69v17.42a10,10,0,0,0,1.47,5ZM232.46,592a2.21,2.21,0,0,1-1.14,2.16l-.66.37c0-.16.05-.3.05-.46V571c0-3-1.8-6.39-4.09-7.71l-8.77-5.07,1.39-.75a1.59,1.59,0,0,1,1.08.27l9.06,5.23c1.67,1,3.08,3.7,3.08,6Zm-4.84-84c.93-4.33,3.35-8.28,6-9.82L254.73,486a3.41,3.41,0,0,1,3.38-.36c1.15.67,1.81,2.33,1.81,4.56v64.62c0,4.61-2.78,10-6.2,11.94l-19.24,11.08v-8.91c0-3-1.8-6.39-4.09-7.71L221.33,556a3.64,3.64,0,0,0-2-.5,1,1,0,0,0-.81.06l-3.43,1.86C219.77,539.89,225.38,518.35,227.62,508ZM228.68,594a2.4,2.4,0,0,1-.69,2l-.1.06a1.5,1.5,0,0,1-1.27-.2l-9.06-5.24a4.91,4.91,0,0,1-1.29-1.15h0a8.15,8.15,0,0,1-1.78-4.8v-23a2.44,2.44,0,0,1,.67-2l.16-.09a1.52,1.52,0,0,1,1.23.22l9.06,5.23c1.67,1,3.07,3.69,3.07,6Z"/><path class="cls-9" d="M182.91,628.33l-13.85-8a2.77,2.77,0,0,0-2.81-.14,3.4,3.4,0,0,0-1.45,3.09v37.15a7.59,7.59,0,0,0,3.24,6.12h0l13.86,8a3.28,3.28,0,0,0,1.59.46,2.4,2.4,0,0,0,1.21-.32,3.4,3.4,0,0,0,1.46-3.09V634.45A7.58,7.58,0,0,0,182.91,628.33Zm1.23,43.27c0,.8-.24,1.22-.45,1.34s-.62-.06-.78-.15l-13.85-8a5.66,5.66,0,0,1-2.24-4.37V623.28c0-.8.24-1.22.45-1.34s.62,0,.77.14l13.86,8a5.66,5.66,0,0,1,2.24,4.37Z"/><path class="cls-9" d="M176,629.13a5.33,5.33,0,0,0-5.48-.36c-1.83,1.05-2.87,3.39-2.87,6.41,0,5.44,3.22,11.57,7.34,13.94a6.5,6.5,0,0,0,3.23,1,4.44,4.44,0,0,0,2.26-.6c1.82-1.05,2.87-3.38,2.87-6.41C183.33,637.63,180.1,631.5,176,629.13Zm3.47,18.6a3.51,3.51,0,0,1-3.47-.36c-3.49-2-6.33-7.49-6.33-12.19,0-2.28.68-4,1.86-4.66a2.39,2.39,0,0,1,1.25-.33,4.61,4.61,0,0,1,2.21.69c3.5,2,6.34,7.49,6.34,12.19C181.31,645.35,180.63,647.05,179.45,647.73Z"/><path class="cls-9" d="M176,651.71a4.13,4.13,0,0,0-4.21-.26c-1.4.81-2.2,2.57-2.2,4.84,0,4,2.37,8.49,5.4,10.24a5,5,0,0,0,2.46.72,3.42,3.42,0,0,0,1.76-.47c1.4-.8,2.2-2.57,2.2-4.83C181.39,658,179,653.46,176,651.71Zm2.2,13.32a2.24,2.24,0,0,1-2.2-.26c-2.38-1.37-4.39-5.26-4.39-8.48,0-1.5.45-2.66,1.19-3.08a1.49,1.49,0,0,1,.76-.2,2.92,2.92,0,0,1,1.43.46c2.38,1.37,4.4,5.25,4.4,8.48C179.37,663.45,178.92,664.6,178.18,665Z"/><path class="cls-9" d="M84.07,571.46l-13.86-8a2.75,2.75,0,0,0-2.8-.14A3.4,3.4,0,0,0,66,566.4v37.15a7.58,7.58,0,0,0,3.25,6.12l13.86,8a3.15,3.15,0,0,0,1.59.46,2.43,2.43,0,0,0,1.21-.32,3.38,3.38,0,0,0,1.46-3.09V577.57A7.57,7.57,0,0,0,84.07,571.46Zm1.22,43.26c0,.8-.24,1.22-.44,1.34s-.63,0-.78-.14l-13.86-8A5.65,5.65,0,0,1,68,603.55V566.4c0-.8.24-1.22.44-1.34a.46.46,0,0,1,.21,0,1.24,1.24,0,0,1,.57.19l13.86,8a5.61,5.61,0,0,1,2.23,4.36Z"/><path class="cls-9" d="M77.14,572.25a5.38,5.38,0,0,0-5.49-.36c-1.82,1.05-2.87,3.39-2.87,6.41,0,5.44,3.23,11.57,7.35,14a6.55,6.55,0,0,0,3.23,1,4.46,4.46,0,0,0,2.26-.59c1.82-1.06,2.87-3.39,2.87-6.41C84.49,580.76,81.26,574.63,77.14,572.25Zm3.47,18.61a3.51,3.51,0,0,1-3.47-.37c-3.49-2-6.34-7.48-6.34-12.19,0-2.28.68-4,1.86-4.66a2.55,2.55,0,0,1,1.26-.33,4.61,4.61,0,0,1,2.21.69c3.49,2,6.34,7.49,6.34,12.2C82.47,588.48,81.79,590.17,80.61,590.86Z"/><path class="cls-9" d="M77.14,594.84a4.12,4.12,0,0,0-4.22-.26c-1.39.8-2.19,2.57-2.19,4.83,0,4,2.37,8.49,5.4,10.24a4.94,4.94,0,0,0,2.45.72,3.52,3.52,0,0,0,1.77-.46c1.39-.81,2.19-2.57,2.19-4.84C82.54,601.08,80.17,596.58,77.14,594.84Zm2.19,13.31a2.25,2.25,0,0,1-2.19-.25c-2.38-1.38-4.39-5.26-4.39-8.49,0-1.5.44-2.65,1.19-3.08a1.46,1.46,0,0,1,.75-.2,3,3,0,0,1,1.44.46c2.38,1.37,4.39,5.26,4.39,8.48C80.52,606.57,80.08,607.73,79.33,608.15Z"/><path class="cls-9" d="M294.64,642.54c-2.12-1.22-4.76-1-7.46.51-5.71,3.3-10.36,12.14-10.36,19.7,0,4.19,1.43,7.41,3.91,8.85a6.06,6.06,0,0,0,3,.8,9,9,0,0,0,4.42-1.32c5.71-3.3,10.36-12.14,10.36-19.7C298.55,647.19,297.12,644,294.64,642.54Zm-7.46,26.79c-2,1.18-4,1.36-5.43.52-1.85-1.07-2.91-3.65-2.91-7.1,0-6.92,4.2-15,9.35-17.94a7,7,0,0,1,3.41-1,4,4,0,0,1,2,.53c1.84,1.06,2.9,3.65,2.9,7.09C296.53,658.3,292.33,666.35,287.18,669.33Z"/><path class="cls-9" d="M299.92,631.34c-3.58-2.07-8.11-1.73-12.74.94-10.17,5.87-18.44,21.63-18.44,35.14,0,7.31,2.45,12.91,6.71,15.37a10.09,10.09,0,0,0,5.1,1.34,15.52,15.52,0,0,0,7.64-2.28c10.16-5.87,18.43-21.63,18.43-35.14C306.62,639.4,304.18,633.8,299.92,631.34Zm-12.74,48.75c-4,2.3-7.79,2.64-10.72.95-3.62-2.09-5.69-7-5.69-13.62,0-12.86,7.81-27.84,17.42-33.38a13.36,13.36,0,0,1,6.62-2,8.08,8.08,0,0,1,4.1,1.06c3.62,2.09,5.69,7,5.69,13.62C304.6,659.58,296.79,674.55,287.18,680.09Z"/><path class="cls-9" d="M287.68,641.15a4.42,4.42,0,0,0,1.86-3.54c0-1.36-.83-2-1.86-1.4a4.45,4.45,0,0,0-1.85,3.54C285.83,641.11,286.66,641.74,287.68,641.15Z"/><path class="cls-9" d="M287.68,673a4.45,4.45,0,0,0-1.85,3.54c0,1.36.83,2,1.85,1.4a4.42,4.42,0,0,0,1.86-3.54C289.54,673,288.71,672.39,287.68,673Z"/><path class="cls-9" d="M273.9,662.56A4.42,4.42,0,0,0,272,666.1c0,1.36.83,2,1.86,1.4a4.45,4.45,0,0,0,1.85-3.54C275.75,662.59,274.92,662,273.9,662.56Z"/><path class="cls-9" d="M301.47,651.58a4.45,4.45,0,0,0,1.86-3.55c0-1.36-.83-2-1.86-1.4a4.46,4.46,0,0,0-1.85,3.54C299.62,651.54,300.45,652.17,301.47,651.58Z"/><path class="cls-9" d="M279.24,650.69c.73-1.39.73-3,0-3.5s-1.89.13-2.62,1.51-.72,2.95,0,3.5S278.52,652.07,279.24,650.69Z"/><path class="cls-9" d="M296.12,663.45c-.72,1.38-.72,2.94,0,3.49s1.9-.13,2.62-1.51.73-2.95,0-3.5S296.85,662.06,296.12,663.45Z"/><path class="cls-9" d="M276.62,674.7c-.72,1.39-.72,2.95,0,3.5s1.9-.13,2.62-1.51.73-3,0-3.5S277.35,673.32,276.62,674.7Z"/><path class="cls-9" d="M296.12,637.45c-.72,1.38-.72,2.94,0,3.49s1.9-.13,2.62-1.51.73-2.95,0-3.5S296.85,636.06,296.12,637.45Z"/><path class="cls-9" d="M662.35,430.44c-2.12-1.22-4.76-1-7.45.52-5.71,3.29-10.36,12.13-10.36,19.7,0,4.18,1.42,7.41,3.91,8.84a6,6,0,0,0,3,.8,8.92,8.92,0,0,0,4.43-1.32c5.71-3.3,10.35-12.13,10.35-19.7C666.26,435.1,664.84,431.87,662.35,430.44Zm-7.45,26.79c-2,1.18-4,1.37-5.44.52-1.84-1.07-2.9-3.65-2.9-7.09,0-6.93,4.19-15,9.35-18a7,7,0,0,1,3.41-1,4,4,0,0,1,2,.52c1.85,1.06,2.9,3.65,2.9,7.09C664.24,446.2,660.05,454.25,654.9,457.23Z"/><path class="cls-9" d="M667.64,419.24c-3.59-2.06-8.11-1.73-12.74.95-10.17,5.87-18.44,21.63-18.44,35.13,0,7.31,2.45,12.92,6.7,15.38a10.15,10.15,0,0,0,5.11,1.33,15.41,15.41,0,0,0,7.64-2.28c10.16-5.87,18.43-21.63,18.43-35.13C674.34,427.31,671.9,421.7,667.64,419.24ZM654.9,468c-4,2.3-7.8,2.63-10.73.94-3.61-2.08-5.69-7.05-5.69-13.62,0-12.86,7.82-27.83,17.43-33.38a13.35,13.35,0,0,1,6.61-2,8.12,8.12,0,0,1,4.11,1.06c3.61,2.09,5.69,7.06,5.69,13.63C672.32,447.48,664.5,462.45,654.9,468Z"/><path class="cls-9" d="M655.4,429.05a4.43,4.43,0,0,0,1.85-3.54c0-1.36-.83-2-1.85-1.4a4.45,4.45,0,0,0-1.85,3.54C653.55,429,654.38,429.64,655.4,429.05Z"/><path class="cls-9" d="M655.4,460.88a4.45,4.45,0,0,0-1.85,3.54c0,1.37.83,2,1.85,1.4a4.43,4.43,0,0,0,1.85-3.54C657.25,460.92,656.42,460.29,655.4,460.88Z"/><path class="cls-9" d="M641.61,450.46a4.45,4.45,0,0,0-1.85,3.54c0,1.36.83,2,1.85,1.4a4.43,4.43,0,0,0,1.86-3.54C643.47,450.5,642.64,449.87,641.61,450.46Z"/><path class="cls-9" d="M669.19,439.48a4.45,4.45,0,0,0,1.85-3.54c0-1.37-.83-2-1.85-1.4a4.43,4.43,0,0,0-1.85,3.54C667.34,439.44,668.17,440.07,669.19,439.48Z"/><path class="cls-9" d="M647,438.59c.72-1.38.72-2.95,0-3.49s-1.9.13-2.62,1.51-.72,2.94,0,3.49S646.24,440,647,438.59Z"/><path class="cls-9" d="M663.84,451.35c-.72,1.38-.72,2.95,0,3.49s1.9-.13,2.62-1.51.72-2.95,0-3.49S664.57,450,663.84,451.35Z"/><path class="cls-9" d="M644.34,462.61c-.72,1.38-.72,2.94,0,3.49s1.9-.13,2.62-1.51.72-2.95,0-3.49S645.06,461.23,644.34,462.61Z"/><path class="cls-9" d="M663.84,425.35c-.72,1.38-.72,2.95,0,3.49s1.9-.13,2.62-1.51.72-2.95,0-3.49S664.57,424,663.84,425.35Z"/><path class="cls-9" d="M716.22,395.84c-5.71,3.3-10.36,12.14-10.36,19.7,0,4.19,1.42,7.41,3.91,8.85a6,6,0,0,0,3,.79,9,9,0,0,0,4.42-1.31c5.71-3.3,10.36-12.14,10.36-19.7,0-4.19-1.43-7.41-3.91-8.85C721.56,394.1,718.92,394.29,716.22,395.84Zm9.34,8.33c0,6.92-4.19,15-9.34,17.94-2,1.19-4,1.37-5.44.52-1.84-1.06-2.9-3.64-2.9-7.09,0-6.92,4.2-15,9.35-18a7,7,0,0,1,3.41-1,4.11,4.11,0,0,1,2,.52C724.51,398.14,725.56,400.72,725.56,404.17Z"/><path class="cls-9" d="M716.22,385.07c-10.16,5.87-18.44,21.63-18.44,35.14,0,7.31,2.45,12.91,6.71,15.37a10,10,0,0,0,5.11,1.34,15.41,15.41,0,0,0,7.63-2.28c10.16-5.87,18.43-21.63,18.43-35.14,0-7.31-2.44-12.91-6.7-15.37C725.38,382.06,720.86,382.4,716.22,385.07Zm17.42,14.43c0,12.86-7.81,27.84-17.42,33.38-4,2.31-7.8,2.64-10.72.95-3.62-2.09-5.69-7.05-5.69-13.62,0-12.86,7.81-27.84,17.42-33.38a13.36,13.36,0,0,1,6.62-2,8.08,8.08,0,0,1,4.1,1.06C731.57,388,733.64,392.93,733.64,399.5Z"/><path class="cls-9" d="M716.72,393.94a4.43,4.43,0,0,0,1.86-3.54c0-1.36-.83-2-1.86-1.4a4.45,4.45,0,0,0-1.85,3.54C714.87,393.9,715.7,394.53,716.72,393.94Z"/><ellipse class="cls-9" cx="716.72" cy="428.24" rx="2.84" ry="1.61" transform="translate(41.99 919.98) rotate(-66.94)"/><path class="cls-9" d="M702.93,415.35a4.43,4.43,0,0,0-1.85,3.54c0,1.36.83,2,1.85,1.4a4.43,4.43,0,0,0,1.86-3.54C704.79,415.38,704,414.75,702.93,415.35Z"/><path class="cls-9" d="M730.51,404.36a4.42,4.42,0,0,0,1.86-3.54c0-1.36-.83-2-1.86-1.4a4.45,4.45,0,0,0-1.85,3.54C728.66,404.33,729.49,405,730.51,404.36Z"/><path class="cls-9" d="M708.28,403.47c.73-1.38.73-2.94,0-3.49s-1.89.13-2.62,1.51-.72,2.95,0,3.5S707.56,404.86,708.28,403.47Z"/><path class="cls-9" d="M725.16,416.24c-.72,1.38-.72,2.94,0,3.49s1.9-.13,2.62-1.51.73-3,0-3.5S725.89,414.85,725.16,416.24Z"/><path class="cls-9" d="M705.66,427.49c-.72,1.39-.72,2.95,0,3.5s1.9-.13,2.62-1.52.73-2.94,0-3.49S706.39,426.11,705.66,427.49Z"/><path class="cls-9" d="M727.78,392.22c.73-1.39.73-3,0-3.5s-1.89.13-2.62,1.52-.72,2.94,0,3.49S727.06,393.6,727.78,392.22Z"/><path class="cls-9" d="M364,600.61c-2.11-1.22-4.76-1-7.45.52-5.71,3.29-10.36,12.13-10.36,19.7,0,4.18,1.43,7.4,3.91,8.84a6.06,6.06,0,0,0,3,.8,8.89,8.89,0,0,0,4.42-1.32c5.71-3.3,10.36-12.13,10.36-19.7C367.92,605.26,366.49,602,364,600.61Zm-7.45,26.79c-2,1.17-4,1.36-5.44.52-1.84-1.07-2.9-3.65-2.9-7.09,0-6.93,4.19-15,9.35-18a7,7,0,0,1,3.41-1,4,4,0,0,1,2,.52c1.85,1.06,2.9,3.65,2.9,7.09C365.89,616.37,361.7,624.42,356.55,627.4Z"/><path class="cls-9" d="M369.29,589.41c-3.58-2.07-8.11-1.73-12.74,1-10.17,5.87-18.44,21.63-18.44,35.13,0,7.31,2.45,12.91,6.71,15.38a10.08,10.08,0,0,0,5.1,1.33,15.41,15.41,0,0,0,7.64-2.28c10.16-5.87,18.43-21.63,18.43-35.13C376,597.47,373.55,591.87,369.29,589.41Zm-12.74,48.76c-4,2.3-7.79,2.64-10.72.94-3.62-2.09-5.7-7.05-5.7-13.62,0-12.86,7.82-27.84,17.43-33.38a13.36,13.36,0,0,1,6.62-2,8.11,8.11,0,0,1,4.1,1.06c3.62,2.09,5.69,7.06,5.69,13.63C374,617.65,366.16,632.62,356.55,638.17Z"/><path class="cls-9" d="M357.05,599.22a4.42,4.42,0,0,0,1.86-3.54c0-1.36-.83-2-1.86-1.4a4.45,4.45,0,0,0-1.85,3.54C355.2,599.19,356,599.81,357.05,599.22Z"/><path class="cls-9" d="M357.05,631.05a4.45,4.45,0,0,0-1.85,3.54c0,1.37.83,2,1.85,1.4a4.42,4.42,0,0,0,1.86-3.54C358.91,631.09,358.08,630.46,357.05,631.05Z"/><path class="cls-9" d="M343.26,620.63a4.43,4.43,0,0,0-1.85,3.54c0,1.36.83,2,1.85,1.4a4.43,4.43,0,0,0,1.86-3.54C345.12,620.66,344.29,620,343.26,620.63Z"/><path class="cls-9" d="M370.84,609.65a4.45,4.45,0,0,0,1.85-3.54c0-1.37-.83-2-1.85-1.4a4.43,4.43,0,0,0-1.85,3.54C369,609.61,369.82,610.24,370.84,609.65Z"/><path class="cls-9" d="M348.61,608.76c.73-1.39.73-3,0-3.5s-1.89.13-2.62,1.52-.72,2.94,0,3.49S347.89,610.14,348.61,608.76Z"/><path class="cls-9" d="M365.49,621.52c-.72,1.38-.72,2.94,0,3.49s1.9-.13,2.62-1.51.73-3,0-3.49S366.22,620.14,365.49,621.52Z"/><path class="cls-9" d="M346,632.78c-.72,1.38-.72,2.94,0,3.49s1.9-.13,2.62-1.51.73-3,0-3.5S346.72,631.39,346,632.78Z"/><path class="cls-9" d="M365.49,595.52c-.72,1.38-.72,2.94,0,3.49s1.9-.13,2.62-1.51.73-3,0-3.49S366.22,594.14,365.49,595.52Z"/><path class="cls-9" d="M425.33,565.49c-2.12-1.22-4.77-1-7.46.52-5.71,3.3-10.36,12.14-10.36,19.7,0,4.19,1.43,7.41,3.91,8.84a6,6,0,0,0,3,.8,8.89,8.89,0,0,0,4.42-1.32c5.71-3.29,10.36-12.13,10.36-19.69C429.24,570.15,427.81,566.93,425.33,565.49Zm-7.46,26.79c-2.05,1.19-4,1.37-5.44.52-1.84-1.06-2.89-3.65-2.89-7.09,0-6.92,4.19-15,9.34-18a7,7,0,0,1,3.41-1,4,4,0,0,1,2,.52c1.84,1.07,2.9,3.65,2.9,7.1C427.22,581.26,423,589.31,417.87,592.28Z"/><path class="cls-9" d="M430.61,554.3c-3.58-2.07-8.1-1.74-12.74.94-10.16,5.87-18.44,21.63-18.44,35.14,0,7.31,2.45,12.91,6.71,15.37a10.13,10.13,0,0,0,5.11,1.34,15.43,15.43,0,0,0,7.63-2.29c10.17-5.87,18.44-21.63,18.44-35.13C437.32,562.36,434.87,556.76,430.61,554.3Zm-12.74,48.75c-4,2.3-7.79,2.64-10.72,1-3.62-2.09-5.69-7.06-5.69-13.62,0-12.86,7.81-27.84,17.42-33.39a13.44,13.44,0,0,1,6.62-2,8.08,8.08,0,0,1,4.1,1.06c3.62,2.09,5.69,7.05,5.69,13.62C435.29,582.53,427.48,597.51,417.87,603.05Z"/><path class="cls-9" d="M418.37,564.11a4.43,4.43,0,0,0,1.86-3.54c0-1.37-.83-2-1.86-1.4a4.43,4.43,0,0,0-1.85,3.54C416.52,564.07,417.35,564.7,418.37,564.11Z"/><path class="cls-9" d="M418.37,595.94a4.43,4.43,0,0,0-1.85,3.54c0,1.36.83,2,1.85,1.4a4.43,4.43,0,0,0,1.86-3.54C420.23,596,419.4,595.35,418.37,595.94Z"/><path class="cls-9" d="M404.59,585.51a4.43,4.43,0,0,0-1.86,3.54c0,1.37.83,2,1.86,1.4a4.43,4.43,0,0,0,1.85-3.54C406.44,585.55,405.61,584.92,404.59,585.51Z"/><path class="cls-9" d="M432.16,574.53A4.42,4.42,0,0,0,434,571c0-1.36-.83-2-1.86-1.4a4.45,4.45,0,0,0-1.85,3.54C430.31,574.5,431.14,575.12,432.16,574.53Z"/><path class="cls-9" d="M409.94,573.64c.72-1.38.72-2.94,0-3.49s-1.9.13-2.62,1.51-.73,3,0,3.5S409.21,575,409.94,573.64Z"/><path class="cls-9" d="M426.82,586.4c-.73,1.39-.73,3,0,3.5s1.89-.13,2.62-1.52.72-2.94,0-3.49S427.54,585,426.82,586.4Z"/><path class="cls-9" d="M407.32,597.66c-.73,1.39-.73,3,0,3.5s1.89-.13,2.62-1.52.72-2.94,0-3.49S408,596.28,407.32,597.66Z"/><path class="cls-9" d="M426.82,560.4c-.73,1.39-.73,3,0,3.5s1.89-.13,2.62-1.52.72-2.94,0-3.49S427.54,559,426.82,560.4Z"/><path class="cls-9" d="M718,337a1,1,0,0,0,.51.13,1,1,0,0,0,.5-.13l15.9-9.18a1,1,0,0,0,.5-.88V315.3a1,1,0,0,0-.5-.88,1,1,0,0,0-1,0L718,323.6a1,1,0,0,0-.51.87v11.67A1,1,0,0,0,718,337Zm1.52-12,13.87-8v9.33l-13.87,8Z"/><path class="cls-9" d="M244.34,640.66l-15.9,9.18a1,1,0,0,0-.5.88v11.66a1,1,0,0,0,.5.88,1,1,0,0,0,.51.14,1,1,0,0,0,.5-.14l15.9-9.18a1,1,0,0,0,.5-.87V641.54a1,1,0,0,0-1.51-.88Zm-.51,12-13.87,8V651.3l13.87-8Z"/><path class="cls-9" d="M98.67,422.87l1.17.68a1,1,0,0,0,.5.13,1,1,0,0,0,.88-.5,1,1,0,0,0-.37-1.38l-1.17-.68a1,1,0,1,0-1,1.75Z"/><path class="cls-9" d="M189.14,475.08l2.35,1.36a1,1,0,0,0,.51.14,1,1,0,0,0,.5-1.89l-2.35-1.36a1,1,0,1,0-1,1.75Z"/><path class="cls-9" d="M139.79,446.6l2.35,1.36a1,1,0,0,0,.5.13,1,1,0,0,0,.88-.5,1,1,0,0,0-.37-1.38l-2.35-1.36a1,1,0,1,0-1,1.75Z"/><path class="cls-9" d="M132.74,442.53l2.35,1.36a1,1,0,0,0,.5.14,1,1,0,0,0,.88-.51,1,1,0,0,0-.37-1.38l-2.35-1.36a1,1,0,1,0-1,1.75Z"/><path class="cls-9" d="M153.89,454.74l2.35,1.36a1,1,0,0,0,.5.13,1,1,0,0,0,.88-.5,1,1,0,0,0-.37-1.38L154.9,453a1,1,0,0,0-1,1.75Z"/><path class="cls-9" d="M146.84,450.67l2.35,1.36a1,1,0,0,0,.5.13,1,1,0,0,0,.88-.5,1,1,0,0,0-.37-1.38l-2.35-1.36a1,1,0,1,0-1,1.75Z"/><path class="cls-9" d="M111.59,430.33l2.35,1.35a.93.93,0,0,0,.5.14,1,1,0,0,0,.51-1.89l-2.35-1.35a1,1,0,1,0-1,1.75Z"/><path class="cls-9" d="M118.64,434.4l2.35,1.35a1,1,0,0,0,.5.14A1,1,0,0,0,122,434l-2.35-1.36a1,1,0,0,0-1,1.76Z"/><path class="cls-9" d="M125.69,438.46l2.35,1.36a1,1,0,0,0,.5.14,1,1,0,0,0,.88-.51,1,1,0,0,0-.37-1.38l-2.35-1.36a1,1,0,1,0-1,1.75Z"/><path class="cls-9" d="M210.29,487.29l2.35,1.36a1,1,0,0,0,.51.13,1,1,0,0,0,.5-1.88l-2.35-1.36a1,1,0,1,0-1,1.75Z"/><path class="cls-9" d="M203.24,483.22l2.35,1.36a1,1,0,0,0,.51.13,1,1,0,0,0,.5-1.88l-2.35-1.36a1,1,0,1,0-1,1.75Z"/><path class="cls-9" d="M160.94,458.81l2.35,1.36a1,1,0,0,0,.5.13,1,1,0,0,0,.88-.5,1,1,0,0,0-.37-1.38L162,457.06a1,1,0,1,0-1,1.75Z"/><path class="cls-9" d="M196.19,479.15l2.35,1.36a1,1,0,0,0,.51.14,1,1,0,0,0,.5-1.89l-2.35-1.36a1,1,0,1,0-1,1.75Z"/><path class="cls-9" d="M104.54,426.26l2.35,1.35a.93.93,0,0,0,.5.14,1,1,0,0,0,.51-1.89l-2.35-1.35a1,1,0,1,0-1,1.75Z"/><path class="cls-9" d="M168,462.88l2.35,1.35a.93.93,0,0,0,.5.14,1,1,0,0,0,.51-1.89L169,461.13a1,1,0,1,0-1,1.75Z"/><path class="cls-9" d="M175,467l2.35,1.35a.93.93,0,0,0,.5.14,1,1,0,0,0,.51-1.89l-2.35-1.35a1,1,0,1,0-1,1.75Z"/><path class="cls-9" d="M182.09,471l2.35,1.35a1,1,0,0,0,.51.14,1,1,0,0,0,.87-.51,1,1,0,0,0-.37-1.38l-2.35-1.35a1,1,0,0,0-1.38.37A1,1,0,0,0,182.09,471Z"/><path class="cls-9" d="M217.34,491.36l1.17.67a.94.94,0,0,0,.51.14,1,1,0,0,0,.87-.51,1,1,0,0,0-.37-1.38l-1.17-.67a1,1,0,1,0-1,1.75Z"/><path class="cls-9" d="M347.42,560a1,1,0,0,1-1-1V400.12c0-.55,2-.55,2,0V559A1,1,0,0,1,347.42,560Z"/><path class="cls-9" d="M708.82,351.23a1,1,0,0,1-1-1V191.86a1,1,0,0,1,2,0V350.22A1,1,0,0,1,708.82,351.23Z"/><path class="cls-9" d="M347.73,419.23a1,1,0,0,1-.88-.51,1,1,0,0,1,.37-1.38L708.34,208.85a1,1,0,0,1,1.39.37,1,1,0,0,1-.38,1.38L348.23,419.09A1,1,0,0,1,347.73,419.23Z"/><path class="cls-2" d="M103.19,499.67a1,1,0,0,1-.51-1.89l37.22-21.3a1,1,0,1,1,1,1.75l-37.21,21.31A1,1,0,0,1,103.19,499.67Z"/><path class="cls-2" d="M110.71,505.3a1,1,0,0,1-.5-1.89l28.43-16.28a1,1,0,0,1,1,1.75l-28.44,16.29A1,1,0,0,1,110.71,505.3Z"/></svg>