<svg id="Capa_1" data-name="Capa 1" xmlns="http://www.w3.org/2000/svg" viewBox="0 0 800 800"><defs><style>.cls-1{fill:#c1b8ca;}.cls-2{fill:#fff;}.cls-3{fill:#2e2e2f;}.cls-4{fill:#4b494a;}.cls-5{fill:#353435;}.cls-6{fill:#dfd8e3;}.cls-7{fill:#9d93a9;}.cls-8{fill:#3fbddb;}.cls-9{fill:#1f1f1f;}</style></defs><path class="cls-1" d="M219.07,734.17l514-298.64c4.51-2.6,3.94-7.14-1.26-10.15L601.41,350.11c-5.2-3-13.07-3.33-17.58-.73L69.84,648c-4.5,2.6-3.94,7.14,1.27,10.14l130.38,75.28C206.69,736.44,214.56,736.77,219.07,734.17Z"/><path class="cls-2" d="M424.17,566.24a4,4,0,0,0-2-.51,6.84,6.84,0,0,0-3.39,1c-5.12,3-9.29,11-9.29,17.84,0,3.42,1,6,2.88,7,1.45.84,3.37.66,5.4-.52,5.13-3,9.29-11,9.29-17.84C427.05,569.87,426,567.3,424.17,566.24Z"/><path class="cls-2" d="M260,578.14a.82.82,0,0,0-.44-.11,2,2,0,0,0-.94.3L247,585c-1.71,1-3.15,3.78-3.15,6.11a2.37,2.37,0,0,0,.77,2.08A1.48,1.48,0,0,0,246,593l11.59-6.69c1.71-1,3.15-3.78,3.15-6.11A2.37,2.37,0,0,0,260,578.14Z"/><path class="cls-3" d="M265.05,648.14c5.09-13.07,13.61-24,22.8-29.36a22.92,22.92,0,0,1,11-3.35l-10-5.88a31.33,31.33,0,0,0-4.24,2c-12.68,7.32-23.94,24.62-28,43h0a1.06,1.06,0,0,1-.33.53l-.05.05s0,0-.08.06L239,665.51c1.45,6.38,4.62,11,9,13a.93.93,0,0,1,.43.4l16.25,9.36c-2.75-4.29-4.28-10.18-4.28-17.18A64.21,64.21,0,0,1,265.05,648.14Z"/><path class="cls-2" d="M191.72,625.32c0-.59.05-1.17.06-1.76l-26.62-15.39-5.83,34.35h0l-1.37,8.1a5.11,5.11,0,0,1-7.6,3.57l-49.14-28.42a13.24,13.24,0,0,1-6.58-10.58L93,590.81c-.06-.92-.15-2.84-.25-5.23a1,1,0,0,1,0-.81c-.28-6.74-.63-16.5-.72-18.91L64.92,550.18c0,.23,0,.46,0,.68v54.9c0,2.69.77,4.81,2.11,5.83,0,0,0,.07.09.1l125.26,72.46a12.51,12.51,0,0,1-.64-3.94ZM89.18,613.44a3.37,3.37,0,0,1-1.44,3.07,2.43,2.43,0,0,1-1.21.32,3.24,3.24,0,0,1-1.58-.46l-13.77-8A7.55,7.55,0,0,1,68,602.34V565.41a3.37,3.37,0,0,1,1.45-3.07,2.71,2.71,0,0,1,2.78.14L86,570.43a7.51,7.51,0,0,1,3.22,6.08ZM187.44,670a3.39,3.39,0,0,1-1.45,3.07,2.39,2.39,0,0,1-1.2.31,3.23,3.23,0,0,1-1.59-.45l-13.77-8h0a7.52,7.52,0,0,1-3.23-6.08V622a3.4,3.4,0,0,1,1.45-3.08,2.78,2.78,0,0,1,2.79.14l13.77,8a7.55,7.55,0,0,1,3.23,6.08Z"/><path class="cls-2" d="M226.65,564l-9-5.2a1.53,1.53,0,0,0-1.22-.21l-.15.08a2.44,2.44,0,0,0-.67,1.95v22.91a8,8,0,0,0,1.77,4.77h0a4.56,4.56,0,0,0,1.28,1.15l9,5.21a1.48,1.48,0,0,0,1.26.2l.1-.06a2.4,2.4,0,0,0,.69-2V570A7.54,7.54,0,0,0,226.65,564Z"/><polygon class="cls-2" points="230.97 659.08 244.76 651.11 244.76 641.84 230.97 649.8 230.97 659.08"/><polygon class="cls-4" points="74.88 521.08 190.39 587.9 213.34 502.52 97.83 435.7 74.88 521.08"/><path class="cls-5" d="M220.42,554.55a3.63,3.63,0,0,1,2,.5l9,5.2c2.27,1.31,4.06,4.68,4.06,7.67v8.84l19.12-11c3.4-2,6.17-7.29,6.17-11.88V489.65c0-2.22-.66-3.87-1.8-4.53a3.4,3.4,0,0,0-3.36.35l-21,12.11c-2.65,1.53-5,5.45-6,9.76-2.22,10.3-7.81,31.72-12.44,49.12l3.41-1.85A1,1,0,0,1,220.42,554.55Z"/><path class="cls-6" d="M219.37,507.34c1.61-7.6,6.3-14.81,11.64-17.9l78.15-46a9.3,9.3,0,0,1,1.42-.64l-125.52-72.6-.1-.09a1,1,0,0,1-.17,0,4.29,4.29,0,0,0-3.45.64l-78.16,46c-4.88,2.82-9.18,9.51-10.7,16.64l-24,90.14a105.61,105.61,0,0,0-2.93,16.07L192.47,613a108.21,108.21,0,0,1,2.9-15.56Zm-1.3-17.9a1,1,0,0,1,1.37-.37l1.16.67a1,1,0,0,1-.5,1.88.9.9,0,0,1-.5-.14l-1.17-.67A1,1,0,0,1,218.07,489.44Zm-7-4a1,1,0,0,1,1.37-.37l2.34,1.35a1,1,0,0,1,.37,1.37,1,1,0,0,1-.88.5,1,1,0,0,1-.5-.13l-2.33-1.35A1,1,0,0,1,211.06,485.4Zm-7-4a1,1,0,0,1,1.37-.37l2.34,1.35a1,1,0,0,1-.5,1.88,1.06,1.06,0,0,1-.51-.14l-2.33-1.34A1,1,0,0,1,204.05,481.35Zm-7-4a1,1,0,0,1,1.37-.37l2.34,1.35a1,1,0,0,1-.5,1.87,1,1,0,0,1-.5-.13l-2.34-1.35A1,1,0,0,1,197,477.31Zm-7-4.05a1,1,0,0,1,1.38-.36l2.33,1.34a1,1,0,0,1-.5,1.88.93.93,0,0,1-.5-.14l-2.34-1.34A1,1,0,0,1,190,473.26Zm-7-4a1,1,0,0,1,1.37-.37l2.33,1.35a1,1,0,0,1-1,1.74l-2.34-1.35A1,1,0,0,1,183,469.22Zm-7-4.05a1,1,0,0,1,1.37-.36l2.34,1.35a1,1,0,0,1-.51,1.87,1,1,0,0,1-.5-.13l-2.34-1.35A1,1,0,0,1,176,465.17Zm-7-4a1,1,0,0,1,1.37-.37l2.34,1.35a1,1,0,0,1,.37,1.37,1,1,0,0,1-.88.51,1,1,0,0,1-.5-.14l-2.33-1.35A1,1,0,0,1,169,461.13Zm-7-4a1,1,0,0,1,1.37-.37l2.34,1.35a1,1,0,0,1,.37,1.37,1,1,0,0,1-.87.5,1,1,0,0,1-.51-.13l-2.33-1.35A1,1,0,0,1,162,457.09Zm-7-4a1,1,0,0,1,1.38-.37L158.7,454a1,1,0,1,1-1,1.74l-2.34-1.35A1,1,0,0,1,155,453Zm-7-4a1,1,0,0,1,1.37-.37l2.33,1.35a1,1,0,0,1-1,1.74l-2.34-1.35A1,1,0,0,1,148,449ZM141,445a1,1,0,0,1,1.37-.37l2.34,1.35a1,1,0,0,1,.36,1.37,1,1,0,0,1-.87.51,1,1,0,0,1-.5-.14l-2.34-1.35A1,1,0,0,1,141,445Zm-7-4a1,1,0,0,1,1.37-.37l2.34,1.35a1,1,0,0,1,.37,1.37,1,1,0,0,1-.88.5,1,1,0,0,1-.5-.13l-2.33-1.35A1,1,0,0,1,134,440.91Zm-7-4.05a1,1,0,0,1,1.37-.37l2.34,1.35a1,1,0,0,1-.5,1.88,1.06,1.06,0,0,1-.51-.14l-2.33-1.35A1,1,0,0,1,127,436.86Zm-7-4a1,1,0,0,1,1.37-.37l2.34,1.35a1,1,0,0,1-.5,1.87,1,1,0,0,1-.5-.13l-2.34-1.35A1,1,0,0,1,120,432.82Zm-7-4.05a1,1,0,0,1,1.38-.37l2.33,1.35a1,1,0,0,1-.5,1.88.93.93,0,0,1-.5-.14l-2.34-1.34A1,1,0,0,1,112.94,428.77Zm-7-4a1,1,0,0,1,1.37-.37l2.33,1.35a1,1,0,0,1-1,1.74l-2.34-1.35A1,1,0,0,1,105.94,424.73Zm-5.84-3.37a1,1,0,0,1,1.37-.37l1.17.67A1,1,0,0,1,103,423a1,1,0,0,1-.87.5,1,1,0,0,1-.5-.13l-1.16-.67A1,1,0,0,1,100.1,421.36ZM192,589.68s0,0,0,.06a1.39,1.39,0,0,1-.06.19,1.07,1.07,0,0,1-.19.18.8.8,0,0,1-.13.13,1,1,0,0,1-.55.19h0a.75.75,0,0,1-.26,0,1.11,1.11,0,0,1-.16-.07s-.06,0-.08,0L73.2,522.44l0-.05a.93.93,0,0,1-.15-.13.57.57,0,0,1-.12-.15.91.91,0,0,1-.09-.17,1,1,0,0,1-.06-.18,1.09,1.09,0,0,1,0-.18,1.27,1.27,0,0,1,0-.2s0,0,0-.07l23.49-87.39c0-.05,0-.08,0-.12a.69.69,0,0,1,0-.13s0,0,0-.06l.12-.13a1.07,1.07,0,0,1,.16-.14l.14-.07a.81.81,0,0,1,.22-.07h.44l.12.05a.61.61,0,0,1,.12.05L215,501.16l0,0a.93.93,0,0,1,.15.13,1.49,1.49,0,0,1,.12.14,1.51,1.51,0,0,1,.09.18,1.15,1.15,0,0,1,.06.17,1.91,1.91,0,0,1,0,.39s0,0,0,.07Z"/><path class="cls-5" d="M213.59,566.25c-2.58,9.6-4.44,16.39-4.49,16.59-.51,3,0,5.49,1.46,6.48a3.28,3.28,0,0,0,3.53-.25l1-.56a9.83,9.83,0,0,1-1.47-4.94Z"/><path class="cls-6" d="M230.4,562l-9-5.2a1.59,1.59,0,0,0-1.08-.27l-1.38.75,8.72,5c2.27,1.32,4.06,4.68,4.06,7.67v22.91c0,.16,0,.3,0,.46l.65-.37a2.2,2.2,0,0,0,1.13-2.15v-22.9C233.46,565.66,232.06,562.94,230.4,562Z"/><path class="cls-1" d="M268.71,623.59v-154L232,491.18c-4.88,2.82-9.18,9.5-10.7,16.63l-24,90.14a106.22,106.22,0,0,0-3.59,27.37v54.89c0,2.95.9,5.16,2.46,6.06,1.25.72,2.85.57,4.6-.45l30.66-18.12,5.85-3.51h0l17.42-10.43A80.44,80.44,0,0,1,268.71,623.59Zm-42.06-27.15-9-5.21a6.26,6.26,0,0,1-1.36-1.1l-1.19.68a6.37,6.37,0,0,1-3.16,1,4.38,4.38,0,0,1-2.52-.79c-2.1-1.47-2.95-4.67-2.27-8.57.17-.66,15.49-56.68,19.54-75.49,1.06-4.9,3.79-9.25,6.95-11.07l21-12.11a5.25,5.25,0,0,1,5.37-.35c1.79,1,2.81,3.32,2.81,6.27v64.23c0,5.32-3.15,11.3-7.17,13.62l-20.13,11.58v11.74a4,4,0,0,1-1.56,3.46,1.05,1.05,0,0,1-.31.28l-.16.09-.06,0s0,0-.06,0l-3.27,1.85s0,.05-.07.06l-.11,0-.07,0h-.07a2.8,2.8,0,0,1-1.17.28A3.89,3.89,0,0,1,226.65,596.44Zm20.12,55.25a1,1,0,0,1-.5.88l-15.8,9.12a1,1,0,0,1-1,0,1,1,0,0,1-.51-.87v-11.6a1,1,0,0,1,.51-.87l15.8-9.12a1,1,0,0,1,1,0,1,1,0,0,1,.5.87Zm-1.7-56.36a2.8,2.8,0,0,1-1.44-.38,4.21,4.21,0,0,1-1.77-3.82c0-3.06,1.83-6.51,4.16-7.85l11.59-6.69a3.28,3.28,0,0,1,3.39-.19,4.21,4.21,0,0,1,1.77,3.82c0,3.06-1.83,6.51-4.16,7.85L247,594.76A3.92,3.92,0,0,1,245.07,595.33Z"/><path class="cls-3" d="M417.76,542.2a22.29,22.29,0,0,1,11.55-3.32l-4-2.3-55.95,32.31c-.2.94-.37,1.89-.53,2.83l6.74,3.83a1,1,0,0,1,.43.52c5.88,3.76,9.26,11.79,9.26,22.25a55,55,0,0,1-.54,7.51l9.91,5.77c-2.73-4.28-4.23-10.16-4.23-17.12C390.36,574.38,402.65,550.93,417.76,542.2Z"/><path class="cls-5" d="M374.41,577.43a12.66,12.66,0,0,0-6.41-1.66,20.65,20.65,0,0,0-10.19,3.08c-14.56,8.4-26.4,31.07-26.4,50.54,0,10,3.21,17.66,8.8,20.89,4.56,2.62,10.45,2.12,16.6-1.43,14.56-8.4,26.4-31.07,26.4-50.53C383.21,588.27,380,580.66,374.41,577.43Zm-16.6,61.06a15.4,15.4,0,0,1-7.59,2.27,10.1,10.1,0,0,1-5.07-1.33c-4.24-2.45-6.67-8-6.67-15.29,0-13.42,8.22-29.09,18.33-34.92,4.61-2.66,9.11-3,12.66-.94,4.24,2.44,6.67,8,6.67,15.28C376.14,617,367.92,632.65,357.81,638.49Z"/><path class="cls-2" d="M299.52,631.7a8,8,0,0,0-4.08-1.06,13.31,13.31,0,0,0-6.58,2c-9.55,5.51-17.32,20.4-17.32,33.18,0,6.53,2.06,11.47,5.66,13.54,2.91,1.68,6.69,1.35,10.65-.94,9.55-5.51,17.32-20.4,17.32-33.18C305.17,638.71,303.11,633.77,299.52,631.7Zm-11.16,3.1c1-.59,1.84,0,1.84,1.39a4.43,4.43,0,0,1-1.84,3.52c-1,.59-1.85,0-1.85-1.39A4.41,4.41,0,0,1,288.36,634.8Zm-11,12.42c.72-1.38,1.89-2.05,2.61-1.51s.72,2.1,0,3.48-1.89,2-2.61,1.5S276.64,648.59,277.36,647.22Zm-2.71,18.68c-1,.59-1.84,0-1.84-1.39a4.39,4.39,0,0,1,1.84-3.52c1-.59,1.84,0,1.84,1.39A4.4,4.4,0,0,1,274.65,665.9ZM280,675c-.72,1.38-1.89,2.05-2.61,1.51s-.72-2.1,0-3.48,1.89-2,2.61-1.5S280.69,673.66,280,675Zm8.39,1.23c-1,.59-1.85,0-1.85-1.39a4.41,4.41,0,0,1,1.85-3.52c1-.59,1.84,0,1.84,1.39A4.43,4.43,0,0,1,288.36,676.26Zm.5-6.8a8.91,8.91,0,0,1-4.4,1.31,6,6,0,0,1-3-.79c-2.48-1.43-3.89-4.64-3.89-8.8,0-7.52,4.61-16.3,10.29-19.58,2.68-1.54,5.32-1.72,7.42-.51,2.47,1.42,3.88,4.63,3.88,8.79C299.15,657.4,294.53,666.18,288.86,669.46Zm10.49-5.62c-.72,1.38-1.89,2-2.6,1.5s-.72-2.09,0-3.47,1.88-2,2.6-1.5S300.07,662.47,299.35,663.84Zm0-25.84c-.72,1.37-1.89,2-2.6,1.5s-.72-2.1,0-3.47,1.88-2,2.6-1.51S300.07,636.62,299.35,638Zm2.71,7.16c1-.59,1.84,0,1.84,1.39a4.4,4.4,0,0,1-1.84,3.52c-1,.59-1.84,0-1.84-1.39A4.43,4.43,0,0,1,302.06,645.16Z"/><path class="cls-3" d="M427.29,535.42l9.19,5.22a1,1,0,0,1,.43.53,14.88,14.88,0,0,1,2.53,2v-4.28l-9.12-5.26Z"/><path class="cls-2" d="M368.47,590a8,8,0,0,0-4.08-1.06,13.34,13.34,0,0,0-6.58,2c-9.55,5.51-17.32,20.4-17.32,33.18,0,6.53,2.06,11.47,5.66,13.54,2.91,1.69,6.69,1.35,10.66-.94,9.55-5.51,17.32-20.39,17.32-33.18C374.13,597,372.06,592.1,368.47,590Zm-11.16,3.1c1-.59,1.84,0,1.84,1.39a4.4,4.4,0,0,1-1.84,3.52c-1,.59-1.84,0-1.84-1.39A4.4,4.4,0,0,1,357.31,593.12Zm-11,12.42c.72-1.37,1.88-2,2.6-1.5s.72,2.1,0,3.47-1.88,2-2.6,1.5S345.6,606.91,346.32,605.54Zm-2.72,18.68c-1,.59-1.84,0-1.84-1.39a4.43,4.43,0,0,1,1.84-3.52c1-.59,1.85,0,1.85,1.39A4.41,4.41,0,0,1,343.6,624.22Zm5.32,9.13c-.72,1.38-1.88,2-2.6,1.51s-.72-2.1,0-3.47,1.88-2,2.6-1.51S349.64,632,348.92,633.35Zm8.39,1.23c-1,.59-1.84,0-1.84-1.39a4.4,4.4,0,0,1,1.84-3.52c1-.59,1.84,0,1.84,1.39A4.39,4.39,0,0,1,357.31,634.58Zm.5-6.8a8.87,8.87,0,0,1-4.39,1.31,6,6,0,0,1-3-.79c-2.47-1.43-3.89-4.63-3.89-8.79,0-7.52,4.62-16.31,10.3-19.59,2.67-1.54,5.31-1.72,7.41-.51,2.47,1.42,3.89,4.63,3.89,8.79C368.11,615.72,363.49,624.5,357.81,627.78Zm10.49-5.62c-.72,1.38-1.88,2.05-2.6,1.51s-.72-2.1,0-3.48,1.88-2,2.6-1.5S369,620.79,368.3,622.16Zm0-25.84c-.72,1.37-1.88,2-2.6,1.5s-.72-2.1,0-3.47,1.88-2.05,2.6-1.5S369,594.94,368.3,596.32Zm2.72,7.16c1-.58,1.84,0,1.84,1.4a4.41,4.41,0,0,1-1.84,3.51c-1,.59-1.85,0-1.85-1.39A4.43,4.43,0,0,1,371,603.48Z"/><polygon class="cls-5" points="613.67 437.24 605.55 432.51 432.33 532.51 440.44 537.19 613.67 437.24"/><path class="cls-5" d="M307.17,620.33l-3.41-2a13.12,13.12,0,0,0-4.74-.86,20.45,20.45,0,0,0-10.16,3.07c-8.81,5.08-17,15.68-21.94,28.34a62.2,62.2,0,0,0-4.47,22.19c0,10.05,3.21,17.66,8.8,20.89,4.56,2.64,10.46,2.13,16.6-1.42,14.56-8.4,26.41-31.07,26.41-50.54,0-7-1.53-12.78-4.41-16.81A14.34,14.34,0,0,0,307.17,620.33Zm-18.31,59.83a15.35,15.35,0,0,1-7.59,2.27,10,10,0,0,1-5.08-1.33c-4.23-2.44-6.66-8-6.66-15.28,0-13.42,8.22-29.09,18.32-34.92,4.6-2.66,9.11-3,12.67-.94,4.23,2.44,6.66,8,6.66,15.28C307.18,658.66,299,674.33,288.86,680.16Z"/><path class="cls-3" d="M356.81,577.11a22.26,22.26,0,0,1,11.55-3.32l-.75-.43h-.11a1,1,0,0,1-.67-.44l-2.26-1.28L334.14,589.2h-.05a.92.92,0,0,1-.91,0h-.05l-14.82-8.56v29.3a14.27,14.27,0,0,1-3.51,9.37c-.15.17-.41.51-.74.91-.85,1-1.57,1.91-2.11,2.51a29.1,29.1,0,0,1,4.15,13.58l17.53,10.19c-2.72-4.28-4.23-10.16-4.23-17.11C329.4,609.28,341.69,585.83,356.81,577.11Z"/><path class="cls-2" d="M367,570.21l-.44.26.36.2C367,570.52,367,570.36,367,570.21Z"/><path class="cls-2" d="M363.21,601.15a3.94,3.94,0,0,0-2-.52,6.89,6.89,0,0,0-3.39,1c-5.12,3-9.29,11-9.29,17.84,0,3.42,1.05,6,2.88,7,1.47.84,3.38.65,5.41-.52,5.12-3,9.29-11,9.29-17.84C366.1,604.78,365.05,602.21,363.21,601.15Z"/><path class="cls-2" d="M294.26,642.83a3.94,3.94,0,0,0-2-.52,6.94,6.94,0,0,0-3.39,1c-5.13,3-9.29,11-9.29,17.84,0,3.43,1.05,6,2.88,7.05,1.46.84,3.38.66,5.4-.51,5.12-3,9.29-11,9.29-17.84C297.14,646.45,296.09,643.88,294.26,642.83Z"/><path class="cls-6" d="M75.39,479.86v9.87l1.88-7.06a1,1,0,0,1-.14-.48v-4.38c0-2.26-1.4-5-3-5.92l-9-5.21a1.71,1.71,0,0,0-1.08-.27l-1.38.75,8.72,5C73.61,473.51,75.39,476.88,75.39,479.86Z"/><path class="cls-7" d="M301.21,609a16.1,16.1,0,0,0-9.8-.3l13,7.66a15.19,15.19,0,0,1,6.3,4.67l.46-.53C309.19,614.71,305.74,610.73,301.21,609Z"/><path class="cls-8" d="M183.2,628.71l-13.77-8c-.15-.08-.54-.27-.77-.14s-.45.54-.45,1.34v36.92a5.59,5.59,0,0,0,2.23,4.34l13.77,7.95c.15.09.53.29.78.14s.44-.53.44-1.32V633A5.58,5.58,0,0,0,183.2,628.71Zm-2.69,36.48a3.47,3.47,0,0,1-1.75.46,4.9,4.9,0,0,1-2.44-.72c-3-1.74-5.37-6.2-5.37-10.17,0-2.25.79-4,2.18-4.81a4.09,4.09,0,0,1,4.19.26c3,1.74,5.37,6.21,5.37,10.17C182.69,662.64,181.9,664.39,180.51,665.19Zm1.26-17.2a4.37,4.37,0,0,1-2.24.6,6.37,6.37,0,0,1-3.21-1c-4.1-2.36-7.31-8.45-7.31-13.86,0-3,1-5.32,2.86-6.37a5.33,5.33,0,0,1,5.45.36c4.1,2.36,7.31,8.45,7.31,13.86C184.63,644.63,183.59,647,181.77,648Z"/><path class="cls-4" d="M192.26,615.16l-.09,0L65.33,541.77c-.17,2-.28,4.09-.34,6.13l126.86,73.38Q192,618.22,192.26,615.16Z"/><path class="cls-1" d="M313.29,618a12.27,12.27,0,0,0,3-8V450.11c0-2.36-.68-4.13-1.82-5l-.78-.45a4.17,4.17,0,0,0-3.53.57l-39.45,23.21V621.07a49.86,49.86,0,0,1,12.87-11.23,31.56,31.56,0,0,1,5.08-2.37h0c4.74-1.7,9.24-1.83,13.24-.32,4.79,1.8,8.48,5.81,10.75,11.59Z"/><polygon class="cls-2" points="318.31 578.32 332.63 586.59 332.63 566.69 318.31 558.42 318.31 578.32"/><polygon class="cls-2" points="332.63 388.41 183.68 302.42 183.68 320.7 332.63 406.7 332.63 388.41"/><polygon class="cls-4" points="157.22 642.91 96.14 607.59 96.6 614.52 156.21 648.87 157.22 642.91"/><path class="cls-8" d="M185.68,368.36a1.07,1.07,0,0,1,.38.13l128.61,74.38c.16.08.34.11.5.2s.23.21.36.3l.23.14a1.06,1.06,0,0,1,.35.35,8.54,8.54,0,0,1,2.2,6.25v106l14.32,8.27V409L183.68,323v45a5,5,0,0,1,1.73.2A.89.89,0,0,1,185.68,368.36Z"/><path class="cls-2" d="M73.38,497.28V479.86c0-2.25-1.4-5-3-5.92l-9-5.2a1.48,1.48,0,0,0-1.23-.21l-.15.08a2.4,2.4,0,0,0-.67,1.94v22.91a7.56,7.56,0,0,0,3,5.93l9.05,5.44Z"/><path class="cls-2" d="M78.06,573a4.52,4.52,0,0,0-2.19-.68,2.48,2.48,0,0,0-1.25.32c-1.17.68-1.85,2.37-1.85,4.63,0,4.68,2.83,10.12,6.3,12.13a3.52,3.52,0,0,0,3.45.36c1.17-.68,1.84-2.37,1.84-4.63C84.36,580.41,81.54,575,78.06,573Z"/><path class="cls-4" d="M102.22,624l49.14,28.42a3.07,3.07,0,0,0,4.41-1.51L97,617.05A11.21,11.21,0,0,0,102.22,624Z"/><path class="cls-2" d="M78.06,595.41a2.94,2.94,0,0,0-1.42-.45,1.49,1.49,0,0,0-.76.2c-.74.42-1.18,1.57-1.18,3.06,0,3.21,2,7.07,4.37,8.43a2.21,2.21,0,0,0,2.18.26c.74-.43,1.18-1.57,1.18-3.07C82.43,600.64,80.43,596.78,78.06,595.41Z"/><path class="cls-2" d="M176.32,629.5a4.6,4.6,0,0,0-2.2-.68,2.5,2.5,0,0,0-1.25.32c-1.17.68-1.85,2.37-1.85,4.63,0,4.68,2.83,10.12,6.3,12.12a3.47,3.47,0,0,0,3.45.36c1.17-.68,1.85-2.36,1.85-4.63C182.62,636.94,179.79,631.5,176.32,629.5Z"/><path class="cls-2" d="M176.32,652a3,3,0,0,0-1.43-.45,1.44,1.44,0,0,0-.75.19c-.74.43-1.18,1.58-1.18,3.07,0,3.2,2,7.07,4.36,8.43a2.23,2.23,0,0,0,2.18.26c.74-.43,1.18-1.58,1.18-3.07C180.68,657.18,178.68,653.32,176.32,652Z"/><path class="cls-8" d="M85,572.17l-13.77-7.95a1.28,1.28,0,0,0-.57-.19.36.36,0,0,0-.21.05c-.2.12-.44.53-.44,1.33v36.93a5.64,5.64,0,0,0,2.22,4.34l13.78,8c.15.09.53.28.77.14s.44-.54.44-1.33V576.51A5.58,5.58,0,0,0,85,572.17Zm-2.69,36.48a3.49,3.49,0,0,1-1.76.47,4.85,4.85,0,0,1-2.44-.73c-3-1.73-5.37-6.2-5.37-10.17,0-2.25.8-4,2.19-4.81a4.11,4.11,0,0,1,4.19.26c3,1.74,5.37,6.21,5.37,10.17C84.44,606.1,83.64,607.85,82.26,608.65Zm1.26-17.19a4.53,4.53,0,0,1-2.25.59,6.51,6.51,0,0,1-3.21-.95c-4.09-2.37-7.3-8.46-7.3-13.87,0-3,1-5.32,2.86-6.37a5.35,5.35,0,0,1,5.45.36c4.1,2.37,7.3,8.46,7.3,13.87C86.37,588.09,85.33,590.41,83.52,591.46Z"/><path class="cls-4" d="M163.31,607.1,94.07,567.05c.06,1.79.17,4.74.29,8l67.74,39.18Z"/><polygon class="cls-4" points="158.76 633.88 95.46 597.26 95.98 605.17 157.58 640.8 158.76 633.88"/><path class="cls-4" d="M160.29,624.85,94.83,587c.08,1.67.14,3,.19,3.69l.28,4.17,63.81,36.92Z"/><path class="cls-4" d="M161.74,616.34,94.45,577.42c.09,2.49.19,5,.28,7.19l65.92,38.12Z"/><polygon class="cls-2" points="348.04 513.64 334.64 521.38 334.64 544.61 348.04 536.87 348.04 513.64"/><polygon class="cls-2" points="706.63 228.26 706.63 251.48 740.73 231.8 740.73 208.57 706.63 228.26"/><path class="cls-4" d="M614.34,439.17,441.45,538.93v6.68a23.08,23.08,0,0,1,2.83,5.64l170.06-98.13Z"/><path class="cls-2" d="M715.33,386.9c-9.55,5.52-17.32,20.4-17.32,33.18,0,6.54,2.07,11.47,5.66,13.55,2.91,1.68,6.7,1.35,10.66-.94,9.55-5.52,17.32-20.4,17.32-33.18,0-6.53-2.07-11.47-5.66-13.55a8.1,8.1,0,0,0-4.08-1A13.42,13.42,0,0,0,715.33,386.9Zm-.5,2.17c1-.59,1.84,0,1.84,1.39a4.42,4.42,0,0,1-1.84,3.52c-1,.58-1.84,0-1.84-1.4A4.38,4.38,0,0,1,714.83,389.07Zm-11,12.41c.72-1.37,1.88-2,2.6-1.5s.72,2.1,0,3.47-1.88,2.05-2.6,1.51S703.12,402.86,703.84,401.48Zm-2.72,18.68c-1,.59-1.84,0-1.84-1.39a4.44,4.44,0,0,1,1.84-3.52c1-.58,1.85,0,1.85,1.4A4.39,4.39,0,0,1,701.12,420.16Zm5.32,9.14c-.72,1.37-1.88,2.05-2.6,1.5s-.72-2.1,0-3.47,1.88-2.05,2.6-1.5S707.16,427.92,706.44,429.3Zm8.39,1.23c-1,.58-1.84,0-1.84-1.4a4.38,4.38,0,0,1,1.84-3.51c1-.59,1.84,0,1.84,1.39A4.42,4.42,0,0,1,714.83,430.53Zm11-12.42c-.71,1.37-1.88,2-2.6,1.5s-.72-2.1,0-3.47,1.89-2.05,2.6-1.51S726.54,416.73,725.82,418.11Zm2.72-18.68c1-.59,1.84,0,1.84,1.39a4.43,4.43,0,0,1-1.84,3.52c-1,.59-1.84,0-1.84-1.39A4.39,4.39,0,0,1,728.54,399.43Zm-5.32-9.14c.72-1.37,1.89-2,2.6-1.5s.72,2.1,0,3.47-1.88,2.05-2.6,1.51S722.5,391.67,723.22,390.29Zm2.41,13.85c0,7.52-4.62,16.31-10.3,19.58a8.87,8.87,0,0,1-4.39,1.31,6,6,0,0,1-3-.79c-2.47-1.43-3.89-4.63-3.89-8.79,0-7.52,4.62-16.3,10.3-19.58,2.68-1.55,5.31-1.73,7.41-.52C724.21,396.78,725.63,400,725.63,404.14Z"/><path class="cls-2" d="M659.78,432a3.94,3.94,0,0,0-2-.52,6.94,6.94,0,0,0-3.39,1c-5.13,3-9.29,11-9.29,17.85,0,3.42,1,6,2.88,7,1.45.85,3.37.66,5.4-.51,5.13-3,9.29-11,9.29-17.84C662.66,435.62,661.61,433.05,659.78,432Z"/><path class="cls-5" d="M435.37,542.52a12.68,12.68,0,0,0-6.41-1.66,20.65,20.65,0,0,0-10.19,3.08c-14.56,8.41-26.4,31.08-26.4,50.54,0,10,3.2,17.66,8.79,20.89,4.56,2.63,10.46,2.13,16.6-1.42,14.56-8.4,26.41-31.08,26.41-50.54C444.17,553.37,441,545.75,435.37,542.52Zm-16.6,61.06a15.35,15.35,0,0,1-7.59,2.27,10,10,0,0,1-5.08-1.33c-4.23-2.44-6.66-8-6.66-15.28,0-13.43,8.22-29.09,18.32-34.93,4.61-2.66,9.11-3,12.67-.93,4.23,2.44,6.66,8,6.66,15.28C437.09,582.08,428.87,597.75,418.77,603.58Z"/><path class="cls-2" d="M665,420.87a8,8,0,0,0-4.07-1.06,13.31,13.31,0,0,0-6.58,2c-9.55,5.51-17.32,20.4-17.32,33.18,0,6.53,2.06,11.47,5.66,13.54,2.91,1.68,6.69,1.35,10.65-.94,9.55-5.51,17.32-20.4,17.32-33.18C670.69,427.88,668.63,422.94,665,420.87ZM653.88,424c1-.59,1.84,0,1.84,1.39a4.43,4.43,0,0,1-1.84,3.52c-1,.59-1.85,0-1.85-1.39A4.41,4.41,0,0,1,653.88,424Zm-11,12.42c.72-1.38,1.89-2.05,2.61-1.5s.71,2.09,0,3.47-1.89,2-2.61,1.5S642.16,437.76,642.88,436.39Zm-2.71,18.68c-1,.59-1.84,0-1.84-1.39a4.4,4.4,0,0,1,1.84-3.52c1-.59,1.84,0,1.84,1.39A4.4,4.4,0,0,1,640.17,455.07Zm5.32,9.13c-.72,1.38-1.89,2.05-2.61,1.51s-.72-2.1,0-3.48,1.89-2,2.61-1.5S646.2,462.83,645.49,464.2Zm8.39,1.23c-1,.59-1.85,0-1.85-1.39a4.41,4.41,0,0,1,1.85-3.52c1-.59,1.84,0,1.84,1.39A4.43,4.43,0,0,1,653.88,465.43Zm.5-6.8a8.91,8.91,0,0,1-4.4,1.31,6,6,0,0,1-3-.8c-2.47-1.42-3.88-4.63-3.88-8.78,0-7.53,4.62-16.31,10.29-19.59,2.68-1.54,5.31-1.73,7.42-.51,2.47,1.42,3.88,4.63,3.88,8.79C664.67,446.57,660.06,455.35,654.38,458.63ZM664.87,453c-.72,1.38-1.89,2.05-2.61,1.51s-.71-2.1,0-3.48,1.89-2,2.61-1.5S665.59,451.64,664.87,453Zm0-25.84c-.72,1.37-1.89,2-2.61,1.5s-.71-2.1,0-3.47,1.89-2.05,2.61-1.51S665.59,425.79,664.87,427.17Zm2.71,7.16c1-.59,1.84,0,1.84,1.39a4.39,4.39,0,0,1-1.84,3.52c-1,.59-1.84,0-1.84-1.39A4.4,4.4,0,0,1,667.58,434.33Z"/><path class="cls-5" d="M715.33,374.79c-14.56,8.41-26.4,31.08-26.4,50.54,0,10.05,3.21,17.66,8.8,20.89,4.56,2.63,10.45,2.13,16.6-1.42,14.56-8.41,26.4-31.08,26.4-50.54,0-10.05-3.2-17.66-8.8-20.89a12.66,12.66,0,0,0-6.41-1.66A20.65,20.65,0,0,0,715.33,374.79Zm18.33,24.72c0,13.42-8.22,29.09-18.33,34.92a15.29,15.29,0,0,1-7.58,2.27,10,10,0,0,1-5.08-1.33c-4.24-2.45-6.67-8-6.67-15.29,0-13.42,8.23-29.08,18.33-34.92,4.61-2.66,9.1-3,12.67-.94C731.23,386.67,733.66,392.24,733.66,399.51Z"/><path class="cls-5" d="M671,408.28a12.69,12.69,0,0,0-6.41-1.67,20.67,20.67,0,0,0-10.19,3.09c-14.56,8.4-26.4,31.07-26.4,50.53,0,10,3.2,17.67,8.79,20.89,4.56,2.64,10.46,2.13,16.6-1.42,14.56-8.4,26.41-31.07,26.41-50.53C679.78,419.12,676.57,411.5,671,408.28Zm-16.6,61.05a15.35,15.35,0,0,1-7.59,2.27,10,10,0,0,1-5.08-1.33c-4.23-2.44-6.66-8-6.66-15.28,0-13.42,8.22-29.09,18.32-34.92,4.61-2.66,9.1-3,12.67-.94,4.23,2.44,6.66,8,6.66,15.28C672.7,447.83,664.48,463.5,654.38,469.33Z"/><path class="cls-2" d="M718.72,396.57a6.92,6.92,0,0,0-3.39,1c-5.12,3-9.29,11-9.29,17.84,0,3.42,1.05,6,2.88,7.05,1.46.84,3.38.66,5.41-.52,5.12-3,9.29-11,9.29-17.84,0-3.42-1-6-2.88-7.05A4,4,0,0,0,718.72,396.57Z"/><polygon class="cls-8" points="348.04 401.28 334.64 409.02 334.64 519.06 348.04 511.32 348.04 401.28"/><polygon class="cls-8" points="706.63 194.27 706.63 225.93 740.73 206.25 740.73 174.58 706.63 194.27"/><path class="cls-8" d="M706.63,253.8v95.82l34.1-19.69V234.12Zm26.8,73.6a1,1,0,0,1-.51.87l-15.8,9.12a1,1,0,0,1-.5.14,1,1,0,0,1-.5-.14,1,1,0,0,1-.5-.87v-11.6a1,1,0,0,1,.5-.87l15.8-9.12a1,1,0,0,1,1.51.87Z"/><polygon class="cls-8" points="348.04 539.19 334.64 546.93 334.64 564.37 348.04 556.63 348.04 539.19"/><path class="cls-3" d="M653.37,408a22.3,22.3,0,0,1,11.55-3.33l-1.19-.68h0l-4.36-2.48-51.79,29.89,8.3,4.83a1,1,0,0,1,.45,1.09c0,.06.05.11.05.16V453.7a1,1,0,0,1-.51.87l-9.49,5.48a16,16,0,0,0,5.19,6.45l18.66,10.85c-2.73-4.28-4.23-10.16-4.23-17.12C626,440.13,638.26,416.68,653.37,408Z"/><path class="cls-2" d="M429.42,555.12a8,8,0,0,0-4.07-1.06,13.31,13.31,0,0,0-6.58,2c-9.55,5.51-17.32,20.39-17.32,33.18,0,6.53,2.06,11.46,5.66,13.54,2.91,1.68,6.69,1.34,10.65-.94,9.55-5.51,17.32-20.4,17.32-33.18C435.08,562.13,433,557.19,429.42,555.12Zm-11.15,3.1c1-.59,1.84,0,1.84,1.39a4.44,4.44,0,0,1-1.84,3.52c-1,.59-1.85,0-1.85-1.39A4.4,4.4,0,0,1,418.27,558.22Zm-11,12.42c.72-1.38,1.89-2,2.61-1.51s.71,2.1,0,3.48-1.89,2-2.61,1.5S406.55,572,407.27,570.64Zm-2.71,18.68c-1,.58-1.84,0-1.84-1.4a4.38,4.38,0,0,1,1.84-3.51c1-.59,1.84,0,1.84,1.39A4.42,4.42,0,0,1,404.56,589.32Zm5.32,9.13c-.72,1.37-1.89,2-2.61,1.5s-.72-2.09,0-3.47,1.89-2.05,2.61-1.5S410.59,597.08,409.88,598.45Zm8.39,1.23c-1,.59-1.85,0-1.85-1.39a4.4,4.4,0,0,1,1.85-3.52c1-.59,1.84,0,1.84,1.39A4.43,4.43,0,0,1,418.27,599.68Zm.5-6.81a8.78,8.78,0,0,1-4.4,1.31,5.91,5.91,0,0,1-3-.79c-2.48-1.43-3.89-4.63-3.89-8.79,0-7.52,4.62-16.3,10.29-19.58,2.68-1.55,5.31-1.73,7.42-.52,2.47,1.43,3.88,4.63,3.88,8.79C429.06,580.81,424.45,589.6,418.77,592.87Zm10.49-5.61c-.72,1.37-1.89,2-2.61,1.5s-.71-2.1,0-3.47,1.89-2,2.61-1.5S430,585.88,429.26,587.26Zm0-25.85c-.72,1.38-1.89,2.05-2.61,1.51s-.71-2.1,0-3.47,1.89-2.05,2.61-1.51S430,560,429.26,561.41Zm2.71,7.17c1-.59,1.84,0,1.84,1.39a4.4,4.4,0,0,1-1.84,3.52c-1,.59-1.84,0-1.84-1.39A4.4,4.4,0,0,1,432,568.58Z"/><polygon class="cls-2" points="731.42 317.54 717.63 325.5 717.63 334.78 731.42 326.82 731.42 317.54"/><path class="cls-2" d="M334.64,586.59l33.22-19.18.05,0L740.73,352.15v-19.9L334.64,566.69Z"/><path class="cls-3" d="M720.08,366.39l-53.77,31.05a1.2,1.2,0,0,1,0,.42c-.38,1.58-.68,3.16-.93,4.71l6.72,3.83a1,1,0,0,1,.43.52c5.88,3.76,9.27,11.79,9.27,22.25a53.46,53.46,0,0,1-.55,7.51l9.91,5.77c-2.72-4.28-4.23-10.16-4.23-17.12,0-20.1,12.3-43.55,27.41-52.28a22.26,22.26,0,0,1,11.55-3.32l-5.65-3.21C720.17,366.48,720.13,366.43,720.08,366.39Z"/><path class="cls-5" d="M183.36,584.76c1.26.71,7.16,5.43,7.68,4.16,1.4-3.4,4.16-13.26,5.87-20.83L111,518.61c-8.11-4.68-20.49-5.19-27.51-1.14l-8.61,5s12.54,7,13.34,7.51C118.88,548.12,155.93,569.36,183.36,584.76Z"/><polygon class="cls-4" points="347.73 400.7 347.73 557.42 707.19 350.51 706.98 193.1 347.73 400.7"/><path class="cls-9" d="M707.48,309.61l-85.69-49.39c-.63.38-1.27.76-1.88,1.17l-.06,0,86.63,49.92a1,1,0,0,0,.5.14,1,1,0,0,0,.87-.51A1,1,0,0,0,707.48,309.61Z"/><polygon class="cls-2" points="334.64 406.7 740.73 172.26 740.73 153.97 334.64 388.41 334.64 406.7"/><polygon class="cls-8" points="739.73 152.24 590.78 66.24 184.69 300.68 333.63 386.67 739.73 152.24"/><path class="cls-8" d="M345.78,401.3l2,156.48L707.2,349.91q1.27-78.69,2.57-157.37Z"/><path class="cls-9" d="M742.33,353.52a.7.7,0,0,0,.16-.14l.11-.16a.8.8,0,0,0,.08-.16,1.55,1.55,0,0,0,0-.21s0-.08,0-.12V152.24a1,1,0,0,0-.12-.46l-.07-.11a1,1,0,0,0-.25-.25l-.06-.06-151-87.15a1,1,0,0,0-1,0L182.17,299.81s0,0,0,.06a1,1,0,0,0-.25.24.76.76,0,0,0-.08.11,1,1,0,0,0-.12.46v67.71a9,9,0,0,0-1.35.63l-78.15,46c-5.34,3.08-10,10.3-11.64,17.9L79,476.27a9.34,9.34,0,0,0-3.9-6.13l-9-5.2a3.7,3.7,0,0,0-2-.49,1,1,0,0,0-.8.06l-4.14,2.24s-.11,0-.16.06l-.07.07-.09.05a.92.92,0,0,0-.33.29,4.43,4.43,0,0,0-1.24,3.33v22.91c0,3,1.78,6.36,4,7.66l9.53,5.73L66.54,523a107.16,107.16,0,0,0-3,16.75.94.94,0,0,0-.06.57c-.25,2.58-.42,5.16-.48,7.75a1,1,0,0,0,0,.71c0,.7-.06,1.4-.06,2.1v54.9c0,3.07.89,5.48,2.46,7a1,1,0,0,0,.42.51l128.78,74.49a1,1,0,0,0,.46.13c.06,0,.11.11.18.15a5.27,5.27,0,0,0,2.7.71,7.9,7.9,0,0,0,3.92-1.17l30.67-18.12,4.74-2.84c1.6,6.45,4.92,11.18,9.5,13.45a1.06,1.06,0,0,0,.34.36l22.51,13a1,1,0,0,0,.3.08c.13.08.25.19.38.26a14.57,14.57,0,0,0,7.41,1.94,22.67,22.67,0,0,0,11.2-3.35c15.11-8.73,27.41-32.19,27.41-52.29,0-.43,0-.85,0-1.28l22.29,13a1,1,0,0,0,.3.08c.13.08.25.19.38.27a14.69,14.69,0,0,0,7.41,1.94,22.63,22.63,0,0,0,11.2-3.36c12.75-7.36,23.45-25.19,26.51-42.65l15.15,8.81a1.21,1.21,0,0,0,.31.09l.38.26a14.57,14.57,0,0,0,7.41,1.94,22.59,22.59,0,0,0,11.2-3.36c15.11-8.72,27.41-32.18,27.41-52.28a39.12,39.12,0,0,0-1.28-10.19l159.72-92.17a17.79,17.79,0,0,0,5.79,7.11h0l0,0,24.61,14.31a.91.91,0,0,0,.31.09c.13.08.25.19.38.26a14.57,14.57,0,0,0,7.41,1.94,22.67,22.67,0,0,0,11.2-3.35c12.74-7.36,23.45-25.19,26.5-42.65L696,447.61a.79.79,0,0,0,.3.08c.13.08.25.19.38.27a14.72,14.72,0,0,0,7.41,1.94,22.63,22.63,0,0,0,11.2-3.36c15.12-8.73,27.41-32.18,27.41-52.28,0-10.46-3.38-18.49-9.27-22.25a1,1,0,0,0-.42-.52l-11-6.24,20.18-11.65S742.3,353.54,742.33,353.52ZM590.78,66.24l149,86L333.63,386.67l-148.94-86ZM183.68,302.42l149,86V406.7l-148.95-86Zm0,20.6,149,86V564.37l-14.32-8.27v-106a8.54,8.54,0,0,0-2.2-6.25,1.06,1.06,0,0,0-.35-.35l-.23-.14c-.13-.09-.23-.22-.36-.3s-.34-.12-.5-.2L186.06,368.49a1.07,1.07,0,0,0-.38-.13.89.89,0,0,0-.27-.15,5,5,0,0,0-1.73-.2Zm149,243.67v19.9l-14.32-8.27v-19.9Zm-30.71,40.46c-4-1.51-8.5-1.38-13.24.32h0a31.56,31.56,0,0,0-5.08,2.37,49.86,49.86,0,0,0-12.87,11.23V468.42l39.45-23.21a4.17,4.17,0,0,1,3.53-.57l.78.45c1.14.89,1.82,2.66,1.82,5V609.94a12.27,12.27,0,0,1-3,8l-.62.75C310.4,613,306.71,609,301.92,607.15Zm9.28,13.38-.46.53a15.19,15.19,0,0,0-6.3-4.67l-13-7.66a16.1,16.1,0,0,1,9.8.3C305.74,610.73,309.19,614.71,311.2,620.53ZM64,466.41a1.71,1.71,0,0,1,1.08.27l9,5.21c1.65.95,3,3.66,3,5.92v4.38a1,1,0,0,0,.14.48l-1.88,7.06v-9.87c0-3-1.78-6.35-4.06-7.66l-8.72-5Zm-1.67,33a7.56,7.56,0,0,1-3-5.93V470.55a2.4,2.4,0,0,1,.67-1.94l.15-.08a1.48,1.48,0,0,1,1.23.21l9,5.2c1.65.95,3,3.67,3,5.92v17.42l-2,7.55Zm3,42.38,126.84,73.37.09,0q-.28,3.06-.41,6.12L65,547.9C65.05,545.86,65.16,543.81,65.33,541.77ZM96.6,614.52l-.46-6.93,61.08,35.32-1,6Zm59.17,36.42a3.07,3.07,0,0,1-4.41,1.51L102.22,624a11.21,11.21,0,0,1-5.25-7ZM96,605.17l-.52-7.9,63.3,36.61-1.18,6.92Zm-.68-10.32L95,590.68c0-.7-.11-2-.19-3.69l65.46,37.86-1.18,6.92Zm-.57-10.24c-.09-2.2-.19-4.7-.28-7.19l67.29,38.92-1.09,6.39Zm-.37-9.56c-.12-3.26-.23-6.21-.29-8l69.24,40.05-1.21,7.13ZM67.1,611.69s-.06-.08-.09-.1c-1.34-1-2.11-3.14-2.11-5.83v-54.9c0-.22,0-.45,0-.68L92,565.86c.09,2.41.44,12.17.72,18.91a1,1,0,0,0,0,.81c.1,2.39.19,4.31.25,5.23l1.62,24.38a13.24,13.24,0,0,0,6.58,10.58l49.14,28.42a5.07,5.07,0,0,0,2.56.69,5.1,5.1,0,0,0,5-4.26l1.37-8.1h0l5.83-34.35,26.62,15.39c0,.59-.06,1.17-.06,1.76v54.89a12.51,12.51,0,0,0,.64,3.94Zm-1.55-72.12a105.61,105.61,0,0,1,2.93-16.07l24-90.14c1.52-7.13,5.82-13.82,10.7-16.64l78.16-46a4.29,4.29,0,0,1,3.45-.64,1,1,0,0,0,.17,0l.1.09,125.52,72.6a9.3,9.3,0,0,0-1.42.64l-78.15,46c-5.34,3.09-10,10.3-11.64,17.9l-24,90.09a108.21,108.21,0,0,0-2.9,15.56ZM237.3,664.19l-5.85,3.51-30.66,18.12c-1.75,1-3.35,1.17-4.6.45-1.56-.9-2.46-3.11-2.46-6.06V625.32A106.22,106.22,0,0,1,197.32,598l24-90.14c1.52-7.13,5.82-13.81,10.7-16.63l36.69-21.58v154a80.44,80.44,0,0,0-14,30.17l-17.42,10.43Zm11.17,14.69a.93.93,0,0,0-.43-.4c-4.4-2-7.57-6.59-9-13l17.11-10.25s.05,0,.08-.06l.05-.05a1.11,1.11,0,0,0,.33-.53h0c4.07-18.42,15.33-35.72,28-43a31.33,31.33,0,0,1,4.24-2l10,5.88a22.92,22.92,0,0,0-11,3.35c-9.19,5.31-17.71,16.29-22.8,29.36a64.21,64.21,0,0,0-4.61,22.92c0,7,1.53,12.89,4.28,17.18Zm39.38,11.65c-6.14,3.55-12,4.06-16.6,1.42-5.59-3.23-8.8-10.84-8.8-20.89a62.2,62.2,0,0,1,4.47-22.19c4.93-12.66,13.13-23.26,21.94-28.34A20.45,20.45,0,0,1,299,617.46a13.12,13.12,0,0,1,4.74.86l3.41,2a14.34,14.34,0,0,1,2.68,2.85c2.88,4,4.41,9.84,4.41,16.81C314.26,659.46,302.41,682.13,287.85,690.53Zm28.25-54.22A29.1,29.1,0,0,0,312,622.73c.54-.6,1.26-1.46,2.11-2.51.33-.4.59-.74.74-.91a14.27,14.27,0,0,0,3.51-9.37v-29.3l14.82,8.56h.05a.92.92,0,0,0,.91,0h.05l30.43-17.57,2.26,1.28a1,1,0,0,0,.67.44h.11l.75.43a22.26,22.26,0,0,0-11.55,3.32c-15.12,8.72-27.41,32.17-27.41,52.28,0,7,1.51,12.83,4.23,17.11Zm40.71,12.54c-6.15,3.55-12,4-16.6,1.43-5.59-3.23-8.8-10.85-8.8-20.89,0-19.47,11.84-42.14,26.4-50.54A20.65,20.65,0,0,1,368,575.77a12.66,12.66,0,0,1,6.41,1.66c5.59,3.23,8.8,10.84,8.8,20.89C383.21,617.78,371.37,640.45,356.81,648.85Zm27.87-43a55,55,0,0,0,.54-7.51c0-10.46-3.38-18.49-9.26-22.25a1,1,0,0,0-.43-.52l-6.74-3.83c.16-.94.33-1.89.53-2.83l55.95-32.31,4,2.3a22.29,22.29,0,0,0-11.55,3.32c-15.11,8.73-27.4,32.18-27.4,52.28,0,7,1.5,12.84,4.23,17.12Zm54.76-66.9v4.28a14.88,14.88,0,0,0-2.53-2,1,1,0,0,0-.43-.53l-9.19-5.22,3-1.75Zm-7.11-6.42,173.22-100,8.12,4.73-173.23,100ZM417.76,614c-6.14,3.55-12,4-16.6,1.42-5.59-3.23-8.79-10.84-8.79-20.89,0-19.46,11.84-42.13,26.4-50.54A20.65,20.65,0,0,1,429,540.86a12.68,12.68,0,0,1,6.41,1.66c5.59,3.23,8.8,10.85,8.8,20.89C444.17,582.87,432.32,605.55,417.76,614Zm26.52-62.7a23.08,23.08,0,0,0-2.83-5.64v-6.68l172.89-99.76v13.95ZM611.54,466.5a16,16,0,0,1-5.19-6.45l9.49-5.48a1,1,0,0,0,.51-.87V437.43c0-.05,0-.1-.05-.16a1,1,0,0,0-.45-1.09l-8.3-4.83,51.79-29.89,4.36,2.48h0l1.19.68A22.3,22.3,0,0,0,653.37,408c-15.11,8.72-27.4,32.17-27.4,52.27,0,7,1.5,12.84,4.23,17.12Zm49.82-66.21,2.72-1.57c-.21.94-.39,1.87-.56,2.81Zm-8,79.41c-6.14,3.55-12,4.06-16.6,1.42-5.59-3.22-8.79-10.84-8.79-20.89,0-19.46,11.84-42.13,26.4-50.53a20.67,20.67,0,0,1,10.19-3.09,12.69,12.69,0,0,1,6.41,1.67c5.59,3.22,8.8,10.84,8.8,20.89C679.78,448.63,667.93,471.3,653.37,479.7Zm87.36-85.44c0,19.46-11.84,42.13-26.4,50.54-6.15,3.55-12,4.05-16.6,1.42-5.59-3.23-8.8-10.84-8.8-20.89,0-19.46,11.84-42.13,26.4-50.54a20.65,20.65,0,0,1,10.19-3.08,12.66,12.66,0,0,1,6.41,1.66C737.53,376.6,740.73,384.21,740.73,394.26Zm-14.85-24.53a22.26,22.26,0,0,0-11.55,3.32c-15.11,8.73-27.41,32.18-27.41,52.28,0,7,1.51,12.84,4.23,17.12l-9.91-5.77a53.46,53.46,0,0,0,.55-7.51c0-10.46-3.39-18.49-9.27-22.25a1,1,0,0,0-.43-.52l-6.72-3.83c.25-1.55.55-3.13.93-4.71a1.2,1.2,0,0,0,0-.42l53.77-31.05s.09.09.15.13Zm14.85-17.58L367.91,567.38l-.05,0-33.22,19.18v-19.9L740.73,332.25Zm0-145.9L707,225.74v2.32l33.76-19.49V231.8L707,251.29v2.32l33.76-19.49v95.81L334.64,564.37V546.93l13.06-7.54v-2.32l-13.06,7.54V521.38l13.06-7.54v-2.32l-13.06,7.54V409L740.73,174.58Zm0-34L334.64,406.7V388.41L740.73,154Z"/><path class="cls-9" d="M366.59,570.47l.44-.26c0,.15-.06.31-.08.46Z"/><path class="cls-9" d="M262.77,580.22A4.21,4.21,0,0,0,261,576.4a3.28,3.28,0,0,0-3.39.19L246,583.28c-2.33,1.34-4.16,4.79-4.16,7.85a4.21,4.21,0,0,0,1.77,3.82,2.8,2.8,0,0,0,1.44.38,3.92,3.92,0,0,0,2-.57l11.59-6.69C260.94,586.73,262.77,583.28,262.77,580.22Zm-5.16,6.11L246,593a1.48,1.48,0,0,1-1.38.19,2.37,2.37,0,0,1-.77-2.08c0-2.33,1.44-5.13,3.15-6.11l11.59-6.69a2,2,0,0,1,.94-.3.82.82,0,0,1,.44.11,2.37,2.37,0,0,1,.77,2.08C260.76,582.55,259.32,585.34,257.61,586.33Z"/><path class="cls-9" d="M215.49,502.22a1.91,1.91,0,0,0,0-.39,1.15,1.15,0,0,0-.06-.17,1.51,1.51,0,0,0-.09-.18,1.49,1.49,0,0,0-.12-.14.93.93,0,0,0-.15-.13l0,0L97.7,433.31a.61.61,0,0,0-.12-.05l-.12-.05H97a.81.81,0,0,0-.22.07l-.14.07a1.07,1.07,0,0,0-.16.14l-.12.13s0,0,0,.06a.69.69,0,0,0,0,.13s0,.07,0,.12L72.74,521.31s0,0,0,.07a1.27,1.27,0,0,0,0,.2,1.09,1.09,0,0,0,0,.18,1,1,0,0,0,.06.18.91.91,0,0,0,.09.17.57.57,0,0,0,.12.15.93.93,0,0,0,.15.13l0,.05,117.32,67.85s.06,0,.08,0a1.11,1.11,0,0,0,.16.07.75.75,0,0,0,.26,0h0a1,1,0,0,0,.55-.19.8.8,0,0,0,.13-.13,1.07,1.07,0,0,0,.19-.18,1.39,1.39,0,0,0,.06-.19s0,0,0-.06l23.49-87.39S215.48,502.25,215.49,502.22Zm-25.1,85.68L74.88,521.08l23-85.38,115.51,66.82Z"/><path class="cls-9" d="M229.8,596.71l.07,0,.11,0s0,0,.07-.06l3.27-1.85s0,0,.06,0l.06,0,.16-.09a1.05,1.05,0,0,0,.31-.28,4,4,0,0,0,1.56-3.46V579.08L255.6,567.5c4-2.32,7.17-8.3,7.17-13.62V489.65c0-2.95-1-5.24-2.81-6.27a5.25,5.25,0,0,0-5.37.35l-21,12.11c-3.16,1.82-5.89,6.17-6.95,11.07-4.05,18.81-19.37,74.83-19.54,75.49-.68,3.9.17,7.1,2.27,8.57a4.38,4.38,0,0,0,2.52.79,6.37,6.37,0,0,0,3.16-1l1.19-.68a6.26,6.26,0,0,0,1.36,1.1l9,5.21a3.89,3.89,0,0,0,1.91.56,2.8,2.8,0,0,0,1.17-.28Zm-15.71-7.64a3.28,3.28,0,0,1-3.53.25c-1.42-1-2-3.51-1.46-6.48.05-.2,1.91-7,4.49-16.59v17.32a9.83,9.83,0,0,0,1.47,4.94Zm19.37,1.75a2.2,2.2,0,0,1-1.13,2.15l-.65.37c0-.16,0-.3,0-.46V570c0-3-1.79-6.35-4.06-7.67l-8.72-5,1.38-.75a1.59,1.59,0,0,1,1.08.27l9,5.2c1.66,1,3.06,3.67,3.06,5.93Zm-4.81-83.48c.93-4.31,3.33-8.23,6-9.76l21-12.11a3.4,3.4,0,0,1,3.36-.35c1.14.66,1.8,2.31,1.8,4.53v64.23c0,4.59-2.77,9.91-6.17,11.88l-19.12,11v-8.84c0-3-1.79-6.36-4.06-7.67l-9-5.2a3.63,3.63,0,0,0-2-.5,1,1,0,0,0-.8.06l-3.41,1.85C220.84,539.06,226.43,517.64,228.65,507.34Zm1.06,85.54a2.4,2.4,0,0,1-.69,2l-.1.06a1.48,1.48,0,0,1-1.26-.2l-9-5.21a4.56,4.56,0,0,1-1.28-1.15h0a8,8,0,0,1-1.77-4.77V560.66a2.44,2.44,0,0,1,.67-1.95l.15-.08a1.53,1.53,0,0,1,1.22.21l9,5.2a7.54,7.54,0,0,1,3.06,5.93Z"/><path class="cls-9" d="M184.21,627l-13.77-8a2.78,2.78,0,0,0-2.79-.14A3.4,3.4,0,0,0,166.2,622v36.92a7.52,7.52,0,0,0,3.23,6.08h0l13.77,8a3.23,3.23,0,0,0,1.59.45,2.39,2.39,0,0,0,1.2-.31,3.39,3.39,0,0,0,1.45-3.07V633A7.55,7.55,0,0,0,184.21,627Zm1.22,43c0,.79-.24,1.21-.44,1.32s-.63,0-.78-.14l-13.77-7.95a5.59,5.59,0,0,1-2.23-4.34V622c0-.8.24-1.22.45-1.34s.62.06.77.14l13.77,8a5.58,5.58,0,0,1,2.23,4.33Z"/><path class="cls-9" d="M177.32,627.76a5.33,5.33,0,0,0-5.45-.36c-1.82,1.05-2.86,3.37-2.86,6.37,0,5.41,3.21,11.5,7.31,13.86a6.37,6.37,0,0,0,3.21,1,4.37,4.37,0,0,0,2.24-.6c1.82-1,2.86-3.36,2.86-6.37C184.63,636.21,181.42,630.12,177.32,627.76Zm3.45,18.49a3.47,3.47,0,0,1-3.45-.36c-3.47-2-6.3-7.44-6.3-12.12,0-2.26.68-3.95,1.85-4.63a2.5,2.5,0,0,1,1.25-.32,4.6,4.6,0,0,1,2.2.68c3.47,2,6.3,7.44,6.3,12.12C182.62,643.89,181.94,645.57,180.77,646.25Z"/><path class="cls-9" d="M177.32,650.21a4.09,4.09,0,0,0-4.19-.26c-1.39.8-2.18,2.56-2.18,4.81,0,4,2.36,8.43,5.37,10.17a4.9,4.9,0,0,0,2.44.72,3.47,3.47,0,0,0,1.75-.46c1.39-.8,2.18-2.55,2.18-4.81C182.69,656.42,180.33,652,177.32,650.21Zm2.18,13.24a2.23,2.23,0,0,1-2.18-.26C175,661.83,173,658,173,654.76c0-1.49.44-2.64,1.18-3.07a1.44,1.44,0,0,1,.75-.19,3,3,0,0,1,1.43.45c2.36,1.37,4.36,5.23,4.36,8.43C180.68,661.87,180.24,663,179.5,663.45Z"/><path class="cls-9" d="M86,570.43l-13.78-7.95a2.71,2.71,0,0,0-2.78-.14A3.37,3.37,0,0,0,68,565.41v36.93a7.55,7.55,0,0,0,3.23,6.08l13.77,8a3.24,3.24,0,0,0,1.58.46,2.43,2.43,0,0,0,1.21-.32,3.37,3.37,0,0,0,1.44-3.07V576.51A7.51,7.51,0,0,0,86,570.43Zm1.21,43c0,.79-.23,1.21-.44,1.33s-.62,0-.77-.14l-13.78-8A5.64,5.64,0,0,1,70,602.34V565.41c0-.8.24-1.21.44-1.33a.36.36,0,0,1,.21-.05,1.28,1.28,0,0,1,.57.19L85,572.17a5.58,5.58,0,0,1,2.22,4.34Z"/><path class="cls-9" d="M79.07,571.22a5.35,5.35,0,0,0-5.45-.36c-1.82,1-2.86,3.37-2.86,6.37,0,5.41,3.21,11.5,7.3,13.87a6.51,6.51,0,0,0,3.21.95,4.53,4.53,0,0,0,2.25-.59c1.81-1.05,2.85-3.37,2.85-6.37C86.37,579.68,83.17,573.59,79.07,571.22Zm3.45,18.5a3.52,3.52,0,0,1-3.45-.36c-3.47-2-6.3-7.45-6.3-12.13,0-2.26.68-4,1.85-4.63a2.48,2.48,0,0,1,1.25-.32,4.52,4.52,0,0,1,2.19.68c3.48,2,6.3,7.45,6.3,12.13C84.36,587.35,83.69,589,82.52,589.72Z"/><path class="cls-9" d="M79.07,593.67a4.11,4.11,0,0,0-4.19-.26c-1.39.81-2.19,2.56-2.19,4.81,0,4,2.36,8.44,5.37,10.17a4.85,4.85,0,0,0,2.44.73,3.49,3.49,0,0,0,1.76-.47c1.38-.8,2.18-2.55,2.18-4.81C84.44,599.88,82.08,595.41,79.07,593.67Zm2.18,13.24a2.21,2.21,0,0,1-2.18-.26c-2.37-1.36-4.37-5.22-4.37-8.43,0-1.49.44-2.64,1.18-3.06a1.49,1.49,0,0,1,.76-.2,2.94,2.94,0,0,1,1.42.45c2.37,1.37,4.37,5.23,4.37,8.43C82.43,605.34,82,606.48,81.25,606.91Z"/><path class="cls-9" d="M295.27,641.09c-2.1-1.21-4.74-1-7.42.51-5.68,3.28-10.29,12.06-10.29,19.58,0,4.16,1.41,7.37,3.89,8.8a6,6,0,0,0,3,.79,8.91,8.91,0,0,0,4.4-1.31c5.67-3.28,10.29-12.06,10.29-19.58C299.15,645.72,297.74,642.51,295.27,641.09Zm-7.42,26.63c-2,1.17-3.94,1.35-5.4.51-1.83-1.05-2.88-3.62-2.88-7.05,0-6.88,4.16-14.88,9.29-17.84a6.94,6.94,0,0,1,3.39-1,3.94,3.94,0,0,1,2,.52c1.83,1,2.88,3.62,2.88,7C297.14,656.76,293,664.76,287.85,667.72Z"/><path class="cls-9" d="M300.52,630c-3.56-2.06-8.07-1.72-12.67.94-10.1,5.83-18.32,21.5-18.32,34.92,0,7.27,2.43,12.84,6.66,15.28a10,10,0,0,0,5.08,1.33,15.35,15.35,0,0,0,7.59-2.27c10.1-5.83,18.32-21.5,18.32-34.92C307.18,638,304.75,632.4,300.52,630Zm-12.67,48.46c-4,2.29-7.74,2.62-10.65.94-3.6-2.07-5.66-7-5.66-13.54,0-12.78,7.77-27.67,17.32-33.18a13.31,13.31,0,0,1,6.58-2,8,8,0,0,1,4.08,1.06c3.59,2.07,5.65,7,5.65,13.54C305.17,658,297.4,672.91,287.85,678.42Z"/><path class="cls-9" d="M288.36,639.71a4.43,4.43,0,0,0,1.84-3.52c0-1.35-.83-2-1.84-1.39a4.41,4.41,0,0,0-1.85,3.52C286.51,639.67,287.34,640.3,288.36,639.71Z"/><path class="cls-9" d="M288.36,671.35a4.41,4.41,0,0,0-1.85,3.52c0,1.35.83,2,1.85,1.39a4.43,4.43,0,0,0,1.84-3.52C290.2,671.39,289.37,670.76,288.36,671.35Z"/><path class="cls-9" d="M274.65,661a4.39,4.39,0,0,0-1.84,3.52c0,1.35.82,2,1.84,1.39a4.4,4.4,0,0,0,1.84-3.52C276.49,661,275.67,660.4,274.65,661Z"/><path class="cls-9" d="M302.06,650.07a4.4,4.4,0,0,0,1.84-3.52c0-1.35-.82-2-1.84-1.39a4.43,4.43,0,0,0-1.84,3.52C300.22,650,301.05,650.66,302.06,650.07Z"/><path class="cls-9" d="M280,649.19c.72-1.38.72-2.93,0-3.48s-1.89.13-2.61,1.51-.72,2.93,0,3.47S279.25,650.56,280,649.19Z"/><path class="cls-9" d="M296.75,661.87c-.72,1.38-.72,2.93,0,3.47s1.88-.12,2.6-1.5.72-2.93,0-3.47S297.46,660.5,296.75,661.87Z"/><path class="cls-9" d="M277.36,673.06c-.72,1.38-.72,2.93,0,3.48s1.89-.13,2.61-1.51.72-2.93,0-3.47S278.08,671.69,277.36,673.06Z"/><path class="cls-9" d="M296.75,636c-.72,1.37-.72,2.93,0,3.47s1.88-.13,2.6-1.5.72-2.93,0-3.48S297.46,634.65,296.75,636Z"/><path class="cls-9" d="M660.79,430.26c-2.11-1.22-4.74-1-7.42.51-5.67,3.28-10.29,12.06-10.29,19.59,0,4.15,1.41,7.36,3.88,8.78a6,6,0,0,0,3,.8,8.91,8.91,0,0,0,4.4-1.31c5.68-3.28,10.29-12.06,10.29-19.58C664.67,434.89,663.26,431.68,660.79,430.26Zm-7.42,26.63c-2,1.17-4,1.36-5.4.51-1.83-1.06-2.88-3.62-2.88-7,0-6.89,4.16-14.89,9.29-17.85a6.94,6.94,0,0,1,3.39-1,3.94,3.94,0,0,1,2,.52c1.83,1.05,2.88,3.62,2.88,7.05C662.66,445.93,658.5,453.93,653.37,456.89Z"/><path class="cls-9" d="M666,419.13c-3.57-2.06-8.06-1.72-12.67.94-10.1,5.83-18.32,21.5-18.32,34.92,0,7.27,2.43,12.84,6.66,15.28a10,10,0,0,0,5.08,1.33,15.35,15.35,0,0,0,7.59-2.27c10.1-5.83,18.32-21.5,18.32-34.92C672.7,427.14,670.27,421.57,666,419.13Zm-12.67,48.46c-4,2.29-7.74,2.62-10.65.94-3.6-2.07-5.66-7-5.66-13.54,0-12.78,7.77-27.67,17.32-33.18a13.31,13.31,0,0,1,6.58-2,8,8,0,0,1,4.07,1.06c3.6,2.07,5.66,7,5.66,13.54C670.69,447.19,662.92,462.08,653.37,467.59Z"/><path class="cls-9" d="M653.88,428.88a4.43,4.43,0,0,0,1.84-3.52c0-1.35-.83-2-1.84-1.39a4.41,4.41,0,0,0-1.85,3.52C652,428.84,652.86,429.47,653.88,428.88Z"/><path class="cls-9" d="M653.88,460.52A4.41,4.41,0,0,0,652,464c0,1.35.83,2,1.85,1.39a4.43,4.43,0,0,0,1.84-3.52C655.72,460.56,654.89,459.93,653.88,460.52Z"/><path class="cls-9" d="M640.17,450.16a4.4,4.4,0,0,0-1.84,3.52c0,1.35.82,2,1.84,1.39a4.4,4.4,0,0,0,1.84-3.52C642,450.19,641.19,449.57,640.17,450.16Z"/><path class="cls-9" d="M667.58,439.24a4.39,4.39,0,0,0,1.84-3.52c0-1.35-.82-2-1.84-1.39a4.4,4.4,0,0,0-1.84,3.52C665.74,439.21,666.56,439.83,667.58,439.24Z"/><path class="cls-9" d="M645.49,438.36c.71-1.38.71-2.93,0-3.47s-1.89.12-2.61,1.5-.72,2.93,0,3.47S644.77,439.73,645.49,438.36Z"/><path class="cls-9" d="M662.26,451c-.71,1.38-.71,2.93,0,3.48s1.89-.13,2.61-1.51.72-2.93,0-3.47S663,449.67,662.26,451Z"/><path class="cls-9" d="M642.88,462.23c-.72,1.38-.72,2.93,0,3.48s1.89-.13,2.61-1.51.71-2.93,0-3.47S643.6,460.86,642.88,462.23Z"/><path class="cls-9" d="M662.26,425.2c-.71,1.37-.71,2.93,0,3.47s1.89-.13,2.61-1.5.72-2.93,0-3.48S663,423.82,662.26,425.2Z"/><path class="cls-9" d="M714.33,395.87c-5.68,3.28-10.3,12.06-10.3,19.58,0,4.16,1.42,7.36,3.89,8.79a6,6,0,0,0,3,.79,8.87,8.87,0,0,0,4.39-1.31c5.68-3.27,10.3-12.06,10.3-19.58,0-4.16-1.42-7.36-3.89-8.79C719.64,394.14,717,394.32,714.33,395.87Zm9.29,8.27c0,6.88-4.17,14.88-9.29,17.84-2,1.18-4,1.36-5.41.52-1.83-1.06-2.88-3.63-2.88-7.05,0-6.88,4.17-14.88,9.29-17.84a6.92,6.92,0,0,1,3.39-1,4,4,0,0,1,2,.52C722.57,398.15,723.62,400.72,723.62,404.14Z"/><path class="cls-9" d="M714.33,385.16C704.23,391,696,406.66,696,420.08c0,7.27,2.43,12.84,6.67,15.29a10,10,0,0,0,5.08,1.33,15.29,15.29,0,0,0,7.58-2.27c10.11-5.83,18.33-21.5,18.33-34.92,0-7.27-2.43-12.84-6.66-15.29C723.43,382.17,718.94,382.5,714.33,385.16Zm17.32,14.35c0,12.78-7.77,27.66-17.32,33.18-4,2.29-7.75,2.62-10.66.94-3.59-2.08-5.66-7-5.66-13.55,0-12.78,7.77-27.66,17.32-33.18a13.42,13.42,0,0,1,6.58-2,8.1,8.1,0,0,1,4.08,1C729.58,388,731.65,393,731.65,399.51Z"/><path class="cls-9" d="M714.83,394a4.42,4.42,0,0,0,1.84-3.52c0-1.36-.82-2-1.84-1.39a4.38,4.38,0,0,0-1.84,3.51C713,393.94,713.81,394.56,714.83,394Z"/><ellipse class="cls-9" cx="714.83" cy="428.07" rx="2.83" ry="1.6" transform="translate(40.99 918.14) rotate(-66.94)"/><path class="cls-9" d="M701.12,415.25a4.44,4.44,0,0,0-1.84,3.52c0,1.36.83,2,1.84,1.39a4.39,4.39,0,0,0,1.85-3.51C703,415.29,702.14,414.67,701.12,415.25Z"/><path class="cls-9" d="M728.54,404.34a4.43,4.43,0,0,0,1.84-3.52c0-1.36-.83-2-1.84-1.39A4.39,4.39,0,0,0,726.7,403C726.7,404.3,727.52,404.93,728.54,404.34Z"/><path class="cls-9" d="M706.44,403.45c.72-1.37.72-2.93,0-3.47s-1.88.13-2.6,1.5-.72,2.93,0,3.48S705.72,404.83,706.44,403.45Z"/><path class="cls-9" d="M723.22,416.14c-.72,1.37-.72,2.93,0,3.47s1.89-.13,2.6-1.5.72-2.93,0-3.48S723.94,414.76,723.22,416.14Z"/><path class="cls-9" d="M703.84,427.33c-.72,1.37-.72,2.93,0,3.47s1.88-.13,2.6-1.5.72-2.93,0-3.47S704.56,426,703.84,427.33Z"/><path class="cls-9" d="M725.82,392.26c.72-1.37.72-2.93,0-3.47s-1.88.13-2.6,1.5-.72,2.93,0,3.48S725.11,393.64,725.82,392.26Z"/><path class="cls-9" d="M364.22,599.41c-2.1-1.21-4.74-1-7.41.51-5.68,3.28-10.3,12.07-10.3,19.59,0,4.16,1.42,7.36,3.89,8.79a6,6,0,0,0,3,.79,8.87,8.87,0,0,0,4.39-1.31c5.68-3.28,10.3-12.06,10.3-19.58C368.11,604,366.69,600.83,364.22,599.41ZM356.81,626c-2,1.17-3.94,1.36-5.41.52-1.83-1.06-2.88-3.63-2.88-7,0-6.88,4.17-14.89,9.29-17.84a6.89,6.89,0,0,1,3.39-1,3.94,3.94,0,0,1,2,.52c1.84,1.06,2.89,3.63,2.89,7.05C366.1,615.08,361.93,623.08,356.81,626Z"/><path class="cls-9" d="M369.47,588.28c-3.55-2.06-8.05-1.72-12.66.94-10.11,5.83-18.33,21.5-18.33,34.92,0,7.27,2.43,12.84,6.67,15.29a10.1,10.1,0,0,0,5.07,1.33,15.4,15.4,0,0,0,7.59-2.27c10.11-5.84,18.33-21.5,18.33-34.93C376.14,596.29,373.71,590.72,369.47,588.28Zm-12.66,48.46c-4,2.29-7.75,2.63-10.66.94-3.6-2.07-5.66-7-5.66-13.54,0-12.78,7.77-27.67,17.32-33.18a13.34,13.34,0,0,1,6.58-2,8,8,0,0,1,4.08,1.06c3.59,2.08,5.66,7,5.66,13.54C374.13,616.35,366.36,631.23,356.81,636.74Z"/><path class="cls-9" d="M357.31,598a4.4,4.4,0,0,0,1.84-3.52c0-1.35-.82-2-1.84-1.39a4.4,4.4,0,0,0-1.84,3.52C355.47,598,356.29,598.62,357.31,598Z"/><path class="cls-9" d="M357.31,629.67a4.4,4.4,0,0,0-1.84,3.52c0,1.36.82,2,1.84,1.39a4.39,4.39,0,0,0,1.84-3.52C359.15,629.71,358.33,629.08,357.31,629.67Z"/><path class="cls-9" d="M343.6,619.31a4.43,4.43,0,0,0-1.84,3.52c0,1.35.83,2,1.84,1.39a4.41,4.41,0,0,0,1.85-3.52C345.45,619.35,344.62,618.72,343.6,619.31Z"/><path class="cls-9" d="M371,608.39a4.41,4.41,0,0,0,1.84-3.51c0-1.36-.83-2-1.84-1.4a4.43,4.43,0,0,0-1.85,3.52C369.17,608.36,370,609,371,608.39Z"/><path class="cls-9" d="M348.92,607.51c.72-1.37.72-2.93,0-3.47s-1.88.13-2.6,1.5-.72,2.93,0,3.47S348.2,608.88,348.92,607.51Z"/><path class="cls-9" d="M365.7,620.19c-.72,1.38-.72,2.93,0,3.48s1.88-.13,2.6-1.51.72-2.93,0-3.47S366.42,618.82,365.7,620.19Z"/><path class="cls-9" d="M346.32,631.39c-.72,1.37-.72,2.92,0,3.47s1.88-.13,2.6-1.51.72-2.92,0-3.47S347,630,346.32,631.39Z"/><path class="cls-9" d="M365.7,594.35c-.72,1.37-.72,2.93,0,3.47s1.88-.13,2.6-1.5.72-2.93,0-3.47S366.42,593,365.7,594.35Z"/><path class="cls-9" d="M425.18,564.5c-2.11-1.21-4.74-1-7.42.52-5.67,3.28-10.29,12.06-10.29,19.58,0,4.16,1.41,7.36,3.89,8.79a5.91,5.91,0,0,0,3,.79,8.78,8.78,0,0,0,4.4-1.31c5.68-3.27,10.29-12.06,10.29-19.58C429.06,569.13,427.65,565.93,425.18,564.5Zm-7.42,26.63c-2,1.18-3.95,1.36-5.4.52-1.83-1.06-2.88-3.63-2.88-7,0-6.88,4.17-14.88,9.29-17.84a6.84,6.84,0,0,1,3.39-1,4,4,0,0,1,2,.51c1.83,1.06,2.88,3.63,2.88,7C427.05,580.17,422.89,588.18,417.76,591.13Z"/><path class="cls-9" d="M430.43,553.38c-3.56-2.06-8.06-1.73-12.67.93-10.1,5.84-18.32,21.5-18.32,34.93,0,7.26,2.43,12.84,6.66,15.28a10,10,0,0,0,5.08,1.33,15.35,15.35,0,0,0,7.59-2.27c10.1-5.83,18.32-21.5,18.32-34.92C437.09,561.39,434.66,555.82,430.43,553.38Zm-12.67,48.46c-4,2.28-7.74,2.62-10.65.94-3.6-2.08-5.66-7-5.66-13.54,0-12.79,7.77-27.67,17.32-33.18a13.31,13.31,0,0,1,6.58-2,8,8,0,0,1,4.07,1.06c3.6,2.07,5.66,7,5.66,13.54C435.08,581.44,427.31,596.33,417.76,601.84Z"/><path class="cls-9" d="M418.27,563.13a4.44,4.44,0,0,0,1.84-3.52c0-1.36-.83-2-1.84-1.39a4.4,4.4,0,0,0-1.85,3.52C416.42,563.09,417.25,563.72,418.27,563.13Z"/><path class="cls-9" d="M418.27,594.77a4.4,4.4,0,0,0-1.85,3.52c0,1.35.83,2,1.85,1.39a4.43,4.43,0,0,0,1.84-3.52C420.11,594.8,419.28,594.18,418.27,594.77Z"/><path class="cls-9" d="M404.56,584.41a4.38,4.38,0,0,0-1.84,3.51c0,1.36.82,2,1.84,1.4a4.42,4.42,0,0,0,1.84-3.52C406.4,584.44,405.58,583.82,404.56,584.41Z"/><path class="cls-9" d="M432,573.49a4.4,4.4,0,0,0,1.84-3.52c0-1.36-.82-2-1.84-1.39a4.4,4.4,0,0,0-1.84,3.52C430.13,573.45,431,574.08,432,573.49Z"/><path class="cls-9" d="M409.88,572.61c.71-1.38.71-2.93,0-3.48s-1.89.13-2.61,1.51-.72,2.93,0,3.47S409.16,574,409.88,572.61Z"/><path class="cls-9" d="M426.65,585.29c-.71,1.37-.71,2.93,0,3.47s1.89-.13,2.61-1.5.72-2.93,0-3.47S427.37,583.92,426.65,585.29Z"/><path class="cls-9" d="M407.27,596.48c-.72,1.38-.72,2.93,0,3.47s1.89-.13,2.61-1.5.71-2.93,0-3.47S408,595.11,407.27,596.48Z"/><path class="cls-9" d="M426.65,559.45c-.71,1.37-.71,2.92,0,3.47s1.89-.13,2.61-1.51.72-2.92,0-3.47S427.37,558.07,426.65,559.45Z"/><path class="cls-9" d="M716.12,337.39a1,1,0,0,0,.5.14,1,1,0,0,0,.5-.14l15.8-9.12a1,1,0,0,0,.51-.87V315.8a1,1,0,0,0-1.51-.87l-15.8,9.12a1,1,0,0,0-.5.87v11.6A1,1,0,0,0,716.12,337.39Zm1.51-11.89,13.79-8v9.28l-13.79,8Z"/><path class="cls-9" d="M245.27,639.23l-15.8,9.12a1,1,0,0,0-.51.87v11.6a1,1,0,0,0,.51.87,1,1,0,0,0,1,0l15.8-9.12a1,1,0,0,0,.5-.88V640.1a1,1,0,0,0-.5-.87A1,1,0,0,0,245.27,639.23Zm-.51,11.88-13.78,8V649.8l13.78-8Z"/><path class="cls-9" d="M100.47,422.74l1.16.67a1,1,0,0,0,.5.13,1,1,0,0,0,.87-.5,1,1,0,0,0-.36-1.38l-1.17-.67a1,1,0,0,0-1,1.75Z"/><path class="cls-9" d="M190.4,474.64l2.34,1.34a.93.93,0,0,0,.5.14,1,1,0,0,0,.5-1.88l-2.33-1.34a1,1,0,0,0-1.38.36A1,1,0,0,0,190.4,474.64Z"/><path class="cls-9" d="M141.34,446.32l2.34,1.35a1,1,0,0,0,.5.14,1,1,0,0,0,.87-.51,1,1,0,0,0-.36-1.37l-2.34-1.35A1,1,0,0,0,141,445,1,1,0,0,0,141.34,446.32Z"/><path class="cls-9" d="M134.34,442.28l2.33,1.35a1,1,0,0,0,.5.13,1,1,0,0,0,.88-.5,1,1,0,0,0-.37-1.37l-2.34-1.35a1,1,0,1,0-1,1.74Z"/><path class="cls-9" d="M155.36,454.41l2.34,1.35a1,1,0,1,0,1-1.74l-2.33-1.35a1,1,0,1,0-1,1.74Z"/><path class="cls-9" d="M148.35,450.37l2.34,1.35a1,1,0,0,0,.5.13,1,1,0,0,0,.5-1.87l-2.33-1.35a1,1,0,0,0-1,1.74Z"/><path class="cls-9" d="M113.31,430.15l2.34,1.34a.93.93,0,0,0,.5.14,1,1,0,0,0,.5-1.88l-2.33-1.35a1,1,0,1,0-1,1.75Z"/><path class="cls-9" d="M120.32,434.19l2.34,1.35a1,1,0,0,0,.5.13,1,1,0,0,0,.5-1.87l-2.34-1.35a1,1,0,0,0-1,1.74Z"/><path class="cls-9" d="M127.33,438.23l2.33,1.35a1.06,1.06,0,0,0,.51.14,1,1,0,0,0,.5-1.88l-2.34-1.35a1,1,0,0,0-1.37.37A1,1,0,0,0,127.33,438.23Z"/><path class="cls-9" d="M211.43,486.77l2.33,1.35a1,1,0,0,0,.5.13,1,1,0,0,0,.88-.5,1,1,0,0,0-.37-1.37L212.43,485a1,1,0,1,0-1,1.74Z"/><path class="cls-9" d="M204.42,482.73l2.33,1.34a1.06,1.06,0,0,0,.51.14,1,1,0,0,0,.5-1.88L205.42,481a1,1,0,0,0-1,1.75Z"/><path class="cls-9" d="M162.37,458.46l2.33,1.35a1,1,0,0,0,.51.13,1,1,0,0,0,.87-.5,1,1,0,0,0-.37-1.37l-2.34-1.35a1,1,0,0,0-1,1.74Z"/><path class="cls-9" d="M197.41,478.68l2.34,1.35a1,1,0,0,0,.5.13,1,1,0,0,0,.5-1.87l-2.34-1.35a1,1,0,1,0-1,1.74Z"/><path class="cls-9" d="M106.3,426.1l2.34,1.35a1,1,0,0,0,.5.13,1,1,0,0,0,.5-1.87l-2.33-1.35a1,1,0,0,0-1,1.74Z"/><path class="cls-9" d="M169.38,462.5l2.33,1.35a1,1,0,0,0,.5.14,1,1,0,0,0,.88-.51,1,1,0,0,0-.37-1.37l-2.34-1.35a1,1,0,0,0-1,1.74Z"/><path class="cls-9" d="M176.38,466.55l2.34,1.35a1,1,0,0,0,.5.13,1,1,0,0,0,.51-1.87l-2.34-1.35a1,1,0,0,0-1,1.74Z"/><path class="cls-9" d="M183.39,470.59l2.34,1.35a1,1,0,0,0,.5.13,1,1,0,0,0,.5-1.87l-2.33-1.35a1,1,0,0,0-1,1.74Z"/><path class="cls-9" d="M218.43,490.81l1.17.67a.9.9,0,0,0,.5.14,1,1,0,0,0,.5-1.88l-1.16-.67a1,1,0,0,0-1.37.37A1,1,0,0,0,218.43,490.81Z"/><path class="cls-9" d="M347.73,559a1,1,0,0,1-1-1V400.12c0-.55,2-.55,2,0V558A1,1,0,0,1,347.73,559Z"/><path class="cls-9" d="M707,351.52a1,1,0,0,1-1-1V193.1a1,1,0,0,1,2,0V350.51A1,1,0,0,1,707,351.52Z"/><path class="cls-9" d="M348,419.11a1,1,0,0,1-.5-1.88L706.5,210a1,1,0,0,1,1.37.37,1,1,0,0,1-.36,1.37L348.54,419A1,1,0,0,1,348,419.11Z"/><path class="cls-2" d="M105,499.08a1,1,0,0,1-.87-.51,1,1,0,0,1,.37-1.37l37-21.18a1,1,0,0,1,1.37.37,1,1,0,0,1-.37,1.38l-37,21.17A.93.93,0,0,1,105,499.08Z"/><path class="cls-2" d="M112.44,504.67a1,1,0,0,1-.87-.5,1,1,0,0,1,.37-1.38l28.27-16.18a1,1,0,1,1,1,1.74l-28.27,16.19A1,1,0,0,1,112.44,504.67Z"/></svg>