<svg id="Capa_1" data-name="Capa 1" xmlns="http://www.w3.org/2000/svg" viewBox="0 0 1080 1080"><defs><style>.cls-1{fill:#c1b8ca;}.cls-2{fill:#fff;}.cls-3{fill:#1f1f1f;}.cls-4{fill:#3fbddb;}.cls-5{fill:#353435;}</style></defs><ellipse class="cls-1" cx="410.82" cy="846.46" rx="149.8" ry="77.74"/><path class="cls-2" d="M460.58,305.71s14.55,37.19,24.9,60.8,17.25,39.78,11,52.58c-5.79,12-17.89,21-44.48-20.66s-29.75-79.27-29.75-79.27Z"/><path class="cls-3" d="M484.39,431.82c-9.59,0-20.93-10.46-34.62-31.94-26.64-41.78-30-78.93-30.18-80.49a2.71,2.71,0,0,1,1.8-2.78l38.29-13.45a2.71,2.71,0,0,1,3.42,1.56c.14.37,14.65,37.41,24.86,60.7,10.36,23.64,17.84,40.72,11,54.86-3.56,7.31-8.2,11.2-13.82,11.52C484.9,431.82,484.64,431.82,484.39,431.82ZM425.22,321c1.12,8.35,6.71,40.86,29.11,76,15.83,24.84,25,29.63,30.5,29.42,3.51-.2,6.62-3.06,9.26-8.49,5.76-11.88-1.31-28-11.09-50.32-8.72-19.92-20.57-49.81-24-58.47Z"/><path class="cls-4" d="M412.08,252.78s22.26-11.68,40,15.72c12.6,19.5,17.72,51.16,17.72,51.16S445,336.41,419.88,331.78C410.63,323.14,393.74,259.71,412.08,252.78Z"/><path class="cls-3" d="M429,335.3a53.19,53.19,0,0,1-9.66-.86,2.76,2.76,0,0,1-1.35-.68c-8.33-7.79-20.12-49.26-16-70.27,1.38-7,4.39-11.42,8.95-13.2,2.33-1.1,25.35-11,43.31,16.75,12.74,19.74,17.9,50.88,18.11,52.19a2.72,2.72,0,0,1-1.16,2.67C470.36,322.52,451.17,335.3,429,335.3Zm-7.84-6c20.07,3.32,40.1-7.62,45.58-10.92-1.28-6.85-6.53-32.18-17-48.38-16.08-24.92-35.62-15.22-36.44-14.8a1.85,1.85,0,0,1-.29.13c-2.77,1.05-4.68,4.15-5.68,9.23C403.52,284,414.62,321.72,421.2,329.27Zm-9.12-76.5h0Z"/><path class="cls-2" d="M459.43,784.28a55.43,55.43,0,0,0,26.22,15.18c16.56,4.14,21.38,13.11,21.38,20s-11.72,12.44-32.42,12.42C458,831.87,438,816,438,816s-9.64,6.21-20,0-4.14-31.74-4.14-31.74Z"/><path class="cls-3" d="M474.73,834.59h-.12c-14.9,0-31.84-11.68-36.82-15.37a22.08,22.08,0,0,1-21.13-.89c-11.73-7-6.07-31.87-5.39-34.69a2.7,2.7,0,0,1,2.62-2.06h45.54a2.69,2.69,0,0,1,2,.92,53.45,53.45,0,0,0,24.85,14.34c21.75,5.44,23.44,18.69,23.44,22.63a9.8,9.8,0,0,1-3.13,6.94C501.33,831.68,490,834.59,474.73,834.59ZM438,813.33a2.67,2.67,0,0,1,1.68.57c.2.16,19.46,15.26,34.89,15.29h.11c13.45,0,23.93-2.47,28.07-6.6a4.51,4.51,0,0,0,1.54-3.12c0-3.77-1.88-13-19.34-17.38A58.76,58.76,0,0,1,458.26,787H416.07c-1.45,7.44-3,22.89,3.37,26.71,8.71,5.23,16.82.25,17.15,0A2.73,2.73,0,0,1,438,813.33Z"/><path class="cls-2" d="M365.22,845.5a55.44,55.44,0,0,0,24,18.44c15.89,6.24,19.52,15.76,18.63,22.6s-13.24,10.82-33.76,8.13c-16.43-2.16-34.21-20.46-34.21-20.46s-10.36,4.92-19.83-2.58,0-32,0-32Z"/><path class="cls-3" d="M386.19,898.22a96.21,96.21,0,0,1-12.41-.87c-14.76-1.94-30.06-15.7-34.53-20a22.1,22.1,0,0,1-20.83-3.6c-10.73-8.49-1.91-32.4-.87-35.09a2.67,2.67,0,0,1,2.87-1.71l45.16,5.87a2.75,2.75,0,0,1,1.89,1.18,53.31,53.31,0,0,0,22.78,17.43c20.86,8.19,20.83,21.55,20.32,25.45-.35,2.67-2.31,7.5-11.51,9.92A51.91,51.91,0,0,1,386.19,898.22Zm-46.28-26.7a2.69,2.69,0,0,1,1.95.81c.17.17,17.33,17.66,32.63,19.66,9.4,1.24,17.43,1.08,23.2-.42,4.49-1.18,7.23-3.15,7.52-5.39.48-3.73-.19-13.15-16.93-19.73A58.48,58.48,0,0,1,363.72,848l-41.84-5.44c-2.4,7.19-5.94,22.31-.11,26.92a16.93,16.93,0,0,0,17,2.26A2.73,2.73,0,0,1,339.91,871.52Z"/><path class="cls-5" d="M451.61,446.91S470,557.3,470.93,599.61c.36,16.76.54,61.71,0,95.72-.79,51.84-2.55,93.78-2.55,93.78s-13.2,14.49-32.47,14.49c-17.87,0-28.65-12.42-28.65-12.42s.52-47.37,0-67.61c-1.48-57.26,1.44-76.76-1.48-98.31C401.41,592.79,389.15,553.93,381,526c-14.46-49.67-15.89-60.71-15.89-60.71Z"/><path class="cls-3" d="M435.93,806.3A42.91,42.91,0,0,1,405.24,793a2.65,2.65,0,0,1-.66-1.8c0-.48.52-47.55,0-67.51-.68-26.08-.44-44.07-.26-58.52.22-16.83.37-27.94-1.2-39.5-3.77-28-13.48-60.85-21.27-87.25l-3.42-11.6c-14.35-49.3-15.91-60.66-16-61.12a2.7,2.7,0,0,1,2.12-3l86.47-18.4a2.73,2.73,0,0,1,3.23,2.21c.18,1.1,18.43,111.06,19.35,153.09.37,16.73.55,61.28,0,95.81-.79,51.29-2.53,93.43-2.55,93.85a2.65,2.65,0,0,1-.7,1.71C469.83,791.56,456.16,806.3,435.93,806.3ZM410,790.1c2.53,2.5,12,10.8,25.94,10.8,15.55,0,27-10.2,29.81-12.94.28-6.78,1.79-45.93,2.51-92.67.52-34.47.34-78.92,0-95.62-.83-37.9-16-132.1-18.83-149.53L368.27,467.4c1.09,5.43,4.63,21,15.36,57.87l3.4,11.57c7.85,26.58,17.62,59.66,21.45,88.06,1.62,12,1.47,23.22,1.25,40.29-.19,14.4-.42,32.33.25,58.31C410.46,741.84,410.06,782.85,410,790.1Z"/><path class="cls-5" d="M418.25,459.13s17.68,67.81-20.91,82.53c-1.17,31.28-6.38,90.32-8.22,139.79s-12.94,160.09-12.94,160.09a43.36,43.36,0,0,1-32.66,15.18c-20.07,0-38.15-12.37-38.15-12.37s3.12-36.56,5.73-88.31c1.48-29.48,6-65.66,6.19-97.51.19-42,1.87-89.83,0-104-5.73-43.47,4.13-72.14,8.21-86.91C334.78,434,418.25,459.13,418.25,459.13Z"/><path class="cls-3" d="M343.54,859.42h0c-20.66,0-38.91-12.32-39.68-12.84a2.74,2.74,0,0,1-1.17-2.46c0-.37,3.15-37.12,5.72-88.22.58-11.35,1.59-23.49,2.66-36.34,1.7-20.4,3.45-41.51,3.54-61,.07-13.27.27-27.11.47-40.29.41-27.69.81-53.84-.45-63.34-5.33-40.43,2.8-68.81,7.17-84.05l1.11-3.92c1.65-6,5.49-10.69,11.39-13.95,25.4-14,82.34,2.85,84.75,3.57a2.74,2.74,0,0,1,1.84,1.91c.73,2.82,17.35,68.45-20.9,85.06-.56,13.68-1.79,31.9-3.21,52.85-1.84,27-3.91,57.63-4.94,85.19-1.83,49-12.84,159.16-12.95,160.26a2.77,2.77,0,0,1-.54,1.38A45.83,45.83,0,0,1,343.54,859.42ZM308.2,843c4.4,2.7,19.34,11.07,35.32,11.07h0c17.2,0,27.76-10.95,30-13.57,1-10.24,11.11-112.51,12.84-159.1,1-27.65,3.11-58.3,4.94-85.35,1.49-21.82,2.76-40.66,3.27-54.44a2.7,2.7,0,0,1,1.74-2.42c32.85-12.53,21.84-68,19.61-77.85-9.12-2.55-57.81-15.37-79.09-3.58-4.64,2.56-7.52,6.05-8.79,10.64l-1.13,4c-4.55,15.92-12.19,42.55-7,81.87,1.3,9.89.92,35,.48,64.13-.19,13.16-.4,27-.46,40.23-.09,19.74-1.86,41-3.56,61.46-1.07,12.81-2.08,24.9-2.64,36.16C311.52,801.3,308.82,835.27,308.2,843Z"/><path class="cls-4" d="M416.54,262c15.4,8.56,30.47,17.88,34.15,61.63s.92,123.27.92,123.27-7.84,19.79-57.95,29.44c-43,8.28-68.16-8.72-68.16-8.72s2.43-14.72-1.75-45.56c-4.64-34.16-17.73-77.7-18.36-93.75C304.05,294.21,364.21,232.91,416.54,262Z"/><path class="cls-5" d="M448.74,345.42c-3.6-8.9-8.66-17.26-11.56-26.41-3.81-12-4-25.1-9-36.75-3.8-8.8-10.08-15.53-16.26-22.54a60.2,60.2,0,0,0-39-3.57c15.3,5.16,29.34,16.61,36,29.54,4.32,8.39,13.85,28.88,11.32,39-3.74,2.38-13,5.91-20.84,7.2a4,4,0,0,1-4.41-3.32c-6.82-30.08-31.61-50.64-61.65-50.9a105,105,0,0,0-15.31,17c36.37-6.23,70,27.2,67.27,63.38-1.46,19-1.3,44.19-16.74,56.92-11.94,9.83-28.89,9.45-44.67,8.65,3.88,29.72,1.57,44,1.57,44s25.15,17,68.16,8.72c50.11-9.65,57.95-29.44,57.95-29.44s1.74-50.17.61-92.74C451.06,351.29,449.93,348.38,448.74,345.42Z"/><path class="cls-3" d="M370.33,481.34c-28.95,0-45.5-10.89-46.35-11.47a2.7,2.7,0,0,1-1.15-2.67c0-.15,2.31-14.82-1.76-44.76-2.33-17.15-6.81-36.72-10.77-54-3.91-17.08-7.29-31.84-7.61-40-.8-20.34,18.58-48.57,44.1-64.26,24.24-14.9,49.48-16.51,71.07-4.51h0c14.83,8.25,31.64,17.59,35.52,63.77,3.66,43.4,1,122.79.93,123.58a2.5,2.5,0,0,1-.19.9c-.34.87-9,21.28-59.95,31.1A126.08,126.08,0,0,1,370.33,481.34Zm-41.94-15.12c5.75,3.22,29,14.37,64.75,7.47,43.9-8.45,54.37-24.82,55.79-27.44.24-7.26,2.53-81.23-.94-122.38-3.63-43.3-18.44-51.53-32.76-59.49h0c-26.73-14.88-52.57-3.64-65.61,4.38-24,14.77-42.26,40.88-41.53,59.45.3,7.69,3.63,22.22,7.48,39,4,17.38,8.49,37.08,10.85,54.46C329.84,446.81,328.91,461.33,328.39,466.22Zm123.22-19.31h0Z"/><path class="cls-2" d="M398.72,244.07l7.08,33.35s4.82,11.58-2.94,17.5c-8.31,6.33-26.45,2.82-48.08-15a125.11,125.11,0,0,0,2.06-34Z"/><path class="cls-3" d="M392.9,300.57c-10.85,0-25.2-6.49-39.84-18.53a2.69,2.69,0,0,1-.94-2.6,124,124,0,0,0,2-33.2,2.69,2.69,0,0,1,2.57-3l41.86-1.88a2.81,2.81,0,0,1,2.77,2.14l7.09,33.35c.07.07,5.36,13.11-3.95,20.2A18.71,18.71,0,0,1,392.9,300.57Zm-35.18-21.7c20.68,16.57,37,18.86,43.5,13.9,6-4.56,2.12-14.23,2.08-14.32l-6.75-31.58-36.8,1.65A133,133,0,0,1,357.72,278.87Z"/><path class="cls-3" d="M347.71,426.42a99.43,99.43,0,0,1-10.3-.74,125.76,125.76,0,0,0-13.67-.91,2.7,2.7,0,1,1,0-5.4,133,133,0,0,1,14.24.93c11.69,1.25,19.41,2.07,30.86-8.49,17.52-16.15,12.54-74,12.49-74.58a2.71,2.71,0,0,1,1.82-2.81L436,316.6a2.69,2.69,0,0,1,3.35,1.49c.65,1.51,15.88,37,15.88,49.87a2.71,2.71,0,0,1-5.41,0c0-9.12-9.67-34-14.46-45.44l-48.45,16.35c.8,11.09,3.27,60.67-14.37,76.91C363.16,424.38,355.62,426.42,347.71,426.42Z"/><path class="cls-3" d="M384,339.69a2.71,2.71,0,0,1-2.52-1.73c-.75-1.93-18.68-47.11-63.75-39.56a2.71,2.71,0,0,1-.89-5.34c49.42-8.13,69.49,42.45,69.69,43a2.72,2.72,0,0,1-1.55,3.49A2.83,2.83,0,0,1,384,339.69Z"/><path class="cls-3" d="M396.74,335.39a2.69,2.69,0,0,1-2.61-2c-9.38-37.31-46-54.76-61.87-51.58a2.66,2.66,0,0,1-3.19-2.1,2.7,2.7,0,0,1,2.1-3.19c18.19-3.78,57.9,14.55,68.19,55.54a2.68,2.68,0,0,1-2,3.28A2.5,2.5,0,0,1,396.74,335.39Z"/><path class="cls-3" d="M436.83,321.86a2.7,2.7,0,0,1-2.67-2.27c-5.83-36.2-19.67-55.8-19.81-56a2.7,2.7,0,0,1,4.38-3.16c.6.83,14.72,20.73,20.76,58.3a2.7,2.7,0,0,1-2.24,3.1A3,3,0,0,1,436.83,321.86Z"/><path class="cls-3" d="M421.39,327.07a2.71,2.71,0,0,1-2.67-2.3c-3.1-20.55-15.32-52.52-15.44-52.84a2.7,2.7,0,1,1,5-1.94c.51,1.33,12.56,32.83,15.75,54A2.71,2.71,0,0,1,421.8,327,2.83,2.83,0,0,1,421.39,327.07Z"/><path class="cls-3" d="M419.13,397.43a15.45,15.45,0,0,1-8.16-2.31c-13.92-8.43-16.24-37.84-16.33-39.09a2.7,2.7,0,0,1,1.8-2.74l33.48-11.72a2.7,2.7,0,0,1,3.4,1.53c.7,1.73,16.92,42.57-6,52.48A20.66,20.66,0,0,1,419.13,397.43Zm-18.91-39.74c1,8.92,4.72,27.46,13.55,32.81,3.26,2,7,2,11.4.12,15.4-6.66,7-34.64,4-43.08Z"/><path class="cls-3" d="M367.55,461.85c-25.45,0-41.26-4.72-42.15-5a2.71,2.71,0,0,1-1.79-3.37,2.68,2.68,0,0,1,3.38-1.79c.28.08,28.56,8.49,70,2.67,28.5-4,53.09-24.89,53.34-25.11a2.7,2.7,0,1,1,3.52,4.1c-1.05.9-26,22.1-56.1,26.35A215.24,215.24,0,0,1,367.55,461.85Z"/><path class="cls-2" d="M345.13,220.14c0,27.19,22.14,49.36,44,56.13,7.95,2.46,21.56.52,28-7.85,10-13,13.73-28.3,13.73-49.6,0-29.61-18.55-53.61-41.42-53.61S345.13,190.53,345.13,220.14Z"/><path class="cls-3" d="M396.47,280a27.77,27.77,0,0,1-8.15-1.15C366.07,272,342.43,249,342.43,220.14c0-30.7,21.94-57.63,47-57.63,24.33,0,44.12,25.26,44.12,56.31,0,22.84-4.27,38.17-14.28,51.24C414,276.85,404.75,280,396.47,280Zm-7.08-112.09c-21.75,0-41.56,24.9-41.56,52.23,0,26.31,21.69,47.23,42.1,53.55,6.5,2,19.16.72,25-6.91,9.24-12.06,13.18-26.4,13.18-48C428.11,190.74,410.74,167.91,389.39,167.91Z"/><path class="cls-4" d="M430.81,196.61s-13.92,17-41.42,22.21c-13.9,2.65-44.26,1.32-44.26,1.32s-11.07-48.29,31.05-59.41C425.85,147.63,430.81,196.61,430.81,196.61Z"/><path class="cls-3" d="M362.09,223.18c-9.06,0-16.47-.32-17.08-.34a2.7,2.7,0,0,1-2.51-2.1c-.12-.5-11.15-51,33-62.62,15.81-4.18,29-2.71,39.15,4.33,16.4,11.37,18.77,33,18.86,33.89a2.7,2.7,0,0,1-.6,2c-.6.72-14.87,17.78-43,23.14C382.73,222.84,371.52,223.18,362.09,223.18Zm-14.72-5.66c7.1.22,30.18.8,41.51-1.36,22.74-4.33,35.89-17,39.08-20.41-.71-4.39-4.07-20.34-16.43-28.88-8.78-6.08-20.45-7.26-34.66-3.53C342,172.55,345.82,208.46,347.37,217.52Z"/><path class="cls-4" d="M368.6,220.41s40.7-33,60-27.94,35.88,17,35.88,17A57.24,57.24,0,0,0,435,216.91c-14.36,8.41-16.75,14.2-34,12.82S368.6,220.41,368.6,220.41Z"/><path class="cls-3" d="M405.7,232.63c-1.51,0-3.13-.07-4.9-.21-17.59-1.4-32.82-9.28-33.46-9.62a2.7,2.7,0,0,1-.45-4.48c1.71-1.39,42.09-33.72,62.41-28.47,19.58,5.12,36.08,16.93,36.77,17.43a2.7,2.7,0,0,1,1,3.1,2.59,2.59,0,0,1-2.71,1.78,55.28,55.28,0,0,0-27.94,7.08c-3.4,2-6.13,3.85-8.54,5.48C421,229.36,416.17,232.63,405.7,232.63Zm-32-12.82c5.48,2.37,16.08,6.31,27.5,7.22,12.14,1,16-1.61,23.58-6.78,2.5-1.69,5.31-3.6,8.84-5.67a59.07,59.07,0,0,1,22.26-7.38c-6.49-3.84-16.81-9.19-28-12.11C414.47,191.55,386.89,209.79,373.73,219.81Z"/><path class="cls-3" d="M368.6,223.11a2.7,2.7,0,0,1-2.57-1.85c-.49-1.47-11.73-36.35,8-62.17a2.7,2.7,0,0,1,4.29,3.28c-18,23.58-7.28,56.86-7.17,57.19a2.7,2.7,0,0,1-1.71,3.41A2.53,2.53,0,0,1,368.6,223.11Z"/><path class="cls-3" d="M354.77,250a2.7,2.7,0,0,1-1.85-4.67c.14-.13,13.83-13.24,13-24.76a2.7,2.7,0,0,1,5.39-.4c1,14.09-14,28.48-14.66,29.09A2.71,2.71,0,0,1,354.77,250Z"/><path class="cls-2" d="M300.46,325.48s-43.26,43-62.58,62.16-44.15,40-64.85,59.26S120.6,497,106.8,507.8s4.14,14.19,11,9.72S134.4,502.4,134.4,502.4s13.79,10.56,26.21,3.71S174.41,481,174.41,481s50.37-23,78.65-60.18c31.05-15.31,78.65-60.37,78.65-60.37Z"/><path class="cls-3" d="M110.16,522.15c-4.11,0-8.13-1.24-10-3.91-1.49-2.07-2.8-6.48,5-12.57C115,498,134.67,479.38,152,463c6.83-6.46,13.43-12.71,19.19-18.05,8.1-7.54,16.86-15.33,25.66-23.17,13.47-12,27.42-24.42,39.12-36l62.58-62.15a2.81,2.81,0,0,1,2-.79,2.67,2.67,0,0,1,1.94.9l31.25,34.93a2.69,2.69,0,0,1-.16,3.76c-1.94,1.84-47.69,45-78.74,60.54-26.13,34-69.44,55.8-77.91,59.85-.66,4.88-3.58,19.4-15,25.71-11,6-22.52.32-27.12-2.54-3.09,3.26-10,10.31-15.5,13.85A17.29,17.29,0,0,1,110.16,522.15ZM300.35,329.41l-60.57,60.15C228,401.27,214,413.73,200.45,425.79c-8.77,7.81-17.5,15.57-25.58,23.08-5.74,5.34-12.33,11.57-19.15,18-18.28,17.29-37.19,35.17-47.26,43-3.57,2.79-4.31,4.66-3.93,5.18,1.26,1.76,8.24,2.47,11.83.14,6.53-4.23,15.94-14.56,16-14.67a2.7,2.7,0,0,1,3.64-.33c.12.09,12.58,9.41,23.27,3.49,11-6.08,12.4-22.81,12.42-23a2.68,2.68,0,0,1,1.56-2.25c.5-.24,50.09-23.22,77.64-59.37a2.52,2.52,0,0,1,1-.79c26.84-13.23,66.88-49.61,76.07-58.11Z"/><path class="cls-4" d="M345.51,297.4c25.16,21.76-.38,74-32.51,95.35-17.94-18.68-37.71-37.37-49.67-44,18.55-26.93,25.61-33.74,36-43.09C317.29,289.54,329.77,283.8,345.51,297.4Z"/><path class="cls-3" d="M313,395.46a2.74,2.74,0,0,1-1.95-.83c-21.61-22.52-39-38-49-43.49a2.7,2.7,0,0,1-.91-3.9c18.59-27,26-34.14,36.43-43.57C316,287.1,330,280.44,347.27,295.36h0c8,6.91,11.81,17.18,11,29.68-1.55,24.35-20.38,54.43-43.79,70A2.74,2.74,0,0,1,313,395.46Zm-45.8-47.53c13.65,8.59,33.94,28.65,46.16,41.3,20.95-14.82,38.14-42.72,39.54-64.54.69-10.9-2.39-19.39-9.16-25.25h0c-12.9-11.14-23.24-9.15-42.59,8.24C291,316.83,284.26,323.35,267.2,347.93Z"/><polygon class="cls-1" points="539.27 329.39 473.67 367.27 452.04 483.19 517.64 445.32 539.27 329.39"/><path class="cls-3" d="M452.05,485.89a2.68,2.68,0,0,1-2.66-3.19L471,366.77a2.7,2.7,0,0,1,1.3-1.85l65.61-37.87a2.7,2.7,0,0,1,4,2.84L520.3,445.81a2.73,2.73,0,0,1-1.3,1.85l-65.6,37.88A2.83,2.83,0,0,1,452.05,485.89ZM476.1,369,455.78,477.92l59.44-34.32,20.32-108.93Z"/><path class="cls-2" d="M530.74,375.14c-13.94,5.55-31.82,22-23.71,31.15s28.05,4.15,32.24-7.86C545.51,380.59,542,370.65,530.74,375.14Z"/><path class="cls-3" d="M518.9,413.7c-5.66,0-10.64-2-13.89-5.61A10.86,10.86,0,0,1,502.66,398c2.36-10,15.89-20.9,27.08-25.35h0c6.34-2.51,10-.81,12,1.07,4.38,4.19,4.41,13.28.11,25.63-2.36,6.74-9.35,12.18-17.81,13.86A26.76,26.76,0,0,1,518.9,413.7Zm16.67-36.93a11.08,11.08,0,0,0-3.83.88h0c-9.77,3.89-21.95,13.7-23.81,21.57a5.43,5.43,0,0,0,1.12,5.28c2.92,3.27,8.12,4.54,13.92,3.38,6.62-1.31,12-5.37,13.75-10.34,4.09-11.7,3.23-18.05,1.26-19.94A3.38,3.38,0,0,0,535.57,376.77Zm-4.83-1.63h0Z"/><path class="cls-1" d="M967.78,775.71c0,29.72-46.41,53.81-103.67,53.81s-103.68-24.09-103.68-53.81,46.42-53.8,103.68-53.8S967.78,746,967.78,775.71Z"/><path class="cls-4" d="M786.91,456.1c0-15.89,3-29.71,8.44-40.74a33.05,33.05,0,0,0-10.27,3.73c-15,8.67-23.61,29.15-23.61,56.2,0,52.53,32,113.72,71.25,136.41,16.49,9.52,32.33,10.89,44.54,3.83a36.92,36.92,0,0,0,10.17-8.83c-8.4-.77-17.16-3.63-26.17-8.82C820.27,574.21,786.91,510.6,786.91,456.1Z"/><path class="cls-4" d="M937.22,582.23c0-76.18-46.39-164.93-103.4-197.86-14-8.06-27.65-12.13-40.18-12.13a50.32,50.32,0,0,0-23.86,5.84l-2.69,1.58C745.76,392.78,733.5,422.27,733.5,461c0,24.28,7,52.6,13,74.55,15.37,55.52,94.23,217.67,109.93,247.57,12.77-26.71,69.14-144.59,70.28-147C933.71,621.34,937.22,603.21,937.22,582.23ZM880.36,620.9a40,40,0,0,1-20.24,5.3c-9.6,0-20-3.06-30.5-9.14-41-23.66-74.35-87.26-74.35-141.77,0-29.32,9.74-51.76,26.72-61.56,14.22-8.21,32.23-6.84,50.73,3.84,41,23.67,74.35,87.27,74.35,141.78C907.07,588.66,897.33,611.1,880.36,620.9Z"/><path class="cls-4" d="M871.4,362.28c-23.1-13.35-44.75-15.78-62.61-7l-18.6,10.87c14.55-.8,30.49,3.5,46.72,12.87,58.73,33.91,106.51,125.07,106.51,203.22,0,21.89-3.72,40.91-11,56.53-1.12,2.39-52.82,110.52-68.48,143.26l28-16.48c5.83-12.18,71.19-148.88,72.44-151.51,6.93-14.79,10.44-32.93,10.44-53.9C974.8,484,928.41,395.2,871.4,362.28Z"/><path class="cls-3" d="M874.49,356.91c-24.63-14.22-48.94-16.78-68.63-7.1l-39.38,23c-.43.24-.91.39-1.34.64s-.76.58-1.17.83l-1.91,1.11a3.13,3.13,0,0,0-1,.92c-21.47,15-33.79,45.41-33.79,84.71,0,25,7.09,53.87,13.27,76.2,14.49,52.37,102.83,238.4,113.43,254,0,0,0,.09,0,.12s.18.16.26.26a5.47,5.47,0,0,0,.47.59c.06,0,.14,0,.21.07a3,3,0,0,0,1.73.61,3.14,3.14,0,0,0,.68-.07,3.26,3.26,0,0,0,.53-.26c.12-.05.25,0,.36-.09l37.58-22.09a3.16,3.16,0,0,0,1.22-1.34C900,763,968.66,619.42,970,616.66c7.33-15.62,11-34.64,11-56.53C981,482,933.22,390.82,874.49,356.91Zm-18,426.25c-15.7-29.9-94.56-192-109.93-247.57-6.08-22-13-50.27-13-74.55,0-38.77,12.26-68.26,33.59-81.38l2.69-1.58a50.32,50.32,0,0,1,23.86-5.84c12.53,0,26.19,4.07,40.18,12.13,57,32.93,103.4,121.68,103.4,197.86,0,21-3.51,39.11-10.46,53.9C925.62,638.57,869.25,756.45,856.48,783.16ZM964.36,614c-1.25,2.63-66.61,139.33-72.44,151.51l-28,16.48c15.66-32.74,67.36-140.87,68.48-143.26,7.33-15.62,11-34.64,11-56.53,0-78.15-47.78-169.31-106.51-203.22-16.23-9.37-32.17-13.67-46.72-12.87l18.6-10.87c17.86-8.77,39.51-6.34,62.61,7,57,32.92,103.4,121.67,103.4,197.85C974.8,581.1,971.29,599.24,964.36,614Z"/><path class="cls-3" d="M832.72,417.57c-18.5-10.68-36.51-12.05-50.73-3.84-17,9.8-26.72,32.24-26.72,61.56,0,54.51,33.36,118.11,74.35,141.77,10.53,6.08,20.9,9.14,30.5,9.14a40,40,0,0,0,20.24-5.3c17-9.8,26.71-32.24,26.71-61.55C907.07,504.84,873.72,441.24,832.72,417.57Zm44.54,198c-12.21,7.06-28,5.69-44.54-3.83-39.29-22.69-71.25-83.88-71.25-136.41,0-27.05,8.61-47.53,23.61-56.2a33.05,33.05,0,0,1,10.27-3.73c-5.43,11-8.44,24.85-8.44,40.74,0,54.5,33.36,118.11,74.35,141.78,9,5.19,17.77,8,26.17,8.82A36.92,36.92,0,0,1,877.26,615.53Zm14.24-14.79c-8.54,0-17.63-2.75-27.14-8.23-39.28-22.68-71.25-83.88-71.25-136.41,0-16.64,3.34-30.85,9.51-41.43,8.42.09,17.59,2.84,27,8.26,39.29,22.68,71.26,83.88,71.26,136.42C900.88,576.08,897.56,590.28,891.5,600.74Z"/></svg>